%TF.GenerationSoftware,KiCad,Pcbnew,5.1.5+dfsg1-2build2*%
%TF.CreationDate,2021-10-31T16:16:40-04:00*%
%TF.ProjectId,PCB_LeftPanel,5043425f-4c65-4667-9450-616e656c2e6b,1*%
%TF.SameCoordinates,Original*%
%TF.FileFunction,Copper,L1,Top*%
%TF.FilePolarity,Positive*%
%FSLAX46Y46*%
G04 Gerber Fmt 4.6, Leading zero omitted, Abs format (unit mm)*
G04 Created by KiCad (PCBNEW 5.1.5+dfsg1-2build2) date 2021-10-31 16:16:40*
%MOMM*%
%LPD*%
G04 APERTURE LIST*
%TA.AperFunction,ComponentPad*%
%ADD10C,4.000000*%
%TD*%
%TA.AperFunction,ComponentPad*%
%ADD11C,1.600000*%
%TD*%
%TA.AperFunction,ComponentPad*%
%ADD12R,1.600000X1.600000*%
%TD*%
%TA.AperFunction,ComponentPad*%
%ADD13O,1.600000X1.600000*%
%TD*%
%TA.AperFunction,ComponentPad*%
%ADD14O,1.700000X1.700000*%
%TD*%
%TA.AperFunction,ComponentPad*%
%ADD15R,1.700000X1.700000*%
%TD*%
%TA.AperFunction,ComponentPad*%
%ADD16C,1.500000*%
%TD*%
%TA.AperFunction,ComponentPad*%
%ADD17O,1.400000X1.400000*%
%TD*%
%TA.AperFunction,ComponentPad*%
%ADD18C,1.400000*%
%TD*%
%TA.AperFunction,SMDPad,CuDef*%
%ADD19R,1.500000X1.000000*%
%TD*%
%TA.AperFunction,ComponentPad*%
%ADD20O,3.500000X2.000000*%
%TD*%
%TA.AperFunction,ComponentPad*%
%ADD21O,2.000000X3.300000*%
%TD*%
%TA.AperFunction,ComponentPad*%
%ADD22R,2.000000X4.000000*%
%TD*%
%TA.AperFunction,ComponentPad*%
%ADD23C,3.500000*%
%TD*%
%TA.AperFunction,ComponentPad*%
%ADD24C,1.700000*%
%TD*%
%TA.AperFunction,ComponentPad*%
%ADD25C,1.800000*%
%TD*%
%TA.AperFunction,ComponentPad*%
%ADD26R,1.800000X1.800000*%
%TD*%
%TA.AperFunction,SMDPad,CuDef*%
%ADD27C,0.100000*%
%TD*%
%TA.AperFunction,ViaPad*%
%ADD28C,0.800000*%
%TD*%
%TA.AperFunction,Conductor*%
%ADD29C,0.250000*%
%TD*%
G04 APERTURE END LIST*
D10*
%TO.P,J32,0*%
%TO.N,N/C*%
X124610000Y-67970000D03*
X124610000Y-92970000D03*
D11*
%TO.P,J32,9*%
%TO.N,+5V*%
X126030000Y-84625000D03*
%TO.P,J32,8*%
%TO.N,GND*%
X126030000Y-81855000D03*
%TO.P,J32,7*%
X126030000Y-79085000D03*
%TO.P,J32,6*%
%TO.N,+5V*%
X126030000Y-76315000D03*
%TO.P,J32,5*%
%TO.N,/InputOutputPins/PC0*%
X123190000Y-86010000D03*
%TO.P,J32,4*%
%TO.N,GND*%
X123190000Y-83240000D03*
%TO.P,J32,3*%
X123190000Y-80470000D03*
%TO.P,J32,2*%
X123190000Y-77700000D03*
D12*
%TO.P,J32,1*%
%TO.N,/InputOutputPins/PC1*%
X123190000Y-74930000D03*
%TD*%
D13*
%TO.P,U1,40*%
%TO.N,/Analog Inputs/PA0*%
X109220000Y-29210000D03*
%TO.P,U1,20*%
%TO.N,Net-(U1-Pad20)*%
X93980000Y-77470000D03*
%TO.P,U1,39*%
%TO.N,/Analog Inputs/PA1*%
X109220000Y-31750000D03*
%TO.P,U1,19*%
%TO.N,Net-(U1-Pad19)*%
X93980000Y-74930000D03*
%TO.P,U1,38*%
%TO.N,/Analog Inputs/PA2*%
X109220000Y-34290000D03*
%TO.P,U1,18*%
%TO.N,Net-(U1-Pad18)*%
X93980000Y-72390000D03*
%TO.P,U1,37*%
%TO.N,/Analog Inputs/PA3*%
X109220000Y-36830000D03*
%TO.P,U1,17*%
%TO.N,STATUS*%
X93980000Y-69850000D03*
%TO.P,U1,36*%
%TO.N,/Analog Inputs/PA4*%
X109220000Y-39370000D03*
%TO.P,U1,16*%
%TO.N,Net-(U1-Pad16)*%
X93980000Y-67310000D03*
%TO.P,U1,35*%
%TO.N,/Analog Inputs/PA5*%
X109220000Y-41910000D03*
%TO.P,U1,15*%
%TO.N,TXD*%
X93980000Y-64770000D03*
%TO.P,U1,34*%
%TO.N,/Analog Inputs/PA6*%
X109220000Y-44450000D03*
%TO.P,U1,14*%
%TO.N,RXD*%
X93980000Y-62230000D03*
%TO.P,U1,33*%
%TO.N,/Analog Inputs/PA7*%
X109220000Y-46990000D03*
%TO.P,U1,13*%
%TO.N,Net-(C4-Pad1)*%
X93980000Y-59690000D03*
%TO.P,U1,32*%
%TO.N,+5V*%
X109220000Y-49530000D03*
%TO.P,U1,12*%
%TO.N,Net-(C5-Pad1)*%
X93980000Y-57150000D03*
%TO.P,U1,31*%
%TO.N,GND*%
X109220000Y-52070000D03*
%TO.P,U1,11*%
X93980000Y-54610000D03*
%TO.P,U1,30*%
%TO.N,+5V*%
X109220000Y-54610000D03*
%TO.P,U1,10*%
X93980000Y-52070000D03*
%TO.P,U1,29*%
%TO.N,/InputOutputPins/PC7*%
X109220000Y-57150000D03*
%TO.P,U1,9*%
%TO.N,Net-(J2-Pad5)*%
X93980000Y-49530000D03*
%TO.P,U1,28*%
%TO.N,/InputOutputPins/PC6*%
X109220000Y-59690000D03*
%TO.P,U1,8*%
%TO.N,/InputOutputPins/PB7*%
X93980000Y-46990000D03*
%TO.P,U1,27*%
%TO.N,/InputOutputPins/PC5*%
X109220000Y-62230000D03*
%TO.P,U1,7*%
%TO.N,/InputOutputPins/PB6*%
X93980000Y-44450000D03*
%TO.P,U1,26*%
%TO.N,/InputOutputPins/PC4*%
X109220000Y-64770000D03*
%TO.P,U1,6*%
%TO.N,/InputOutputPins/PB5*%
X93980000Y-41910000D03*
%TO.P,U1,25*%
%TO.N,/InputOutputPins/PC3*%
X109220000Y-67310000D03*
%TO.P,U1,5*%
%TO.N,/InputOutputPins/PB4*%
X93980000Y-39370000D03*
%TO.P,U1,24*%
%TO.N,/InputOutputPins/PC2*%
X109220000Y-69850000D03*
%TO.P,U1,4*%
%TO.N,/InputOutputPins/PB3*%
X93980000Y-36830000D03*
%TO.P,U1,23*%
%TO.N,/InputOutputPins/PC1*%
X109220000Y-72390000D03*
%TO.P,U1,3*%
%TO.N,/InputOutputPins/PB2*%
X93980000Y-34290000D03*
%TO.P,U1,22*%
%TO.N,/InputOutputPins/PC0*%
X109220000Y-74930000D03*
%TO.P,U1,2*%
%TO.N,/InputOutputPins/PB1*%
X93980000Y-31750000D03*
%TO.P,U1,21*%
%TO.N,Net-(U1-Pad21)*%
X109220000Y-77470000D03*
D12*
%TO.P,U1,1*%
%TO.N,/InputOutputPins/PB0*%
X93980000Y-29210000D03*
%TD*%
D13*
%TO.P,U5,14*%
%TO.N,+5V*%
X53340000Y-88900000D03*
%TO.P,U5,7*%
%TO.N,GND*%
X38100000Y-81280000D03*
%TO.P,U5,13*%
%TO.N,N/C*%
X50800000Y-88900000D03*
%TO.P,U5,6*%
%TO.N,Net-(J20-Pad10)*%
X40640000Y-81280000D03*
%TO.P,U5,12*%
%TO.N,N/C*%
X48260000Y-88900000D03*
%TO.P,U5,5*%
%TO.N,Q8*%
X43180000Y-81280000D03*
%TO.P,U5,11*%
%TO.N,N/C*%
X45720000Y-88900000D03*
%TO.P,U5,4*%
%TO.N,Net-(J18-Pad10)*%
X45720000Y-81280000D03*
%TO.P,U5,10*%
%TO.N,N/C*%
X43180000Y-88900000D03*
%TO.P,U5,3*%
%TO.N,Q7*%
X48260000Y-81280000D03*
%TO.P,U5,9*%
%TO.N,Q9*%
X40640000Y-88900000D03*
%TO.P,U5,2*%
%TO.N,Net-(J16-Pad10)*%
X50800000Y-81280000D03*
%TO.P,U5,8*%
%TO.N,Net-(J22-Pad10)*%
X38100000Y-88900000D03*
D12*
%TO.P,U5,1*%
%TO.N,Q6*%
X53340000Y-81280000D03*
%TD*%
D13*
%TO.P,U4,14*%
%TO.N,+5V*%
X53340000Y-101600000D03*
%TO.P,U4,7*%
%TO.N,GND*%
X38100000Y-93980000D03*
%TO.P,U4,13*%
%TO.N,Q5*%
X50800000Y-101600000D03*
%TO.P,U4,6*%
%TO.N,Net-(J8-Pad10)*%
X40640000Y-93980000D03*
%TO.P,U4,12*%
%TO.N,Net-(J14-Pad10)*%
X48260000Y-101600000D03*
%TO.P,U4,5*%
%TO.N,Q2*%
X43180000Y-93980000D03*
%TO.P,U4,11*%
%TO.N,Q4*%
X45720000Y-101600000D03*
%TO.P,U4,4*%
%TO.N,Net-(J6-Pad10)*%
X45720000Y-93980000D03*
%TO.P,U4,10*%
%TO.N,Net-(J12-Pad10)*%
X43180000Y-101600000D03*
%TO.P,U4,3*%
%TO.N,Q1*%
X48260000Y-93980000D03*
%TO.P,U4,9*%
%TO.N,Q3*%
X40640000Y-101600000D03*
%TO.P,U4,2*%
%TO.N,Net-(J4-Pad10)*%
X50800000Y-93980000D03*
%TO.P,U4,8*%
%TO.N,Net-(J10-Pad10)*%
X38100000Y-101600000D03*
D12*
%TO.P,U4,1*%
%TO.N,Q0*%
X53340000Y-93980000D03*
%TD*%
D14*
%TO.P,J36,8*%
%TO.N,/Analog Inputs/PA7*%
X118110000Y-44450000D03*
%TO.P,J36,7*%
%TO.N,/Analog Inputs/PA6*%
X118110000Y-41910000D03*
%TO.P,J36,6*%
%TO.N,/Analog Inputs/PA5*%
X118110000Y-39370000D03*
%TO.P,J36,5*%
%TO.N,/Analog Inputs/PA4*%
X118110000Y-36830000D03*
%TO.P,J36,4*%
%TO.N,/Analog Inputs/PA3*%
X118110000Y-34290000D03*
%TO.P,J36,3*%
%TO.N,/Analog Inputs/PA2*%
X118110000Y-31750000D03*
%TO.P,J36,2*%
%TO.N,/Analog Inputs/PA1*%
X118110000Y-29210000D03*
D15*
%TO.P,J36,1*%
%TO.N,/Analog Inputs/PA0*%
X118110000Y-26670000D03*
%TD*%
D14*
%TO.P,J2,6*%
%TO.N,GND*%
X64770000Y-30480000D03*
%TO.P,J2,5*%
%TO.N,Net-(J2-Pad5)*%
X64770000Y-27940000D03*
%TO.P,J2,4*%
%TO.N,/InputOutputPins/PB5*%
X67310000Y-30480000D03*
%TO.P,J2,3*%
%TO.N,/InputOutputPins/PB7*%
X67310000Y-27940000D03*
%TO.P,J2,2*%
%TO.N,+5V*%
X69850000Y-30480000D03*
D15*
%TO.P,J2,1*%
%TO.N,/InputOutputPins/PB6*%
X69850000Y-27940000D03*
%TD*%
D16*
%TO.P,Y1,2*%
%TO.N,Net-(C4-Pad1)*%
X83820000Y-59490000D03*
%TO.P,Y1,1*%
%TO.N,Net-(C5-Pad1)*%
X83820000Y-54610000D03*
%TD*%
D13*
%TO.P,U2,16*%
%TO.N,+5V*%
X83820000Y-90170000D03*
%TO.P,U2,8*%
%TO.N,GND*%
X101600000Y-97790000D03*
%TO.P,U2,15*%
%TO.N,Net-(U1-Pad18)*%
X86360000Y-90170000D03*
%TO.P,U2,7*%
%TO.N,Q6*%
X99060000Y-97790000D03*
%TO.P,U2,14*%
%TO.N,Net-(U1-Pad19)*%
X88900000Y-90170000D03*
%TO.P,U2,6*%
%TO.N,Q5*%
X96520000Y-97790000D03*
%TO.P,U2,13*%
%TO.N,Net-(U1-Pad20)*%
X91440000Y-90170000D03*
%TO.P,U2,5*%
%TO.N,Q4*%
X93980000Y-97790000D03*
%TO.P,U2,12*%
%TO.N,Net-(U1-Pad21)*%
X93980000Y-90170000D03*
%TO.P,U2,4*%
%TO.N,Q3*%
X91440000Y-97790000D03*
%TO.P,U2,11*%
%TO.N,Q9*%
X96520000Y-90170000D03*
%TO.P,U2,3*%
%TO.N,Q2*%
X88900000Y-97790000D03*
%TO.P,U2,10*%
%TO.N,Q8*%
X99060000Y-90170000D03*
%TO.P,U2,2*%
%TO.N,Q1*%
X86360000Y-97790000D03*
%TO.P,U2,9*%
%TO.N,Q7*%
X101600000Y-90170000D03*
D12*
%TO.P,U2,1*%
%TO.N,Q0*%
X83820000Y-97790000D03*
%TD*%
D17*
%TO.P,R86,2*%
%TO.N,/InputOutputPins/PB7*%
X99695000Y-213995000D03*
D18*
%TO.P,R86,1*%
%TO.N,Net-(J22-Pad15)*%
X99695000Y-221615000D03*
%TD*%
D17*
%TO.P,R85,2*%
%TO.N,/InputOutputPins/PB6*%
X102235000Y-213995000D03*
D18*
%TO.P,R85,1*%
%TO.N,Net-(J22-Pad13)*%
X102235000Y-221615000D03*
%TD*%
D17*
%TO.P,R84,2*%
%TO.N,/InputOutputPins/PB5*%
X104775000Y-213995000D03*
D18*
%TO.P,R84,1*%
%TO.N,Net-(J22-Pad11)*%
X104775000Y-221615000D03*
%TD*%
D17*
%TO.P,R83,2*%
%TO.N,/InputOutputPins/PB4*%
X107315000Y-213995000D03*
D18*
%TO.P,R83,1*%
%TO.N,Net-(J22-Pad9)*%
X107315000Y-221615000D03*
%TD*%
D17*
%TO.P,R82,2*%
%TO.N,/InputOutputPins/PB3*%
X109855000Y-213995000D03*
D18*
%TO.P,R82,1*%
%TO.N,Net-(J22-Pad7)*%
X109855000Y-221615000D03*
%TD*%
D17*
%TO.P,R81,2*%
%TO.N,/InputOutputPins/PB2*%
X112395000Y-213995000D03*
D18*
%TO.P,R81,1*%
%TO.N,Net-(J22-Pad5)*%
X112395000Y-221615000D03*
%TD*%
D17*
%TO.P,R80,2*%
%TO.N,/InputOutputPins/PB1*%
X114935000Y-213995000D03*
D18*
%TO.P,R80,1*%
%TO.N,Net-(J22-Pad3)*%
X114935000Y-221615000D03*
%TD*%
D17*
%TO.P,R79,2*%
%TO.N,/InputOutputPins/PB0*%
X117475000Y-213995000D03*
D18*
%TO.P,R79,1*%
%TO.N,Net-(J22-Pad1)*%
X117475000Y-221615000D03*
%TD*%
D17*
%TO.P,R78,2*%
%TO.N,/InputOutputPins/PB7*%
X51435000Y-213995000D03*
D18*
%TO.P,R78,1*%
%TO.N,Net-(J20-Pad15)*%
X51435000Y-221615000D03*
%TD*%
D17*
%TO.P,R77,2*%
%TO.N,/InputOutputPins/PB6*%
X53975000Y-213995000D03*
D18*
%TO.P,R77,1*%
%TO.N,Net-(J20-Pad13)*%
X53975000Y-221615000D03*
%TD*%
D17*
%TO.P,R76,2*%
%TO.N,/InputOutputPins/PB5*%
X56515000Y-213995000D03*
D18*
%TO.P,R76,1*%
%TO.N,Net-(J20-Pad11)*%
X56515000Y-221615000D03*
%TD*%
D17*
%TO.P,R75,2*%
%TO.N,/InputOutputPins/PB4*%
X59055000Y-213995000D03*
D18*
%TO.P,R75,1*%
%TO.N,Net-(J20-Pad9)*%
X59055000Y-221615000D03*
%TD*%
D17*
%TO.P,R74,2*%
%TO.N,/InputOutputPins/PB3*%
X61595000Y-213995000D03*
D18*
%TO.P,R74,1*%
%TO.N,Net-(J20-Pad7)*%
X61595000Y-221615000D03*
%TD*%
D17*
%TO.P,R73,2*%
%TO.N,/InputOutputPins/PB2*%
X64135000Y-213995000D03*
D18*
%TO.P,R73,1*%
%TO.N,Net-(J20-Pad5)*%
X64135000Y-221615000D03*
%TD*%
D17*
%TO.P,R72,2*%
%TO.N,/InputOutputPins/PB1*%
X66675000Y-213995000D03*
D18*
%TO.P,R72,1*%
%TO.N,Net-(J20-Pad3)*%
X66675000Y-221615000D03*
%TD*%
D17*
%TO.P,R71,2*%
%TO.N,/InputOutputPins/PB0*%
X69215000Y-213995000D03*
D18*
%TO.P,R71,1*%
%TO.N,Net-(J20-Pad1)*%
X69215000Y-221615000D03*
%TD*%
D17*
%TO.P,R70,2*%
%TO.N,/InputOutputPins/PB7*%
X99695000Y-191770000D03*
D18*
%TO.P,R70,1*%
%TO.N,Net-(J18-Pad15)*%
X99695000Y-199390000D03*
%TD*%
D17*
%TO.P,R69,2*%
%TO.N,/InputOutputPins/PB6*%
X102235000Y-191770000D03*
D18*
%TO.P,R69,1*%
%TO.N,Net-(J18-Pad13)*%
X102235000Y-199390000D03*
%TD*%
D17*
%TO.P,R68,2*%
%TO.N,/InputOutputPins/PB5*%
X104775000Y-191770000D03*
D18*
%TO.P,R68,1*%
%TO.N,Net-(J18-Pad11)*%
X104775000Y-199390000D03*
%TD*%
D17*
%TO.P,R67,2*%
%TO.N,/InputOutputPins/PB4*%
X107315000Y-191770000D03*
D18*
%TO.P,R67,1*%
%TO.N,Net-(J18-Pad9)*%
X107315000Y-199390000D03*
%TD*%
D17*
%TO.P,R66,2*%
%TO.N,/InputOutputPins/PB3*%
X109855000Y-191770000D03*
D18*
%TO.P,R66,1*%
%TO.N,Net-(J18-Pad7)*%
X109855000Y-199390000D03*
%TD*%
D17*
%TO.P,R65,2*%
%TO.N,/InputOutputPins/PB2*%
X112395000Y-191770000D03*
D18*
%TO.P,R65,1*%
%TO.N,Net-(J18-Pad5)*%
X112395000Y-199390000D03*
%TD*%
D17*
%TO.P,R64,2*%
%TO.N,/InputOutputPins/PB1*%
X114935000Y-191770000D03*
D18*
%TO.P,R64,1*%
%TO.N,Net-(J18-Pad3)*%
X114935000Y-199390000D03*
%TD*%
D17*
%TO.P,R63,2*%
%TO.N,/InputOutputPins/PB0*%
X117475000Y-191770000D03*
D18*
%TO.P,R63,1*%
%TO.N,Net-(J18-Pad1)*%
X117475000Y-199390000D03*
%TD*%
D17*
%TO.P,R62,2*%
%TO.N,/InputOutputPins/PB7*%
X51562000Y-191643000D03*
D18*
%TO.P,R62,1*%
%TO.N,Net-(J16-Pad15)*%
X51562000Y-199263000D03*
%TD*%
D17*
%TO.P,R61,2*%
%TO.N,/InputOutputPins/PB6*%
X54102000Y-191643000D03*
D18*
%TO.P,R61,1*%
%TO.N,Net-(J16-Pad13)*%
X54102000Y-199263000D03*
%TD*%
D17*
%TO.P,R60,2*%
%TO.N,/InputOutputPins/PB5*%
X56642000Y-191643000D03*
D18*
%TO.P,R60,1*%
%TO.N,Net-(J16-Pad11)*%
X56642000Y-199263000D03*
%TD*%
D17*
%TO.P,R59,2*%
%TO.N,/InputOutputPins/PB4*%
X59182000Y-191643000D03*
D18*
%TO.P,R59,1*%
%TO.N,Net-(J16-Pad9)*%
X59182000Y-199263000D03*
%TD*%
D17*
%TO.P,R58,2*%
%TO.N,/InputOutputPins/PB3*%
X61722000Y-191643000D03*
D18*
%TO.P,R58,1*%
%TO.N,Net-(J16-Pad7)*%
X61722000Y-199263000D03*
%TD*%
D17*
%TO.P,R57,2*%
%TO.N,/InputOutputPins/PB2*%
X64262000Y-191643000D03*
D18*
%TO.P,R57,1*%
%TO.N,Net-(J16-Pad5)*%
X64262000Y-199263000D03*
%TD*%
D17*
%TO.P,R56,2*%
%TO.N,/InputOutputPins/PB1*%
X66802000Y-191643000D03*
D18*
%TO.P,R56,1*%
%TO.N,Net-(J16-Pad3)*%
X66802000Y-199263000D03*
%TD*%
D17*
%TO.P,R55,2*%
%TO.N,/InputOutputPins/PB0*%
X69342000Y-191643000D03*
D18*
%TO.P,R55,1*%
%TO.N,Net-(J16-Pad1)*%
X69342000Y-199263000D03*
%TD*%
D17*
%TO.P,R54,2*%
%TO.N,/InputOutputPins/PB7*%
X99822000Y-168783000D03*
D18*
%TO.P,R54,1*%
%TO.N,Net-(J14-Pad15)*%
X99822000Y-176403000D03*
%TD*%
D17*
%TO.P,R53,2*%
%TO.N,/InputOutputPins/PB6*%
X102362000Y-168783000D03*
D18*
%TO.P,R53,1*%
%TO.N,Net-(J14-Pad13)*%
X102362000Y-176403000D03*
%TD*%
D17*
%TO.P,R52,2*%
%TO.N,/InputOutputPins/PB5*%
X104902000Y-168783000D03*
D18*
%TO.P,R52,1*%
%TO.N,Net-(J14-Pad11)*%
X104902000Y-176403000D03*
%TD*%
D17*
%TO.P,R51,2*%
%TO.N,/InputOutputPins/PB4*%
X107442000Y-168783000D03*
D18*
%TO.P,R51,1*%
%TO.N,Net-(J14-Pad9)*%
X107442000Y-176403000D03*
%TD*%
D17*
%TO.P,R50,2*%
%TO.N,/InputOutputPins/PB3*%
X109982000Y-168783000D03*
D18*
%TO.P,R50,1*%
%TO.N,Net-(J14-Pad7)*%
X109982000Y-176403000D03*
%TD*%
D17*
%TO.P,R49,2*%
%TO.N,/InputOutputPins/PB2*%
X112522000Y-168783000D03*
D18*
%TO.P,R49,1*%
%TO.N,Net-(J14-Pad5)*%
X112522000Y-176403000D03*
%TD*%
D17*
%TO.P,R48,2*%
%TO.N,/InputOutputPins/PB1*%
X115062000Y-168783000D03*
D18*
%TO.P,R48,1*%
%TO.N,Net-(J14-Pad3)*%
X115062000Y-176403000D03*
%TD*%
D17*
%TO.P,R47,2*%
%TO.N,/InputOutputPins/PB0*%
X117602000Y-168783000D03*
D18*
%TO.P,R47,1*%
%TO.N,Net-(J14-Pad1)*%
X117602000Y-176403000D03*
%TD*%
D17*
%TO.P,R46,2*%
%TO.N,/InputOutputPins/PB7*%
X51562000Y-168783000D03*
D18*
%TO.P,R46,1*%
%TO.N,Net-(J12-Pad15)*%
X51562000Y-176403000D03*
%TD*%
D17*
%TO.P,R45,2*%
%TO.N,/InputOutputPins/PB6*%
X54102000Y-168783000D03*
D18*
%TO.P,R45,1*%
%TO.N,Net-(J12-Pad13)*%
X54102000Y-176403000D03*
%TD*%
D17*
%TO.P,R44,2*%
%TO.N,/InputOutputPins/PB5*%
X56642000Y-168783000D03*
D18*
%TO.P,R44,1*%
%TO.N,Net-(J12-Pad11)*%
X56642000Y-176403000D03*
%TD*%
D17*
%TO.P,R43,2*%
%TO.N,/InputOutputPins/PB4*%
X59182000Y-168783000D03*
D18*
%TO.P,R43,1*%
%TO.N,Net-(J12-Pad9)*%
X59182000Y-176403000D03*
%TD*%
D17*
%TO.P,R42,2*%
%TO.N,/InputOutputPins/PB3*%
X61595000Y-168910000D03*
D18*
%TO.P,R42,1*%
%TO.N,Net-(J12-Pad7)*%
X61595000Y-176530000D03*
%TD*%
D17*
%TO.P,R41,2*%
%TO.N,/InputOutputPins/PB2*%
X64135000Y-168910000D03*
D18*
%TO.P,R41,1*%
%TO.N,Net-(J12-Pad5)*%
X64135000Y-176530000D03*
%TD*%
D17*
%TO.P,R40,2*%
%TO.N,/InputOutputPins/PB1*%
X66675000Y-168910000D03*
D18*
%TO.P,R40,1*%
%TO.N,Net-(J12-Pad3)*%
X66675000Y-176530000D03*
%TD*%
D17*
%TO.P,R39,2*%
%TO.N,/InputOutputPins/PB0*%
X69215000Y-168910000D03*
D18*
%TO.P,R39,1*%
%TO.N,Net-(J12-Pad1)*%
X69215000Y-176530000D03*
%TD*%
D17*
%TO.P,R38,2*%
%TO.N,/InputOutputPins/PB7*%
X99695000Y-146050000D03*
D18*
%TO.P,R38,1*%
%TO.N,Net-(J10-Pad15)*%
X99695000Y-153670000D03*
%TD*%
D17*
%TO.P,R37,2*%
%TO.N,/InputOutputPins/PB6*%
X102235000Y-146050000D03*
D18*
%TO.P,R37,1*%
%TO.N,Net-(J10-Pad13)*%
X102235000Y-153670000D03*
%TD*%
D17*
%TO.P,R36,2*%
%TO.N,/InputOutputPins/PB5*%
X104775000Y-146050000D03*
D18*
%TO.P,R36,1*%
%TO.N,Net-(J10-Pad11)*%
X104775000Y-153670000D03*
%TD*%
D17*
%TO.P,R35,2*%
%TO.N,/InputOutputPins/PB4*%
X107315000Y-146050000D03*
D18*
%TO.P,R35,1*%
%TO.N,Net-(J10-Pad9)*%
X107315000Y-153670000D03*
%TD*%
D17*
%TO.P,R34,2*%
%TO.N,/InputOutputPins/PB3*%
X109855000Y-146050000D03*
D18*
%TO.P,R34,1*%
%TO.N,Net-(J10-Pad7)*%
X109855000Y-153670000D03*
%TD*%
D17*
%TO.P,R33,2*%
%TO.N,/InputOutputPins/PB2*%
X112395000Y-146050000D03*
D18*
%TO.P,R33,1*%
%TO.N,Net-(J10-Pad5)*%
X112395000Y-153670000D03*
%TD*%
D17*
%TO.P,R32,2*%
%TO.N,/InputOutputPins/PB1*%
X114935000Y-146050000D03*
D18*
%TO.P,R32,1*%
%TO.N,Net-(J10-Pad3)*%
X114935000Y-153670000D03*
%TD*%
D17*
%TO.P,R31,2*%
%TO.N,/InputOutputPins/PB0*%
X117475000Y-146050000D03*
D18*
%TO.P,R31,1*%
%TO.N,Net-(J10-Pad1)*%
X117475000Y-153670000D03*
%TD*%
D17*
%TO.P,R30,2*%
%TO.N,/InputOutputPins/PB7*%
X51435000Y-146050000D03*
D18*
%TO.P,R30,1*%
%TO.N,Net-(J8-Pad15)*%
X51435000Y-153670000D03*
%TD*%
D17*
%TO.P,R29,2*%
%TO.N,/InputOutputPins/PB6*%
X53975000Y-146050000D03*
D18*
%TO.P,R29,1*%
%TO.N,Net-(J8-Pad13)*%
X53975000Y-153670000D03*
%TD*%
D17*
%TO.P,R28,2*%
%TO.N,/InputOutputPins/PB5*%
X56515000Y-146050000D03*
D18*
%TO.P,R28,1*%
%TO.N,Net-(J8-Pad11)*%
X56515000Y-153670000D03*
%TD*%
D17*
%TO.P,R27,2*%
%TO.N,/InputOutputPins/PB4*%
X59055000Y-146050000D03*
D18*
%TO.P,R27,1*%
%TO.N,Net-(J8-Pad9)*%
X59055000Y-153670000D03*
%TD*%
D17*
%TO.P,R26,2*%
%TO.N,/InputOutputPins/PB3*%
X61595000Y-146050000D03*
D18*
%TO.P,R26,1*%
%TO.N,Net-(J8-Pad7)*%
X61595000Y-153670000D03*
%TD*%
D17*
%TO.P,R25,2*%
%TO.N,/InputOutputPins/PB2*%
X64135000Y-146050000D03*
D18*
%TO.P,R25,1*%
%TO.N,Net-(J8-Pad5)*%
X64135000Y-153670000D03*
%TD*%
D17*
%TO.P,R24,2*%
%TO.N,/InputOutputPins/PB1*%
X66675000Y-146050000D03*
D18*
%TO.P,R24,1*%
%TO.N,Net-(J8-Pad3)*%
X66675000Y-153670000D03*
%TD*%
D17*
%TO.P,R23,2*%
%TO.N,/InputOutputPins/PB0*%
X69215000Y-146050000D03*
D18*
%TO.P,R23,1*%
%TO.N,Net-(J8-Pad1)*%
X69215000Y-153670000D03*
%TD*%
D17*
%TO.P,R22,2*%
%TO.N,/InputOutputPins/PB7*%
X99695000Y-123190000D03*
D18*
%TO.P,R22,1*%
%TO.N,Net-(J6-Pad15)*%
X99695000Y-130810000D03*
%TD*%
D17*
%TO.P,R21,2*%
%TO.N,/InputOutputPins/PB6*%
X102235000Y-123190000D03*
D18*
%TO.P,R21,1*%
%TO.N,Net-(J6-Pad13)*%
X102235000Y-130810000D03*
%TD*%
D17*
%TO.P,R20,2*%
%TO.N,/InputOutputPins/PB5*%
X104775000Y-123190000D03*
D18*
%TO.P,R20,1*%
%TO.N,Net-(J6-Pad11)*%
X104775000Y-130810000D03*
%TD*%
D17*
%TO.P,R19,2*%
%TO.N,/InputOutputPins/PB4*%
X107315000Y-123190000D03*
D18*
%TO.P,R19,1*%
%TO.N,Net-(J6-Pad9)*%
X107315000Y-130810000D03*
%TD*%
D17*
%TO.P,R18,2*%
%TO.N,/InputOutputPins/PB3*%
X109855000Y-123190000D03*
D18*
%TO.P,R18,1*%
%TO.N,Net-(J6-Pad7)*%
X109855000Y-130810000D03*
%TD*%
D17*
%TO.P,R17,2*%
%TO.N,/InputOutputPins/PB2*%
X112395000Y-123190000D03*
D18*
%TO.P,R17,1*%
%TO.N,Net-(J6-Pad5)*%
X112395000Y-130810000D03*
%TD*%
D17*
%TO.P,R16,2*%
%TO.N,/InputOutputPins/PB1*%
X114935000Y-123190000D03*
D18*
%TO.P,R16,1*%
%TO.N,Net-(J6-Pad3)*%
X114935000Y-130810000D03*
%TD*%
D17*
%TO.P,R15,2*%
%TO.N,/InputOutputPins/PB0*%
X117475000Y-123190000D03*
D18*
%TO.P,R15,1*%
%TO.N,Net-(J6-Pad1)*%
X117475000Y-130810000D03*
%TD*%
D17*
%TO.P,R14,2*%
%TO.N,/InputOutputPins/PB7*%
X51435000Y-123190000D03*
D18*
%TO.P,R14,1*%
%TO.N,Net-(J4-Pad15)*%
X51435000Y-130810000D03*
%TD*%
D17*
%TO.P,R13,2*%
%TO.N,/InputOutputPins/PB6*%
X53975000Y-123190000D03*
D18*
%TO.P,R13,1*%
%TO.N,Net-(J4-Pad13)*%
X53975000Y-130810000D03*
%TD*%
D17*
%TO.P,R12,2*%
%TO.N,/InputOutputPins/PB5*%
X56515000Y-123190000D03*
D18*
%TO.P,R12,1*%
%TO.N,Net-(J4-Pad11)*%
X56515000Y-130810000D03*
%TD*%
D17*
%TO.P,R11,2*%
%TO.N,/InputOutputPins/PB4*%
X59055000Y-123190000D03*
D18*
%TO.P,R11,1*%
%TO.N,Net-(J4-Pad9)*%
X59055000Y-130810000D03*
%TD*%
D17*
%TO.P,R10,2*%
%TO.N,/InputOutputPins/PB3*%
X61595000Y-123190000D03*
D18*
%TO.P,R10,1*%
%TO.N,Net-(J4-Pad7)*%
X61595000Y-130810000D03*
%TD*%
D17*
%TO.P,R9,2*%
%TO.N,/InputOutputPins/PB2*%
X64135000Y-123190000D03*
D18*
%TO.P,R9,1*%
%TO.N,Net-(J4-Pad5)*%
X64135000Y-130810000D03*
%TD*%
D17*
%TO.P,R8,2*%
%TO.N,/InputOutputPins/PB1*%
X66675000Y-123190000D03*
D18*
%TO.P,R8,1*%
%TO.N,Net-(J4-Pad3)*%
X66675000Y-130810000D03*
%TD*%
D17*
%TO.P,R7,2*%
%TO.N,/InputOutputPins/PB0*%
X69215000Y-123190000D03*
D18*
%TO.P,R7,1*%
%TO.N,Net-(J4-Pad1)*%
X69215000Y-130810000D03*
%TD*%
D17*
%TO.P,R6,2*%
%TO.N,STATUS*%
X74930000Y-85725000D03*
D18*
%TO.P,R6,1*%
%TO.N,Net-(D6-Pad2)*%
X67310000Y-85725000D03*
%TD*%
D17*
%TO.P,R5,2*%
%TO.N,Net-(J2-Pad5)*%
X86360000Y-48260000D03*
D18*
%TO.P,R5,1*%
%TO.N,+5V*%
X78740000Y-48260000D03*
%TD*%
D17*
%TO.P,R4,2*%
%TO.N,+5V*%
X74930000Y-88265000D03*
D18*
%TO.P,R4,1*%
%TO.N,Net-(D5-Pad2)*%
X67310000Y-88265000D03*
%TD*%
D17*
%TO.P,R3,2*%
%TO.N,Net-(C7-Pad1)*%
X48895000Y-54610000D03*
D18*
%TO.P,R3,1*%
%TO.N,VBUS*%
X48895000Y-46990000D03*
%TD*%
D17*
%TO.P,R2,2*%
%TO.N,VBUS*%
X45720000Y-41910000D03*
D18*
%TO.P,R2,1*%
%TO.N,Net-(D2-Pad2)*%
X45720000Y-34290000D03*
%TD*%
D17*
%TO.P,R1,2*%
%TO.N,VBUS*%
X48470000Y-41910000D03*
D18*
%TO.P,R1,1*%
%TO.N,Net-(D1-Pad2)*%
X48470000Y-34290000D03*
%TD*%
D13*
%TO.P,L8,2*%
%TO.N,Net-(J31-Pad2)*%
X163670000Y-97790000D03*
D11*
%TO.P,L8,1*%
%TO.N,/Analog Inputs/PA7*%
X153670000Y-97790000D03*
%TD*%
D13*
%TO.P,L7,2*%
%TO.N,Net-(J30-Pad2)*%
X163670000Y-87630000D03*
D11*
%TO.P,L7,1*%
%TO.N,/Analog Inputs/PA6*%
X153670000Y-87630000D03*
%TD*%
D13*
%TO.P,L6,2*%
%TO.N,Net-(J29-Pad2)*%
X163670000Y-77470000D03*
D11*
%TO.P,L6,1*%
%TO.N,/Analog Inputs/PA5*%
X153670000Y-77470000D03*
%TD*%
D13*
%TO.P,L5,2*%
%TO.N,Net-(J28-Pad2)*%
X163670000Y-67310000D03*
D11*
%TO.P,L5,1*%
%TO.N,/Analog Inputs/PA4*%
X153670000Y-67310000D03*
%TD*%
D13*
%TO.P,L4,2*%
%TO.N,Net-(J27-Pad2)*%
X163670000Y-57150000D03*
D11*
%TO.P,L4,1*%
%TO.N,/Analog Inputs/PA3*%
X153670000Y-57150000D03*
%TD*%
D13*
%TO.P,L3,2*%
%TO.N,Net-(J26-Pad2)*%
X163670000Y-46990000D03*
D11*
%TO.P,L3,1*%
%TO.N,/Analog Inputs/PA2*%
X153670000Y-46990000D03*
%TD*%
D13*
%TO.P,L2,2*%
%TO.N,Net-(J25-Pad2)*%
X163670000Y-36830000D03*
D11*
%TO.P,L2,1*%
%TO.N,/Analog Inputs/PA1*%
X153670000Y-36830000D03*
%TD*%
D13*
%TO.P,L1,2*%
%TO.N,Net-(J24-Pad2)*%
X163670000Y-26670000D03*
D11*
%TO.P,L1,1*%
%TO.N,/Analog Inputs/PA0*%
X153670000Y-26670000D03*
%TD*%
D19*
%TO.P,JP2,1*%
%TO.N,+5V*%
X63500000Y-41260000D03*
%TO.P,JP2,2*%
%TO.N,VBUS*%
X63500000Y-42560000D03*
%TD*%
D14*
%TO.P,J31,3*%
%TO.N,GND*%
X170180000Y-100330000D03*
%TO.P,J31,2*%
%TO.N,Net-(J31-Pad2)*%
X170180000Y-97790000D03*
D15*
%TO.P,J31,1*%
%TO.N,+5V*%
X170180000Y-95250000D03*
%TD*%
D14*
%TO.P,J30,3*%
%TO.N,GND*%
X170180000Y-90170000D03*
%TO.P,J30,2*%
%TO.N,Net-(J30-Pad2)*%
X170180000Y-87630000D03*
D15*
%TO.P,J30,1*%
%TO.N,+5V*%
X170180000Y-85090000D03*
%TD*%
D14*
%TO.P,J29,3*%
%TO.N,GND*%
X170180000Y-80010000D03*
%TO.P,J29,2*%
%TO.N,Net-(J29-Pad2)*%
X170180000Y-77470000D03*
D15*
%TO.P,J29,1*%
%TO.N,+5V*%
X170180000Y-74930000D03*
%TD*%
D14*
%TO.P,J28,3*%
%TO.N,GND*%
X170180000Y-69850000D03*
%TO.P,J28,2*%
%TO.N,Net-(J28-Pad2)*%
X170180000Y-67310000D03*
D15*
%TO.P,J28,1*%
%TO.N,+5V*%
X170180000Y-64770000D03*
%TD*%
D14*
%TO.P,J27,3*%
%TO.N,GND*%
X170180000Y-59690000D03*
%TO.P,J27,2*%
%TO.N,Net-(J27-Pad2)*%
X170180000Y-57150000D03*
D15*
%TO.P,J27,1*%
%TO.N,+5V*%
X170180000Y-54610000D03*
%TD*%
D14*
%TO.P,J26,3*%
%TO.N,GND*%
X170180000Y-49530000D03*
%TO.P,J26,2*%
%TO.N,Net-(J26-Pad2)*%
X170180000Y-46990000D03*
D15*
%TO.P,J26,1*%
%TO.N,+5V*%
X170180000Y-44450000D03*
%TD*%
D14*
%TO.P,J25,3*%
%TO.N,GND*%
X170180000Y-39370000D03*
%TO.P,J25,2*%
%TO.N,Net-(J25-Pad2)*%
X170180000Y-36830000D03*
D15*
%TO.P,J25,1*%
%TO.N,+5V*%
X170180000Y-34290000D03*
%TD*%
D14*
%TO.P,J24,3*%
%TO.N,GND*%
X170180000Y-29210000D03*
%TO.P,J24,2*%
%TO.N,Net-(J24-Pad2)*%
X170180000Y-26670000D03*
D15*
%TO.P,J24,1*%
%TO.N,+5V*%
X170180000Y-24130000D03*
%TD*%
D14*
%TO.P,J23,16*%
%TO.N,Net-(J22-Pad10)*%
X123825000Y-228600000D03*
%TO.P,J23,15*%
%TO.N,Net-(D86-Pad2)*%
X123825000Y-226060000D03*
%TO.P,J23,14*%
%TO.N,Net-(J22-Pad10)*%
X126365000Y-228600000D03*
%TO.P,J23,13*%
%TO.N,Net-(D85-Pad2)*%
X126365000Y-226060000D03*
%TO.P,J23,12*%
%TO.N,Net-(J22-Pad10)*%
X128905000Y-228600000D03*
%TO.P,J23,11*%
%TO.N,Net-(D84-Pad2)*%
X128905000Y-226060000D03*
%TO.P,J23,10*%
%TO.N,Net-(J22-Pad10)*%
X131445000Y-228600000D03*
%TO.P,J23,9*%
%TO.N,Net-(D83-Pad2)*%
X131445000Y-226060000D03*
%TO.P,J23,8*%
%TO.N,Net-(J22-Pad10)*%
X133985000Y-228600000D03*
%TO.P,J23,7*%
%TO.N,Net-(D82-Pad2)*%
X133985000Y-226060000D03*
%TO.P,J23,6*%
%TO.N,Net-(J22-Pad10)*%
X136525000Y-228600000D03*
%TO.P,J23,5*%
%TO.N,Net-(D81-Pad2)*%
X136525000Y-226060000D03*
%TO.P,J23,4*%
%TO.N,Net-(J22-Pad10)*%
X139065000Y-228600000D03*
%TO.P,J23,3*%
%TO.N,Net-(D80-Pad2)*%
X139065000Y-226060000D03*
%TO.P,J23,2*%
%TO.N,Net-(J22-Pad10)*%
X141605000Y-228600000D03*
D15*
%TO.P,J23,1*%
%TO.N,Net-(D79-Pad2)*%
X141605000Y-226060000D03*
%TD*%
D14*
%TO.P,J22,16*%
%TO.N,Net-(J22-Pad10)*%
X99695000Y-228600000D03*
%TO.P,J22,15*%
%TO.N,Net-(J22-Pad15)*%
X99695000Y-226060000D03*
%TO.P,J22,14*%
%TO.N,Net-(J22-Pad10)*%
X102235000Y-228600000D03*
%TO.P,J22,13*%
%TO.N,Net-(J22-Pad13)*%
X102235000Y-226060000D03*
%TO.P,J22,12*%
%TO.N,Net-(J22-Pad10)*%
X104775000Y-228600000D03*
%TO.P,J22,11*%
%TO.N,Net-(J22-Pad11)*%
X104775000Y-226060000D03*
%TO.P,J22,10*%
%TO.N,Net-(J22-Pad10)*%
X107315000Y-228600000D03*
%TO.P,J22,9*%
%TO.N,Net-(J22-Pad9)*%
X107315000Y-226060000D03*
%TO.P,J22,8*%
%TO.N,Net-(J22-Pad10)*%
X109855000Y-228600000D03*
%TO.P,J22,7*%
%TO.N,Net-(J22-Pad7)*%
X109855000Y-226060000D03*
%TO.P,J22,6*%
%TO.N,Net-(J22-Pad10)*%
X112395000Y-228600000D03*
%TO.P,J22,5*%
%TO.N,Net-(J22-Pad5)*%
X112395000Y-226060000D03*
%TO.P,J22,4*%
%TO.N,Net-(J22-Pad10)*%
X114935000Y-228600000D03*
%TO.P,J22,3*%
%TO.N,Net-(J22-Pad3)*%
X114935000Y-226060000D03*
%TO.P,J22,2*%
%TO.N,Net-(J22-Pad10)*%
X117475000Y-228600000D03*
D15*
%TO.P,J22,1*%
%TO.N,Net-(J22-Pad1)*%
X117475000Y-226060000D03*
%TD*%
D14*
%TO.P,J21,16*%
%TO.N,Net-(J20-Pad10)*%
X75565000Y-228600000D03*
%TO.P,J21,15*%
%TO.N,Net-(D78-Pad2)*%
X75565000Y-226060000D03*
%TO.P,J21,14*%
%TO.N,Net-(J20-Pad10)*%
X78105000Y-228600000D03*
%TO.P,J21,13*%
%TO.N,Net-(D77-Pad2)*%
X78105000Y-226060000D03*
%TO.P,J21,12*%
%TO.N,Net-(J20-Pad10)*%
X80645000Y-228600000D03*
%TO.P,J21,11*%
%TO.N,Net-(D76-Pad2)*%
X80645000Y-226060000D03*
%TO.P,J21,10*%
%TO.N,Net-(J20-Pad10)*%
X83185000Y-228600000D03*
%TO.P,J21,9*%
%TO.N,Net-(D75-Pad2)*%
X83185000Y-226060000D03*
%TO.P,J21,8*%
%TO.N,Net-(J20-Pad10)*%
X85725000Y-228600000D03*
%TO.P,J21,7*%
%TO.N,Net-(D74-Pad2)*%
X85725000Y-226060000D03*
%TO.P,J21,6*%
%TO.N,Net-(J20-Pad10)*%
X88265000Y-228600000D03*
%TO.P,J21,5*%
%TO.N,Net-(D73-Pad2)*%
X88265000Y-226060000D03*
%TO.P,J21,4*%
%TO.N,Net-(J20-Pad10)*%
X90805000Y-228600000D03*
%TO.P,J21,3*%
%TO.N,Net-(D72-Pad2)*%
X90805000Y-226060000D03*
%TO.P,J21,2*%
%TO.N,Net-(J20-Pad10)*%
X93345000Y-228600000D03*
D15*
%TO.P,J21,1*%
%TO.N,Net-(D71-Pad2)*%
X93345000Y-226060000D03*
%TD*%
D14*
%TO.P,J20,16*%
%TO.N,Net-(J20-Pad10)*%
X51435000Y-228600000D03*
%TO.P,J20,15*%
%TO.N,Net-(J20-Pad15)*%
X51435000Y-226060000D03*
%TO.P,J20,14*%
%TO.N,Net-(J20-Pad10)*%
X53975000Y-228600000D03*
%TO.P,J20,13*%
%TO.N,Net-(J20-Pad13)*%
X53975000Y-226060000D03*
%TO.P,J20,12*%
%TO.N,Net-(J20-Pad10)*%
X56515000Y-228600000D03*
%TO.P,J20,11*%
%TO.N,Net-(J20-Pad11)*%
X56515000Y-226060000D03*
%TO.P,J20,10*%
%TO.N,Net-(J20-Pad10)*%
X59055000Y-228600000D03*
%TO.P,J20,9*%
%TO.N,Net-(J20-Pad9)*%
X59055000Y-226060000D03*
%TO.P,J20,8*%
%TO.N,Net-(J20-Pad10)*%
X61595000Y-228600000D03*
%TO.P,J20,7*%
%TO.N,Net-(J20-Pad7)*%
X61595000Y-226060000D03*
%TO.P,J20,6*%
%TO.N,Net-(J20-Pad10)*%
X64135000Y-228600000D03*
%TO.P,J20,5*%
%TO.N,Net-(J20-Pad5)*%
X64135000Y-226060000D03*
%TO.P,J20,4*%
%TO.N,Net-(J20-Pad10)*%
X66675000Y-228600000D03*
%TO.P,J20,3*%
%TO.N,Net-(J20-Pad3)*%
X66675000Y-226060000D03*
%TO.P,J20,2*%
%TO.N,Net-(J20-Pad10)*%
X69215000Y-228600000D03*
D15*
%TO.P,J20,1*%
%TO.N,Net-(J20-Pad1)*%
X69215000Y-226060000D03*
%TD*%
D14*
%TO.P,J19,16*%
%TO.N,Net-(J18-Pad10)*%
X123825000Y-205740000D03*
%TO.P,J19,15*%
%TO.N,Net-(D70-Pad2)*%
X123825000Y-203200000D03*
%TO.P,J19,14*%
%TO.N,Net-(J18-Pad10)*%
X126365000Y-205740000D03*
%TO.P,J19,13*%
%TO.N,Net-(D69-Pad2)*%
X126365000Y-203200000D03*
%TO.P,J19,12*%
%TO.N,Net-(J18-Pad10)*%
X128905000Y-205740000D03*
%TO.P,J19,11*%
%TO.N,Net-(D68-Pad2)*%
X128905000Y-203200000D03*
%TO.P,J19,10*%
%TO.N,Net-(J18-Pad10)*%
X131445000Y-205740000D03*
%TO.P,J19,9*%
%TO.N,Net-(D67-Pad2)*%
X131445000Y-203200000D03*
%TO.P,J19,8*%
%TO.N,Net-(J18-Pad10)*%
X133985000Y-205740000D03*
%TO.P,J19,7*%
%TO.N,Net-(D66-Pad2)*%
X133985000Y-203200000D03*
%TO.P,J19,6*%
%TO.N,Net-(J18-Pad10)*%
X136525000Y-205740000D03*
%TO.P,J19,5*%
%TO.N,Net-(D65-Pad2)*%
X136525000Y-203200000D03*
%TO.P,J19,4*%
%TO.N,Net-(J18-Pad10)*%
X139065000Y-205740000D03*
%TO.P,J19,3*%
%TO.N,Net-(D64-Pad2)*%
X139065000Y-203200000D03*
%TO.P,J19,2*%
%TO.N,Net-(J18-Pad10)*%
X141605000Y-205740000D03*
D15*
%TO.P,J19,1*%
%TO.N,Net-(D63-Pad2)*%
X141605000Y-203200000D03*
%TD*%
D14*
%TO.P,J18,16*%
%TO.N,Net-(J18-Pad10)*%
X99695000Y-205740000D03*
%TO.P,J18,15*%
%TO.N,Net-(J18-Pad15)*%
X99695000Y-203200000D03*
%TO.P,J18,14*%
%TO.N,Net-(J18-Pad10)*%
X102235000Y-205740000D03*
%TO.P,J18,13*%
%TO.N,Net-(J18-Pad13)*%
X102235000Y-203200000D03*
%TO.P,J18,12*%
%TO.N,Net-(J18-Pad10)*%
X104775000Y-205740000D03*
%TO.P,J18,11*%
%TO.N,Net-(J18-Pad11)*%
X104775000Y-203200000D03*
%TO.P,J18,10*%
%TO.N,Net-(J18-Pad10)*%
X107315000Y-205740000D03*
%TO.P,J18,9*%
%TO.N,Net-(J18-Pad9)*%
X107315000Y-203200000D03*
%TO.P,J18,8*%
%TO.N,Net-(J18-Pad10)*%
X109855000Y-205740000D03*
%TO.P,J18,7*%
%TO.N,Net-(J18-Pad7)*%
X109855000Y-203200000D03*
%TO.P,J18,6*%
%TO.N,Net-(J18-Pad10)*%
X112395000Y-205740000D03*
%TO.P,J18,5*%
%TO.N,Net-(J18-Pad5)*%
X112395000Y-203200000D03*
%TO.P,J18,4*%
%TO.N,Net-(J18-Pad10)*%
X114935000Y-205740000D03*
%TO.P,J18,3*%
%TO.N,Net-(J18-Pad3)*%
X114935000Y-203200000D03*
%TO.P,J18,2*%
%TO.N,Net-(J18-Pad10)*%
X117475000Y-205740000D03*
D15*
%TO.P,J18,1*%
%TO.N,Net-(J18-Pad1)*%
X117475000Y-203200000D03*
%TD*%
D14*
%TO.P,J17,16*%
%TO.N,Net-(J16-Pad10)*%
X75565000Y-205740000D03*
%TO.P,J17,15*%
%TO.N,Net-(D62-Pad2)*%
X75565000Y-203200000D03*
%TO.P,J17,14*%
%TO.N,Net-(J16-Pad10)*%
X78105000Y-205740000D03*
%TO.P,J17,13*%
%TO.N,Net-(D61-Pad2)*%
X78105000Y-203200000D03*
%TO.P,J17,12*%
%TO.N,Net-(J16-Pad10)*%
X80645000Y-205740000D03*
%TO.P,J17,11*%
%TO.N,Net-(D60-Pad2)*%
X80645000Y-203200000D03*
%TO.P,J17,10*%
%TO.N,Net-(J16-Pad10)*%
X83185000Y-205740000D03*
%TO.P,J17,9*%
%TO.N,Net-(D59-Pad2)*%
X83185000Y-203200000D03*
%TO.P,J17,8*%
%TO.N,Net-(J16-Pad10)*%
X85725000Y-205740000D03*
%TO.P,J17,7*%
%TO.N,Net-(D58-Pad2)*%
X85725000Y-203200000D03*
%TO.P,J17,6*%
%TO.N,Net-(J16-Pad10)*%
X88265000Y-205740000D03*
%TO.P,J17,5*%
%TO.N,Net-(D57-Pad2)*%
X88265000Y-203200000D03*
%TO.P,J17,4*%
%TO.N,Net-(J16-Pad10)*%
X90805000Y-205740000D03*
%TO.P,J17,3*%
%TO.N,Net-(D56-Pad2)*%
X90805000Y-203200000D03*
%TO.P,J17,2*%
%TO.N,Net-(J16-Pad10)*%
X93345000Y-205740000D03*
D15*
%TO.P,J17,1*%
%TO.N,Net-(D55-Pad2)*%
X93345000Y-203200000D03*
%TD*%
D14*
%TO.P,J16,16*%
%TO.N,Net-(J16-Pad10)*%
X51435000Y-205740000D03*
%TO.P,J16,15*%
%TO.N,Net-(J16-Pad15)*%
X51435000Y-203200000D03*
%TO.P,J16,14*%
%TO.N,Net-(J16-Pad10)*%
X53975000Y-205740000D03*
%TO.P,J16,13*%
%TO.N,Net-(J16-Pad13)*%
X53975000Y-203200000D03*
%TO.P,J16,12*%
%TO.N,Net-(J16-Pad10)*%
X56515000Y-205740000D03*
%TO.P,J16,11*%
%TO.N,Net-(J16-Pad11)*%
X56515000Y-203200000D03*
%TO.P,J16,10*%
%TO.N,Net-(J16-Pad10)*%
X59055000Y-205740000D03*
%TO.P,J16,9*%
%TO.N,Net-(J16-Pad9)*%
X59055000Y-203200000D03*
%TO.P,J16,8*%
%TO.N,Net-(J16-Pad10)*%
X61595000Y-205740000D03*
%TO.P,J16,7*%
%TO.N,Net-(J16-Pad7)*%
X61595000Y-203200000D03*
%TO.P,J16,6*%
%TO.N,Net-(J16-Pad10)*%
X64135000Y-205740000D03*
%TO.P,J16,5*%
%TO.N,Net-(J16-Pad5)*%
X64135000Y-203200000D03*
%TO.P,J16,4*%
%TO.N,Net-(J16-Pad10)*%
X66675000Y-205740000D03*
%TO.P,J16,3*%
%TO.N,Net-(J16-Pad3)*%
X66675000Y-203200000D03*
%TO.P,J16,2*%
%TO.N,Net-(J16-Pad10)*%
X69215000Y-205740000D03*
D15*
%TO.P,J16,1*%
%TO.N,Net-(J16-Pad1)*%
X69215000Y-203200000D03*
%TD*%
D14*
%TO.P,J15,16*%
%TO.N,Net-(J14-Pad10)*%
X123825000Y-182880000D03*
%TO.P,J15,15*%
%TO.N,Net-(D54-Pad2)*%
X123825000Y-180340000D03*
%TO.P,J15,14*%
%TO.N,Net-(J14-Pad10)*%
X126365000Y-182880000D03*
%TO.P,J15,13*%
%TO.N,Net-(D53-Pad2)*%
X126365000Y-180340000D03*
%TO.P,J15,12*%
%TO.N,Net-(J14-Pad10)*%
X128905000Y-182880000D03*
%TO.P,J15,11*%
%TO.N,Net-(D52-Pad2)*%
X128905000Y-180340000D03*
%TO.P,J15,10*%
%TO.N,Net-(J14-Pad10)*%
X131445000Y-182880000D03*
%TO.P,J15,9*%
%TO.N,Net-(D51-Pad2)*%
X131445000Y-180340000D03*
%TO.P,J15,8*%
%TO.N,Net-(J14-Pad10)*%
X133985000Y-182880000D03*
%TO.P,J15,7*%
%TO.N,Net-(D50-Pad2)*%
X133985000Y-180340000D03*
%TO.P,J15,6*%
%TO.N,Net-(J14-Pad10)*%
X136525000Y-182880000D03*
%TO.P,J15,5*%
%TO.N,Net-(D49-Pad2)*%
X136525000Y-180340000D03*
%TO.P,J15,4*%
%TO.N,Net-(J14-Pad10)*%
X139065000Y-182880000D03*
%TO.P,J15,3*%
%TO.N,Net-(D48-Pad2)*%
X139065000Y-180340000D03*
%TO.P,J15,2*%
%TO.N,Net-(J14-Pad10)*%
X141605000Y-182880000D03*
D15*
%TO.P,J15,1*%
%TO.N,Net-(D47-Pad2)*%
X141605000Y-180340000D03*
%TD*%
D14*
%TO.P,J14,16*%
%TO.N,Net-(J14-Pad10)*%
X99695000Y-182880000D03*
%TO.P,J14,15*%
%TO.N,Net-(J14-Pad15)*%
X99695000Y-180340000D03*
%TO.P,J14,14*%
%TO.N,Net-(J14-Pad10)*%
X102235000Y-182880000D03*
%TO.P,J14,13*%
%TO.N,Net-(J14-Pad13)*%
X102235000Y-180340000D03*
%TO.P,J14,12*%
%TO.N,Net-(J14-Pad10)*%
X104775000Y-182880000D03*
%TO.P,J14,11*%
%TO.N,Net-(J14-Pad11)*%
X104775000Y-180340000D03*
%TO.P,J14,10*%
%TO.N,Net-(J14-Pad10)*%
X107315000Y-182880000D03*
%TO.P,J14,9*%
%TO.N,Net-(J14-Pad9)*%
X107315000Y-180340000D03*
%TO.P,J14,8*%
%TO.N,Net-(J14-Pad10)*%
X109855000Y-182880000D03*
%TO.P,J14,7*%
%TO.N,Net-(J14-Pad7)*%
X109855000Y-180340000D03*
%TO.P,J14,6*%
%TO.N,Net-(J14-Pad10)*%
X112395000Y-182880000D03*
%TO.P,J14,5*%
%TO.N,Net-(J14-Pad5)*%
X112395000Y-180340000D03*
%TO.P,J14,4*%
%TO.N,Net-(J14-Pad10)*%
X114935000Y-182880000D03*
%TO.P,J14,3*%
%TO.N,Net-(J14-Pad3)*%
X114935000Y-180340000D03*
%TO.P,J14,2*%
%TO.N,Net-(J14-Pad10)*%
X117475000Y-182880000D03*
D15*
%TO.P,J14,1*%
%TO.N,Net-(J14-Pad1)*%
X117475000Y-180340000D03*
%TD*%
D14*
%TO.P,J13,16*%
%TO.N,Net-(J12-Pad10)*%
X75565000Y-182880000D03*
%TO.P,J13,15*%
%TO.N,Net-(D46-Pad2)*%
X75565000Y-180340000D03*
%TO.P,J13,14*%
%TO.N,Net-(J12-Pad10)*%
X78105000Y-182880000D03*
%TO.P,J13,13*%
%TO.N,Net-(D45-Pad2)*%
X78105000Y-180340000D03*
%TO.P,J13,12*%
%TO.N,Net-(J12-Pad10)*%
X80645000Y-182880000D03*
%TO.P,J13,11*%
%TO.N,Net-(D44-Pad2)*%
X80645000Y-180340000D03*
%TO.P,J13,10*%
%TO.N,Net-(J12-Pad10)*%
X83185000Y-182880000D03*
%TO.P,J13,9*%
%TO.N,Net-(D43-Pad2)*%
X83185000Y-180340000D03*
%TO.P,J13,8*%
%TO.N,Net-(J12-Pad10)*%
X85725000Y-182880000D03*
%TO.P,J13,7*%
%TO.N,Net-(D42-Pad2)*%
X85725000Y-180340000D03*
%TO.P,J13,6*%
%TO.N,Net-(J12-Pad10)*%
X88265000Y-182880000D03*
%TO.P,J13,5*%
%TO.N,Net-(D41-Pad2)*%
X88265000Y-180340000D03*
%TO.P,J13,4*%
%TO.N,Net-(J12-Pad10)*%
X90805000Y-182880000D03*
%TO.P,J13,3*%
%TO.N,Net-(D40-Pad2)*%
X90805000Y-180340000D03*
%TO.P,J13,2*%
%TO.N,Net-(J12-Pad10)*%
X93345000Y-182880000D03*
D15*
%TO.P,J13,1*%
%TO.N,Net-(D39-Pad2)*%
X93345000Y-180340000D03*
%TD*%
D14*
%TO.P,J12,16*%
%TO.N,Net-(J12-Pad10)*%
X51435000Y-182880000D03*
%TO.P,J12,15*%
%TO.N,Net-(J12-Pad15)*%
X51435000Y-180340000D03*
%TO.P,J12,14*%
%TO.N,Net-(J12-Pad10)*%
X53975000Y-182880000D03*
%TO.P,J12,13*%
%TO.N,Net-(J12-Pad13)*%
X53975000Y-180340000D03*
%TO.P,J12,12*%
%TO.N,Net-(J12-Pad10)*%
X56515000Y-182880000D03*
%TO.P,J12,11*%
%TO.N,Net-(J12-Pad11)*%
X56515000Y-180340000D03*
%TO.P,J12,10*%
%TO.N,Net-(J12-Pad10)*%
X59055000Y-182880000D03*
%TO.P,J12,9*%
%TO.N,Net-(J12-Pad9)*%
X59055000Y-180340000D03*
%TO.P,J12,8*%
%TO.N,Net-(J12-Pad10)*%
X61595000Y-182880000D03*
%TO.P,J12,7*%
%TO.N,Net-(J12-Pad7)*%
X61595000Y-180340000D03*
%TO.P,J12,6*%
%TO.N,Net-(J12-Pad10)*%
X64135000Y-182880000D03*
%TO.P,J12,5*%
%TO.N,Net-(J12-Pad5)*%
X64135000Y-180340000D03*
%TO.P,J12,4*%
%TO.N,Net-(J12-Pad10)*%
X66675000Y-182880000D03*
%TO.P,J12,3*%
%TO.N,Net-(J12-Pad3)*%
X66675000Y-180340000D03*
%TO.P,J12,2*%
%TO.N,Net-(J12-Pad10)*%
X69215000Y-182880000D03*
D15*
%TO.P,J12,1*%
%TO.N,Net-(J12-Pad1)*%
X69215000Y-180340000D03*
%TD*%
D14*
%TO.P,J11,16*%
%TO.N,Net-(J10-Pad10)*%
X123825000Y-160020000D03*
%TO.P,J11,15*%
%TO.N,Net-(D38-Pad2)*%
X123825000Y-157480000D03*
%TO.P,J11,14*%
%TO.N,Net-(J10-Pad10)*%
X126365000Y-160020000D03*
%TO.P,J11,13*%
%TO.N,Net-(D37-Pad2)*%
X126365000Y-157480000D03*
%TO.P,J11,12*%
%TO.N,Net-(J10-Pad10)*%
X128905000Y-160020000D03*
%TO.P,J11,11*%
%TO.N,Net-(D36-Pad2)*%
X128905000Y-157480000D03*
%TO.P,J11,10*%
%TO.N,Net-(J10-Pad10)*%
X131445000Y-160020000D03*
%TO.P,J11,9*%
%TO.N,Net-(D35-Pad2)*%
X131445000Y-157480000D03*
%TO.P,J11,8*%
%TO.N,Net-(J10-Pad10)*%
X133985000Y-160020000D03*
%TO.P,J11,7*%
%TO.N,Net-(D34-Pad2)*%
X133985000Y-157480000D03*
%TO.P,J11,6*%
%TO.N,Net-(J10-Pad10)*%
X136525000Y-160020000D03*
%TO.P,J11,5*%
%TO.N,Net-(D33-Pad2)*%
X136525000Y-157480000D03*
%TO.P,J11,4*%
%TO.N,Net-(J10-Pad10)*%
X139065000Y-160020000D03*
%TO.P,J11,3*%
%TO.N,Net-(D32-Pad2)*%
X139065000Y-157480000D03*
%TO.P,J11,2*%
%TO.N,Net-(J10-Pad10)*%
X141605000Y-160020000D03*
D15*
%TO.P,J11,1*%
%TO.N,Net-(D31-Pad2)*%
X141605000Y-157480000D03*
%TD*%
D14*
%TO.P,J10,16*%
%TO.N,Net-(J10-Pad10)*%
X99695000Y-160020000D03*
%TO.P,J10,15*%
%TO.N,Net-(J10-Pad15)*%
X99695000Y-157480000D03*
%TO.P,J10,14*%
%TO.N,Net-(J10-Pad10)*%
X102235000Y-160020000D03*
%TO.P,J10,13*%
%TO.N,Net-(J10-Pad13)*%
X102235000Y-157480000D03*
%TO.P,J10,12*%
%TO.N,Net-(J10-Pad10)*%
X104775000Y-160020000D03*
%TO.P,J10,11*%
%TO.N,Net-(J10-Pad11)*%
X104775000Y-157480000D03*
%TO.P,J10,10*%
%TO.N,Net-(J10-Pad10)*%
X107315000Y-160020000D03*
%TO.P,J10,9*%
%TO.N,Net-(J10-Pad9)*%
X107315000Y-157480000D03*
%TO.P,J10,8*%
%TO.N,Net-(J10-Pad10)*%
X109855000Y-160020000D03*
%TO.P,J10,7*%
%TO.N,Net-(J10-Pad7)*%
X109855000Y-157480000D03*
%TO.P,J10,6*%
%TO.N,Net-(J10-Pad10)*%
X112395000Y-160020000D03*
%TO.P,J10,5*%
%TO.N,Net-(J10-Pad5)*%
X112395000Y-157480000D03*
%TO.P,J10,4*%
%TO.N,Net-(J10-Pad10)*%
X114935000Y-160020000D03*
%TO.P,J10,3*%
%TO.N,Net-(J10-Pad3)*%
X114935000Y-157480000D03*
%TO.P,J10,2*%
%TO.N,Net-(J10-Pad10)*%
X117475000Y-160020000D03*
D15*
%TO.P,J10,1*%
%TO.N,Net-(J10-Pad1)*%
X117475000Y-157480000D03*
%TD*%
D14*
%TO.P,J9,16*%
%TO.N,Net-(J8-Pad10)*%
X75565000Y-160020000D03*
%TO.P,J9,15*%
%TO.N,Net-(D30-Pad2)*%
X75565000Y-157480000D03*
%TO.P,J9,14*%
%TO.N,Net-(J8-Pad10)*%
X78105000Y-160020000D03*
%TO.P,J9,13*%
%TO.N,Net-(D29-Pad2)*%
X78105000Y-157480000D03*
%TO.P,J9,12*%
%TO.N,Net-(J8-Pad10)*%
X80645000Y-160020000D03*
%TO.P,J9,11*%
%TO.N,Net-(D28-Pad2)*%
X80645000Y-157480000D03*
%TO.P,J9,10*%
%TO.N,Net-(J8-Pad10)*%
X83185000Y-160020000D03*
%TO.P,J9,9*%
%TO.N,Net-(D27-Pad2)*%
X83185000Y-157480000D03*
%TO.P,J9,8*%
%TO.N,Net-(J8-Pad10)*%
X85725000Y-160020000D03*
%TO.P,J9,7*%
%TO.N,Net-(D26-Pad2)*%
X85725000Y-157480000D03*
%TO.P,J9,6*%
%TO.N,Net-(J8-Pad10)*%
X88265000Y-160020000D03*
%TO.P,J9,5*%
%TO.N,Net-(D25-Pad2)*%
X88265000Y-157480000D03*
%TO.P,J9,4*%
%TO.N,Net-(J8-Pad10)*%
X90805000Y-160020000D03*
%TO.P,J9,3*%
%TO.N,Net-(D24-Pad2)*%
X90805000Y-157480000D03*
%TO.P,J9,2*%
%TO.N,Net-(J8-Pad10)*%
X93345000Y-160020000D03*
D15*
%TO.P,J9,1*%
%TO.N,Net-(D23-Pad2)*%
X93345000Y-157480000D03*
%TD*%
D14*
%TO.P,J8,16*%
%TO.N,Net-(J8-Pad10)*%
X51435000Y-160020000D03*
%TO.P,J8,15*%
%TO.N,Net-(J8-Pad15)*%
X51435000Y-157480000D03*
%TO.P,J8,14*%
%TO.N,Net-(J8-Pad10)*%
X53975000Y-160020000D03*
%TO.P,J8,13*%
%TO.N,Net-(J8-Pad13)*%
X53975000Y-157480000D03*
%TO.P,J8,12*%
%TO.N,Net-(J8-Pad10)*%
X56515000Y-160020000D03*
%TO.P,J8,11*%
%TO.N,Net-(J8-Pad11)*%
X56515000Y-157480000D03*
%TO.P,J8,10*%
%TO.N,Net-(J8-Pad10)*%
X59055000Y-160020000D03*
%TO.P,J8,9*%
%TO.N,Net-(J8-Pad9)*%
X59055000Y-157480000D03*
%TO.P,J8,8*%
%TO.N,Net-(J8-Pad10)*%
X61595000Y-160020000D03*
%TO.P,J8,7*%
%TO.N,Net-(J8-Pad7)*%
X61595000Y-157480000D03*
%TO.P,J8,6*%
%TO.N,Net-(J8-Pad10)*%
X64135000Y-160020000D03*
%TO.P,J8,5*%
%TO.N,Net-(J8-Pad5)*%
X64135000Y-157480000D03*
%TO.P,J8,4*%
%TO.N,Net-(J8-Pad10)*%
X66675000Y-160020000D03*
%TO.P,J8,3*%
%TO.N,Net-(J8-Pad3)*%
X66675000Y-157480000D03*
%TO.P,J8,2*%
%TO.N,Net-(J8-Pad10)*%
X69215000Y-160020000D03*
D15*
%TO.P,J8,1*%
%TO.N,Net-(J8-Pad1)*%
X69215000Y-157480000D03*
%TD*%
D14*
%TO.P,J7,16*%
%TO.N,Net-(J6-Pad10)*%
X123825000Y-137160000D03*
%TO.P,J7,15*%
%TO.N,Net-(D22-Pad2)*%
X123825000Y-134620000D03*
%TO.P,J7,14*%
%TO.N,Net-(J6-Pad10)*%
X126365000Y-137160000D03*
%TO.P,J7,13*%
%TO.N,Net-(D21-Pad2)*%
X126365000Y-134620000D03*
%TO.P,J7,12*%
%TO.N,Net-(J6-Pad10)*%
X128905000Y-137160000D03*
%TO.P,J7,11*%
%TO.N,Net-(D20-Pad2)*%
X128905000Y-134620000D03*
%TO.P,J7,10*%
%TO.N,Net-(J6-Pad10)*%
X131445000Y-137160000D03*
%TO.P,J7,9*%
%TO.N,Net-(D19-Pad2)*%
X131445000Y-134620000D03*
%TO.P,J7,8*%
%TO.N,Net-(J6-Pad10)*%
X133985000Y-137160000D03*
%TO.P,J7,7*%
%TO.N,Net-(D18-Pad2)*%
X133985000Y-134620000D03*
%TO.P,J7,6*%
%TO.N,Net-(J6-Pad10)*%
X136525000Y-137160000D03*
%TO.P,J7,5*%
%TO.N,Net-(D17-Pad2)*%
X136525000Y-134620000D03*
%TO.P,J7,4*%
%TO.N,Net-(J6-Pad10)*%
X139065000Y-137160000D03*
%TO.P,J7,3*%
%TO.N,Net-(D16-Pad2)*%
X139065000Y-134620000D03*
%TO.P,J7,2*%
%TO.N,Net-(J6-Pad10)*%
X141605000Y-137160000D03*
D15*
%TO.P,J7,1*%
%TO.N,Net-(D15-Pad2)*%
X141605000Y-134620000D03*
%TD*%
D14*
%TO.P,J6,16*%
%TO.N,Net-(J6-Pad10)*%
X99695000Y-137160000D03*
%TO.P,J6,15*%
%TO.N,Net-(J6-Pad15)*%
X99695000Y-134620000D03*
%TO.P,J6,14*%
%TO.N,Net-(J6-Pad10)*%
X102235000Y-137160000D03*
%TO.P,J6,13*%
%TO.N,Net-(J6-Pad13)*%
X102235000Y-134620000D03*
%TO.P,J6,12*%
%TO.N,Net-(J6-Pad10)*%
X104775000Y-137160000D03*
%TO.P,J6,11*%
%TO.N,Net-(J6-Pad11)*%
X104775000Y-134620000D03*
%TO.P,J6,10*%
%TO.N,Net-(J6-Pad10)*%
X107315000Y-137160000D03*
%TO.P,J6,9*%
%TO.N,Net-(J6-Pad9)*%
X107315000Y-134620000D03*
%TO.P,J6,8*%
%TO.N,Net-(J6-Pad10)*%
X109855000Y-137160000D03*
%TO.P,J6,7*%
%TO.N,Net-(J6-Pad7)*%
X109855000Y-134620000D03*
%TO.P,J6,6*%
%TO.N,Net-(J6-Pad10)*%
X112395000Y-137160000D03*
%TO.P,J6,5*%
%TO.N,Net-(J6-Pad5)*%
X112395000Y-134620000D03*
%TO.P,J6,4*%
%TO.N,Net-(J6-Pad10)*%
X114935000Y-137160000D03*
%TO.P,J6,3*%
%TO.N,Net-(J6-Pad3)*%
X114935000Y-134620000D03*
%TO.P,J6,2*%
%TO.N,Net-(J6-Pad10)*%
X117475000Y-137160000D03*
D15*
%TO.P,J6,1*%
%TO.N,Net-(J6-Pad1)*%
X117475000Y-134620000D03*
%TD*%
D14*
%TO.P,J5,16*%
%TO.N,Net-(J4-Pad10)*%
X75565000Y-137160000D03*
%TO.P,J5,15*%
%TO.N,Net-(D14-Pad2)*%
X75565000Y-134620000D03*
%TO.P,J5,14*%
%TO.N,Net-(J4-Pad10)*%
X78105000Y-137160000D03*
%TO.P,J5,13*%
%TO.N,Net-(D13-Pad2)*%
X78105000Y-134620000D03*
%TO.P,J5,12*%
%TO.N,Net-(J4-Pad10)*%
X80645000Y-137160000D03*
%TO.P,J5,11*%
%TO.N,Net-(D12-Pad2)*%
X80645000Y-134620000D03*
%TO.P,J5,10*%
%TO.N,Net-(J4-Pad10)*%
X83185000Y-137160000D03*
%TO.P,J5,9*%
%TO.N,Net-(D11-Pad2)*%
X83185000Y-134620000D03*
%TO.P,J5,8*%
%TO.N,Net-(J4-Pad10)*%
X85725000Y-137160000D03*
%TO.P,J5,7*%
%TO.N,Net-(D10-Pad2)*%
X85725000Y-134620000D03*
%TO.P,J5,6*%
%TO.N,Net-(J4-Pad10)*%
X88265000Y-137160000D03*
%TO.P,J5,5*%
%TO.N,Net-(D9-Pad2)*%
X88265000Y-134620000D03*
%TO.P,J5,4*%
%TO.N,Net-(J4-Pad10)*%
X90805000Y-137160000D03*
%TO.P,J5,3*%
%TO.N,Net-(D8-Pad2)*%
X90805000Y-134620000D03*
%TO.P,J5,2*%
%TO.N,Net-(J4-Pad10)*%
X93345000Y-137160000D03*
D15*
%TO.P,J5,1*%
%TO.N,Net-(D7-Pad2)*%
X93345000Y-134620000D03*
%TD*%
D14*
%TO.P,J4,16*%
%TO.N,Net-(J4-Pad10)*%
X51435000Y-137160000D03*
%TO.P,J4,15*%
%TO.N,Net-(J4-Pad15)*%
X51435000Y-134620000D03*
%TO.P,J4,14*%
%TO.N,Net-(J4-Pad10)*%
X53975000Y-137160000D03*
%TO.P,J4,13*%
%TO.N,Net-(J4-Pad13)*%
X53975000Y-134620000D03*
%TO.P,J4,12*%
%TO.N,Net-(J4-Pad10)*%
X56515000Y-137160000D03*
%TO.P,J4,11*%
%TO.N,Net-(J4-Pad11)*%
X56515000Y-134620000D03*
%TO.P,J4,10*%
%TO.N,Net-(J4-Pad10)*%
X59055000Y-137160000D03*
%TO.P,J4,9*%
%TO.N,Net-(J4-Pad9)*%
X59055000Y-134620000D03*
%TO.P,J4,8*%
%TO.N,Net-(J4-Pad10)*%
X61595000Y-137160000D03*
%TO.P,J4,7*%
%TO.N,Net-(J4-Pad7)*%
X61595000Y-134620000D03*
%TO.P,J4,6*%
%TO.N,Net-(J4-Pad10)*%
X64135000Y-137160000D03*
%TO.P,J4,5*%
%TO.N,Net-(J4-Pad5)*%
X64135000Y-134620000D03*
%TO.P,J4,4*%
%TO.N,Net-(J4-Pad10)*%
X66675000Y-137160000D03*
%TO.P,J4,3*%
%TO.N,Net-(J4-Pad3)*%
X66675000Y-134620000D03*
%TO.P,J4,2*%
%TO.N,Net-(J4-Pad10)*%
X69215000Y-137160000D03*
D15*
%TO.P,J4,1*%
%TO.N,Net-(J4-Pad1)*%
X69215000Y-134620000D03*
%TD*%
D20*
%TO.P,J3,MP*%
%TO.N,N/C*%
X33640000Y-33710000D03*
X33640000Y-24710000D03*
D21*
%TO.P,J3,2*%
%TO.N,GND*%
X34640000Y-29210000D03*
D22*
%TO.P,J3,1*%
%TO.N,+5V*%
X40640000Y-29210000D03*
%TD*%
D23*
%TO.P,J1,5*%
%TO.N,GND*%
X39740000Y-60040000D03*
X39740000Y-72080000D03*
D24*
%TO.P,J1,4*%
X42450000Y-67310000D03*
%TO.P,J1,3*%
%TO.N,Net-(J1-Pad3)*%
X42450000Y-64810000D03*
%TO.P,J1,2*%
%TO.N,Net-(J1-Pad2)*%
X44450000Y-64810000D03*
D15*
%TO.P,J1,1*%
%TO.N,VBUS*%
X44450000Y-67310000D03*
%TD*%
D13*
%TO.P,D86,2*%
%TO.N,Net-(D86-Pad2)*%
X123825000Y-221615000D03*
D12*
%TO.P,D86,1*%
%TO.N,/InputOutputPins/PC7*%
X123825000Y-213995000D03*
%TD*%
D13*
%TO.P,D85,2*%
%TO.N,Net-(D85-Pad2)*%
X126365000Y-221615000D03*
D12*
%TO.P,D85,1*%
%TO.N,/InputOutputPins/PC6*%
X126365000Y-213995000D03*
%TD*%
D13*
%TO.P,D84,2*%
%TO.N,Net-(D84-Pad2)*%
X128905000Y-221615000D03*
D12*
%TO.P,D84,1*%
%TO.N,/InputOutputPins/PC5*%
X128905000Y-213995000D03*
%TD*%
D13*
%TO.P,D83,2*%
%TO.N,Net-(D83-Pad2)*%
X131445000Y-221615000D03*
D12*
%TO.P,D83,1*%
%TO.N,/InputOutputPins/PC4*%
X131445000Y-213995000D03*
%TD*%
D13*
%TO.P,D82,2*%
%TO.N,Net-(D82-Pad2)*%
X133985000Y-221615000D03*
D12*
%TO.P,D82,1*%
%TO.N,/InputOutputPins/PC3*%
X133985000Y-213995000D03*
%TD*%
D13*
%TO.P,D81,2*%
%TO.N,Net-(D81-Pad2)*%
X136525000Y-221615000D03*
D12*
%TO.P,D81,1*%
%TO.N,/InputOutputPins/PC2*%
X136525000Y-213995000D03*
%TD*%
D13*
%TO.P,D80,2*%
%TO.N,Net-(D80-Pad2)*%
X139065000Y-221615000D03*
D12*
%TO.P,D80,1*%
%TO.N,/InputOutputPins/PC1*%
X139065000Y-213995000D03*
%TD*%
D13*
%TO.P,D79,2*%
%TO.N,Net-(D79-Pad2)*%
X141605000Y-221615000D03*
D12*
%TO.P,D79,1*%
%TO.N,/InputOutputPins/PC0*%
X141605000Y-213995000D03*
%TD*%
D13*
%TO.P,D78,2*%
%TO.N,Net-(D78-Pad2)*%
X75565000Y-221615000D03*
D12*
%TO.P,D78,1*%
%TO.N,/InputOutputPins/PC7*%
X75565000Y-213995000D03*
%TD*%
D13*
%TO.P,D77,2*%
%TO.N,Net-(D77-Pad2)*%
X78105000Y-221615000D03*
D12*
%TO.P,D77,1*%
%TO.N,/InputOutputPins/PC6*%
X78105000Y-213995000D03*
%TD*%
D13*
%TO.P,D76,2*%
%TO.N,Net-(D76-Pad2)*%
X80645000Y-221615000D03*
D12*
%TO.P,D76,1*%
%TO.N,/InputOutputPins/PC5*%
X80645000Y-213995000D03*
%TD*%
D13*
%TO.P,D75,2*%
%TO.N,Net-(D75-Pad2)*%
X83185000Y-221615000D03*
D12*
%TO.P,D75,1*%
%TO.N,/InputOutputPins/PC4*%
X83185000Y-213995000D03*
%TD*%
D13*
%TO.P,D74,2*%
%TO.N,Net-(D74-Pad2)*%
X85725000Y-221615000D03*
D12*
%TO.P,D74,1*%
%TO.N,/InputOutputPins/PC3*%
X85725000Y-213995000D03*
%TD*%
D13*
%TO.P,D73,2*%
%TO.N,Net-(D73-Pad2)*%
X88265000Y-221615000D03*
D12*
%TO.P,D73,1*%
%TO.N,/InputOutputPins/PC2*%
X88265000Y-213995000D03*
%TD*%
D13*
%TO.P,D72,2*%
%TO.N,Net-(D72-Pad2)*%
X90805000Y-221615000D03*
D12*
%TO.P,D72,1*%
%TO.N,/InputOutputPins/PC1*%
X90805000Y-213995000D03*
%TD*%
D13*
%TO.P,D71,2*%
%TO.N,Net-(D71-Pad2)*%
X93345000Y-221615000D03*
D12*
%TO.P,D71,1*%
%TO.N,/InputOutputPins/PC0*%
X93345000Y-213995000D03*
%TD*%
D13*
%TO.P,D70,2*%
%TO.N,Net-(D70-Pad2)*%
X123825000Y-199390000D03*
D12*
%TO.P,D70,1*%
%TO.N,/InputOutputPins/PC7*%
X123825000Y-191770000D03*
%TD*%
D13*
%TO.P,D69,2*%
%TO.N,Net-(D69-Pad2)*%
X126365000Y-199390000D03*
D12*
%TO.P,D69,1*%
%TO.N,/InputOutputPins/PC6*%
X126365000Y-191770000D03*
%TD*%
D13*
%TO.P,D68,2*%
%TO.N,Net-(D68-Pad2)*%
X128905000Y-199390000D03*
D12*
%TO.P,D68,1*%
%TO.N,/InputOutputPins/PC5*%
X128905000Y-191770000D03*
%TD*%
D13*
%TO.P,D67,2*%
%TO.N,Net-(D67-Pad2)*%
X131445000Y-199390000D03*
D12*
%TO.P,D67,1*%
%TO.N,/InputOutputPins/PC4*%
X131445000Y-191770000D03*
%TD*%
D13*
%TO.P,D66,2*%
%TO.N,Net-(D66-Pad2)*%
X133985000Y-199390000D03*
D12*
%TO.P,D66,1*%
%TO.N,/InputOutputPins/PC3*%
X133985000Y-191770000D03*
%TD*%
D13*
%TO.P,D65,2*%
%TO.N,Net-(D65-Pad2)*%
X136525000Y-199390000D03*
D12*
%TO.P,D65,1*%
%TO.N,/InputOutputPins/PC2*%
X136525000Y-191770000D03*
%TD*%
D13*
%TO.P,D64,2*%
%TO.N,Net-(D64-Pad2)*%
X139065000Y-199390000D03*
D12*
%TO.P,D64,1*%
%TO.N,/InputOutputPins/PC1*%
X139065000Y-191770000D03*
%TD*%
D13*
%TO.P,D63,2*%
%TO.N,Net-(D63-Pad2)*%
X141605000Y-199390000D03*
D12*
%TO.P,D63,1*%
%TO.N,/InputOutputPins/PC0*%
X141605000Y-191770000D03*
%TD*%
D13*
%TO.P,D62,2*%
%TO.N,Net-(D62-Pad2)*%
X75438000Y-199263000D03*
D12*
%TO.P,D62,1*%
%TO.N,/InputOutputPins/PC7*%
X75438000Y-191643000D03*
%TD*%
D13*
%TO.P,D61,2*%
%TO.N,Net-(D61-Pad2)*%
X77978000Y-199263000D03*
D12*
%TO.P,D61,1*%
%TO.N,/InputOutputPins/PC6*%
X77978000Y-191643000D03*
%TD*%
D13*
%TO.P,D60,2*%
%TO.N,Net-(D60-Pad2)*%
X80518000Y-199263000D03*
D12*
%TO.P,D60,1*%
%TO.N,/InputOutputPins/PC5*%
X80518000Y-191643000D03*
%TD*%
D13*
%TO.P,D59,2*%
%TO.N,Net-(D59-Pad2)*%
X83058000Y-199263000D03*
D12*
%TO.P,D59,1*%
%TO.N,/InputOutputPins/PC4*%
X83058000Y-191643000D03*
%TD*%
D13*
%TO.P,D58,2*%
%TO.N,Net-(D58-Pad2)*%
X85598000Y-199263000D03*
D12*
%TO.P,D58,1*%
%TO.N,/InputOutputPins/PC3*%
X85598000Y-191643000D03*
%TD*%
D13*
%TO.P,D57,2*%
%TO.N,Net-(D57-Pad2)*%
X88138000Y-199263000D03*
D12*
%TO.P,D57,1*%
%TO.N,/InputOutputPins/PC2*%
X88138000Y-191643000D03*
%TD*%
D13*
%TO.P,D56,2*%
%TO.N,Net-(D56-Pad2)*%
X90678000Y-199263000D03*
D12*
%TO.P,D56,1*%
%TO.N,/InputOutputPins/PC1*%
X90678000Y-191643000D03*
%TD*%
D13*
%TO.P,D55,2*%
%TO.N,Net-(D55-Pad2)*%
X93218000Y-199263000D03*
D12*
%TO.P,D55,1*%
%TO.N,/InputOutputPins/PC0*%
X93218000Y-191643000D03*
%TD*%
D13*
%TO.P,D54,2*%
%TO.N,Net-(D54-Pad2)*%
X123698000Y-176403000D03*
D12*
%TO.P,D54,1*%
%TO.N,/InputOutputPins/PC7*%
X123698000Y-168783000D03*
%TD*%
D13*
%TO.P,D53,2*%
%TO.N,Net-(D53-Pad2)*%
X126238000Y-176403000D03*
D12*
%TO.P,D53,1*%
%TO.N,/InputOutputPins/PC6*%
X126238000Y-168783000D03*
%TD*%
D13*
%TO.P,D52,2*%
%TO.N,Net-(D52-Pad2)*%
X128778000Y-176403000D03*
D12*
%TO.P,D52,1*%
%TO.N,/InputOutputPins/PC5*%
X128778000Y-168783000D03*
%TD*%
D13*
%TO.P,D51,2*%
%TO.N,Net-(D51-Pad2)*%
X131318000Y-176403000D03*
D12*
%TO.P,D51,1*%
%TO.N,/InputOutputPins/PC4*%
X131318000Y-168783000D03*
%TD*%
D13*
%TO.P,D50,2*%
%TO.N,Net-(D50-Pad2)*%
X133858000Y-176403000D03*
D12*
%TO.P,D50,1*%
%TO.N,/InputOutputPins/PC3*%
X133858000Y-168783000D03*
%TD*%
D13*
%TO.P,D49,2*%
%TO.N,Net-(D49-Pad2)*%
X136398000Y-176403000D03*
D12*
%TO.P,D49,1*%
%TO.N,/InputOutputPins/PC2*%
X136398000Y-168783000D03*
%TD*%
D13*
%TO.P,D48,2*%
%TO.N,Net-(D48-Pad2)*%
X138938000Y-176403000D03*
D12*
%TO.P,D48,1*%
%TO.N,/InputOutputPins/PC1*%
X138938000Y-168783000D03*
%TD*%
D13*
%TO.P,D47,2*%
%TO.N,Net-(D47-Pad2)*%
X141478000Y-176403000D03*
D12*
%TO.P,D47,1*%
%TO.N,/InputOutputPins/PC0*%
X141478000Y-168783000D03*
%TD*%
D13*
%TO.P,D46,2*%
%TO.N,Net-(D46-Pad2)*%
X75438000Y-176403000D03*
D12*
%TO.P,D46,1*%
%TO.N,/InputOutputPins/PC7*%
X75438000Y-168783000D03*
%TD*%
D13*
%TO.P,D45,2*%
%TO.N,Net-(D45-Pad2)*%
X77978000Y-176403000D03*
D12*
%TO.P,D45,1*%
%TO.N,/InputOutputPins/PC6*%
X77978000Y-168783000D03*
%TD*%
D13*
%TO.P,D44,2*%
%TO.N,Net-(D44-Pad2)*%
X80518000Y-176403000D03*
D12*
%TO.P,D44,1*%
%TO.N,/InputOutputPins/PC5*%
X80518000Y-168783000D03*
%TD*%
D13*
%TO.P,D43,2*%
%TO.N,Net-(D43-Pad2)*%
X83058000Y-176403000D03*
D12*
%TO.P,D43,1*%
%TO.N,/InputOutputPins/PC4*%
X83058000Y-168783000D03*
%TD*%
D13*
%TO.P,D42,2*%
%TO.N,Net-(D42-Pad2)*%
X85598000Y-176403000D03*
D12*
%TO.P,D42,1*%
%TO.N,/InputOutputPins/PC3*%
X85598000Y-168783000D03*
%TD*%
D13*
%TO.P,D41,2*%
%TO.N,Net-(D41-Pad2)*%
X88138000Y-176403000D03*
D12*
%TO.P,D41,1*%
%TO.N,/InputOutputPins/PC2*%
X88138000Y-168783000D03*
%TD*%
D13*
%TO.P,D40,2*%
%TO.N,Net-(D40-Pad2)*%
X90678000Y-176403000D03*
D12*
%TO.P,D40,1*%
%TO.N,/InputOutputPins/PC1*%
X90678000Y-168783000D03*
%TD*%
D13*
%TO.P,D39,2*%
%TO.N,Net-(D39-Pad2)*%
X93218000Y-176403000D03*
D12*
%TO.P,D39,1*%
%TO.N,/InputOutputPins/PC0*%
X93218000Y-168783000D03*
%TD*%
D13*
%TO.P,D38,2*%
%TO.N,Net-(D38-Pad2)*%
X123825000Y-153670000D03*
D12*
%TO.P,D38,1*%
%TO.N,/InputOutputPins/PC7*%
X123825000Y-146050000D03*
%TD*%
D13*
%TO.P,D37,2*%
%TO.N,Net-(D37-Pad2)*%
X126365000Y-153670000D03*
D12*
%TO.P,D37,1*%
%TO.N,/InputOutputPins/PC6*%
X126365000Y-146050000D03*
%TD*%
D13*
%TO.P,D36,2*%
%TO.N,Net-(D36-Pad2)*%
X128905000Y-153670000D03*
D12*
%TO.P,D36,1*%
%TO.N,/InputOutputPins/PC5*%
X128905000Y-146050000D03*
%TD*%
D13*
%TO.P,D35,2*%
%TO.N,Net-(D35-Pad2)*%
X131445000Y-153670000D03*
D12*
%TO.P,D35,1*%
%TO.N,/InputOutputPins/PC4*%
X131445000Y-146050000D03*
%TD*%
D13*
%TO.P,D34,2*%
%TO.N,Net-(D34-Pad2)*%
X133985000Y-153670000D03*
D12*
%TO.P,D34,1*%
%TO.N,/InputOutputPins/PC3*%
X133985000Y-146050000D03*
%TD*%
D13*
%TO.P,D33,2*%
%TO.N,Net-(D33-Pad2)*%
X136525000Y-153670000D03*
D12*
%TO.P,D33,1*%
%TO.N,/InputOutputPins/PC2*%
X136525000Y-146050000D03*
%TD*%
D13*
%TO.P,D32,2*%
%TO.N,Net-(D32-Pad2)*%
X139065000Y-153670000D03*
D12*
%TO.P,D32,1*%
%TO.N,/InputOutputPins/PC1*%
X139065000Y-146050000D03*
%TD*%
D13*
%TO.P,D31,2*%
%TO.N,Net-(D31-Pad2)*%
X141605000Y-153670000D03*
D12*
%TO.P,D31,1*%
%TO.N,/InputOutputPins/PC0*%
X141605000Y-146050000D03*
%TD*%
D13*
%TO.P,D30,2*%
%TO.N,Net-(D30-Pad2)*%
X75565000Y-153670000D03*
D12*
%TO.P,D30,1*%
%TO.N,/InputOutputPins/PC7*%
X75565000Y-146050000D03*
%TD*%
D13*
%TO.P,D29,2*%
%TO.N,Net-(D29-Pad2)*%
X78105000Y-153670000D03*
D12*
%TO.P,D29,1*%
%TO.N,/InputOutputPins/PC6*%
X78105000Y-146050000D03*
%TD*%
D13*
%TO.P,D28,2*%
%TO.N,Net-(D28-Pad2)*%
X80645000Y-153670000D03*
D12*
%TO.P,D28,1*%
%TO.N,/InputOutputPins/PC5*%
X80645000Y-146050000D03*
%TD*%
D13*
%TO.P,D27,2*%
%TO.N,Net-(D27-Pad2)*%
X83185000Y-153670000D03*
D12*
%TO.P,D27,1*%
%TO.N,/InputOutputPins/PC4*%
X83185000Y-146050000D03*
%TD*%
D13*
%TO.P,D26,2*%
%TO.N,Net-(D26-Pad2)*%
X85725000Y-153670000D03*
D12*
%TO.P,D26,1*%
%TO.N,/InputOutputPins/PC3*%
X85725000Y-146050000D03*
%TD*%
D13*
%TO.P,D25,2*%
%TO.N,Net-(D25-Pad2)*%
X88265000Y-153670000D03*
D12*
%TO.P,D25,1*%
%TO.N,/InputOutputPins/PC2*%
X88265000Y-146050000D03*
%TD*%
D13*
%TO.P,D24,2*%
%TO.N,Net-(D24-Pad2)*%
X90805000Y-153670000D03*
D12*
%TO.P,D24,1*%
%TO.N,/InputOutputPins/PC1*%
X90805000Y-146050000D03*
%TD*%
D13*
%TO.P,D23,2*%
%TO.N,Net-(D23-Pad2)*%
X93345000Y-153670000D03*
D12*
%TO.P,D23,1*%
%TO.N,/InputOutputPins/PC0*%
X93345000Y-146050000D03*
%TD*%
D13*
%TO.P,D22,2*%
%TO.N,Net-(D22-Pad2)*%
X123825000Y-130810000D03*
D12*
%TO.P,D22,1*%
%TO.N,/InputOutputPins/PC7*%
X123825000Y-123190000D03*
%TD*%
D13*
%TO.P,D21,2*%
%TO.N,Net-(D21-Pad2)*%
X126365000Y-130810000D03*
D12*
%TO.P,D21,1*%
%TO.N,/InputOutputPins/PC6*%
X126365000Y-123190000D03*
%TD*%
D13*
%TO.P,D20,2*%
%TO.N,Net-(D20-Pad2)*%
X128905000Y-130810000D03*
D12*
%TO.P,D20,1*%
%TO.N,/InputOutputPins/PC5*%
X128905000Y-123190000D03*
%TD*%
D13*
%TO.P,D19,2*%
%TO.N,Net-(D19-Pad2)*%
X131445000Y-130810000D03*
D12*
%TO.P,D19,1*%
%TO.N,/InputOutputPins/PC4*%
X131445000Y-123190000D03*
%TD*%
D13*
%TO.P,D18,2*%
%TO.N,Net-(D18-Pad2)*%
X133985000Y-130810000D03*
D12*
%TO.P,D18,1*%
%TO.N,/InputOutputPins/PC3*%
X133985000Y-123190000D03*
%TD*%
D13*
%TO.P,D17,2*%
%TO.N,Net-(D17-Pad2)*%
X136525000Y-130810000D03*
D12*
%TO.P,D17,1*%
%TO.N,/InputOutputPins/PC2*%
X136525000Y-123190000D03*
%TD*%
D13*
%TO.P,D16,2*%
%TO.N,Net-(D16-Pad2)*%
X139065000Y-130810000D03*
D12*
%TO.P,D16,1*%
%TO.N,/InputOutputPins/PC1*%
X139065000Y-123190000D03*
%TD*%
D13*
%TO.P,D15,2*%
%TO.N,Net-(D15-Pad2)*%
X141605000Y-130810000D03*
D12*
%TO.P,D15,1*%
%TO.N,/InputOutputPins/PC0*%
X141605000Y-123190000D03*
%TD*%
D13*
%TO.P,D14,2*%
%TO.N,Net-(D14-Pad2)*%
X75565000Y-130810000D03*
D12*
%TO.P,D14,1*%
%TO.N,/InputOutputPins/PC7*%
X75565000Y-123190000D03*
%TD*%
D13*
%TO.P,D13,2*%
%TO.N,Net-(D13-Pad2)*%
X78105000Y-130810000D03*
D12*
%TO.P,D13,1*%
%TO.N,/InputOutputPins/PC6*%
X78105000Y-123190000D03*
%TD*%
D13*
%TO.P,D12,2*%
%TO.N,Net-(D12-Pad2)*%
X80645000Y-130810000D03*
D12*
%TO.P,D12,1*%
%TO.N,/InputOutputPins/PC5*%
X80645000Y-123190000D03*
%TD*%
D13*
%TO.P,D11,2*%
%TO.N,Net-(D11-Pad2)*%
X83185000Y-130810000D03*
D12*
%TO.P,D11,1*%
%TO.N,/InputOutputPins/PC4*%
X83185000Y-123190000D03*
%TD*%
D13*
%TO.P,D10,2*%
%TO.N,Net-(D10-Pad2)*%
X85725000Y-130810000D03*
D12*
%TO.P,D10,1*%
%TO.N,/InputOutputPins/PC3*%
X85725000Y-123190000D03*
%TD*%
D13*
%TO.P,D9,2*%
%TO.N,Net-(D9-Pad2)*%
X88265000Y-130810000D03*
D12*
%TO.P,D9,1*%
%TO.N,/InputOutputPins/PC2*%
X88265000Y-123190000D03*
%TD*%
D13*
%TO.P,D8,2*%
%TO.N,Net-(D8-Pad2)*%
X90805000Y-130810000D03*
D12*
%TO.P,D8,1*%
%TO.N,/InputOutputPins/PC1*%
X90805000Y-123190000D03*
%TD*%
D13*
%TO.P,D7,2*%
%TO.N,Net-(D7-Pad2)*%
X93345000Y-130810000D03*
D12*
%TO.P,D7,1*%
%TO.N,/InputOutputPins/PC0*%
X93345000Y-123190000D03*
%TD*%
D25*
%TO.P,D6,2*%
%TO.N,Net-(D6-Pad2)*%
X73025000Y-81280000D03*
D26*
%TO.P,D6,1*%
%TO.N,GND*%
X70485000Y-81280000D03*
%TD*%
D25*
%TO.P,D5,2*%
%TO.N,Net-(D5-Pad2)*%
X76200000Y-81280000D03*
D26*
%TO.P,D5,1*%
%TO.N,STATUS*%
X78740000Y-81280000D03*
%TD*%
D25*
%TO.P,D2,2*%
%TO.N,Net-(D2-Pad2)*%
X57150000Y-35560000D03*
D26*
%TO.P,D2,1*%
%TO.N,Net-(D2-Pad1)*%
X57150000Y-38100000D03*
%TD*%
D25*
%TO.P,D1,2*%
%TO.N,Net-(D1-Pad2)*%
X52070000Y-35560000D03*
D26*
%TO.P,D1,1*%
%TO.N,Net-(D1-Pad1)*%
X52070000Y-38100000D03*
%TD*%
D11*
%TO.P,C16,2*%
%TO.N,GND*%
X147320000Y-102790000D03*
D12*
%TO.P,C16,1*%
%TO.N,/Analog Inputs/PA7*%
X147320000Y-97790000D03*
%TD*%
D11*
%TO.P,C15,2*%
%TO.N,GND*%
X147320000Y-92630000D03*
D12*
%TO.P,C15,1*%
%TO.N,/Analog Inputs/PA6*%
X147320000Y-87630000D03*
%TD*%
D11*
%TO.P,C14,2*%
%TO.N,GND*%
X147320000Y-82470000D03*
D12*
%TO.P,C14,1*%
%TO.N,/Analog Inputs/PA5*%
X147320000Y-77470000D03*
%TD*%
D11*
%TO.P,C13,2*%
%TO.N,GND*%
X147320000Y-72310000D03*
D12*
%TO.P,C13,1*%
%TO.N,/Analog Inputs/PA4*%
X147320000Y-67310000D03*
%TD*%
D11*
%TO.P,C12,2*%
%TO.N,GND*%
X147320000Y-62150000D03*
D12*
%TO.P,C12,1*%
%TO.N,/Analog Inputs/PA3*%
X147320000Y-57150000D03*
%TD*%
D11*
%TO.P,C11,2*%
%TO.N,GND*%
X147320000Y-51990000D03*
D12*
%TO.P,C11,1*%
%TO.N,/Analog Inputs/PA2*%
X147320000Y-46990000D03*
%TD*%
D11*
%TO.P,C10,2*%
%TO.N,GND*%
X147320000Y-41830000D03*
D12*
%TO.P,C10,1*%
%TO.N,/Analog Inputs/PA1*%
X147320000Y-36830000D03*
%TD*%
%TO.P,C9,1*%
%TO.N,GND*%
X38100000Y-50800000D03*
D11*
%TO.P,C9,2*%
%TO.N,Net-(C9-Pad2)*%
X43100000Y-50800000D03*
%TD*%
%TO.P,C8,2*%
%TO.N,GND*%
X57150000Y-72310000D03*
D12*
%TO.P,C8,1*%
%TO.N,VBUS*%
X57150000Y-67310000D03*
%TD*%
D11*
%TO.P,C7,2*%
%TO.N,GND*%
X74850000Y-50165000D03*
D12*
%TO.P,C7,1*%
%TO.N,Net-(C7-Pad1)*%
X69850000Y-50165000D03*
%TD*%
D11*
%TO.P,C6,2*%
%TO.N,GND*%
X118745000Y-54530000D03*
D12*
%TO.P,C6,1*%
%TO.N,+5V*%
X118745000Y-49530000D03*
%TD*%
D11*
%TO.P,C5,2*%
%TO.N,GND*%
X72390000Y-73580000D03*
D12*
%TO.P,C5,1*%
%TO.N,Net-(C5-Pad1)*%
X72390000Y-68580000D03*
%TD*%
D11*
%TO.P,C4,2*%
%TO.N,GND*%
X83820000Y-73580000D03*
D12*
%TO.P,C4,1*%
%TO.N,Net-(C4-Pad1)*%
X83820000Y-68580000D03*
%TD*%
D11*
%TO.P,C3,2*%
%TO.N,GND*%
X147320000Y-31670000D03*
D12*
%TO.P,C3,1*%
%TO.N,/Analog Inputs/PA0*%
X147320000Y-26670000D03*
%TD*%
D11*
%TO.P,C2,2*%
%TO.N,GND*%
X52070000Y-24210000D03*
D12*
%TO.P,C2,1*%
%TO.N,+5V*%
X52070000Y-29210000D03*
%TD*%
D11*
%TO.P,C1,2*%
%TO.N,GND*%
X127635000Y-54530000D03*
D12*
%TO.P,C1,1*%
%TO.N,+5V*%
X127635000Y-49530000D03*
%TD*%
%TA.AperFunction,SMDPad,CuDef*%
D27*
%TO.P,U3,20*%
%TO.N,GND*%
G36*
X65569703Y-59505722D02*
G01*
X65584264Y-59507882D01*
X65598543Y-59511459D01*
X65612403Y-59516418D01*
X65625710Y-59522712D01*
X65638336Y-59530280D01*
X65650159Y-59539048D01*
X65661066Y-59548934D01*
X65670952Y-59559841D01*
X65679720Y-59571664D01*
X65687288Y-59584290D01*
X65693582Y-59597597D01*
X65698541Y-59611457D01*
X65702118Y-59625736D01*
X65704278Y-59640297D01*
X65705000Y-59655000D01*
X65705000Y-61405000D01*
X65704278Y-61419703D01*
X65702118Y-61434264D01*
X65698541Y-61448543D01*
X65693582Y-61462403D01*
X65687288Y-61475710D01*
X65679720Y-61488336D01*
X65670952Y-61500159D01*
X65661066Y-61511066D01*
X65650159Y-61520952D01*
X65638336Y-61529720D01*
X65625710Y-61537288D01*
X65612403Y-61543582D01*
X65598543Y-61548541D01*
X65584264Y-61552118D01*
X65569703Y-61554278D01*
X65555000Y-61555000D01*
X65255000Y-61555000D01*
X65240297Y-61554278D01*
X65225736Y-61552118D01*
X65211457Y-61548541D01*
X65197597Y-61543582D01*
X65184290Y-61537288D01*
X65171664Y-61529720D01*
X65159841Y-61520952D01*
X65148934Y-61511066D01*
X65139048Y-61500159D01*
X65130280Y-61488336D01*
X65122712Y-61475710D01*
X65116418Y-61462403D01*
X65111459Y-61448543D01*
X65107882Y-61434264D01*
X65105722Y-61419703D01*
X65105000Y-61405000D01*
X65105000Y-59655000D01*
X65105722Y-59640297D01*
X65107882Y-59625736D01*
X65111459Y-59611457D01*
X65116418Y-59597597D01*
X65122712Y-59584290D01*
X65130280Y-59571664D01*
X65139048Y-59559841D01*
X65148934Y-59548934D01*
X65159841Y-59539048D01*
X65171664Y-59530280D01*
X65184290Y-59522712D01*
X65197597Y-59516418D01*
X65211457Y-59511459D01*
X65225736Y-59507882D01*
X65240297Y-59505722D01*
X65255000Y-59505000D01*
X65555000Y-59505000D01*
X65569703Y-59505722D01*
G37*
%TD.AperFunction*%
%TA.AperFunction,SMDPad,CuDef*%
%TO.P,U3,19*%
%TO.N,Net-(J1-Pad3)*%
G36*
X64299703Y-59505722D02*
G01*
X64314264Y-59507882D01*
X64328543Y-59511459D01*
X64342403Y-59516418D01*
X64355710Y-59522712D01*
X64368336Y-59530280D01*
X64380159Y-59539048D01*
X64391066Y-59548934D01*
X64400952Y-59559841D01*
X64409720Y-59571664D01*
X64417288Y-59584290D01*
X64423582Y-59597597D01*
X64428541Y-59611457D01*
X64432118Y-59625736D01*
X64434278Y-59640297D01*
X64435000Y-59655000D01*
X64435000Y-61405000D01*
X64434278Y-61419703D01*
X64432118Y-61434264D01*
X64428541Y-61448543D01*
X64423582Y-61462403D01*
X64417288Y-61475710D01*
X64409720Y-61488336D01*
X64400952Y-61500159D01*
X64391066Y-61511066D01*
X64380159Y-61520952D01*
X64368336Y-61529720D01*
X64355710Y-61537288D01*
X64342403Y-61543582D01*
X64328543Y-61548541D01*
X64314264Y-61552118D01*
X64299703Y-61554278D01*
X64285000Y-61555000D01*
X63985000Y-61555000D01*
X63970297Y-61554278D01*
X63955736Y-61552118D01*
X63941457Y-61548541D01*
X63927597Y-61543582D01*
X63914290Y-61537288D01*
X63901664Y-61529720D01*
X63889841Y-61520952D01*
X63878934Y-61511066D01*
X63869048Y-61500159D01*
X63860280Y-61488336D01*
X63852712Y-61475710D01*
X63846418Y-61462403D01*
X63841459Y-61448543D01*
X63837882Y-61434264D01*
X63835722Y-61419703D01*
X63835000Y-61405000D01*
X63835000Y-59655000D01*
X63835722Y-59640297D01*
X63837882Y-59625736D01*
X63841459Y-59611457D01*
X63846418Y-59597597D01*
X63852712Y-59584290D01*
X63860280Y-59571664D01*
X63869048Y-59559841D01*
X63878934Y-59548934D01*
X63889841Y-59539048D01*
X63901664Y-59530280D01*
X63914290Y-59522712D01*
X63927597Y-59516418D01*
X63941457Y-59511459D01*
X63955736Y-59507882D01*
X63970297Y-59505722D01*
X63985000Y-59505000D01*
X64285000Y-59505000D01*
X64299703Y-59505722D01*
G37*
%TD.AperFunction*%
%TA.AperFunction,SMDPad,CuDef*%
%TO.P,U3,18*%
%TO.N,Net-(J1-Pad2)*%
G36*
X63029703Y-59505722D02*
G01*
X63044264Y-59507882D01*
X63058543Y-59511459D01*
X63072403Y-59516418D01*
X63085710Y-59522712D01*
X63098336Y-59530280D01*
X63110159Y-59539048D01*
X63121066Y-59548934D01*
X63130952Y-59559841D01*
X63139720Y-59571664D01*
X63147288Y-59584290D01*
X63153582Y-59597597D01*
X63158541Y-59611457D01*
X63162118Y-59625736D01*
X63164278Y-59640297D01*
X63165000Y-59655000D01*
X63165000Y-61405000D01*
X63164278Y-61419703D01*
X63162118Y-61434264D01*
X63158541Y-61448543D01*
X63153582Y-61462403D01*
X63147288Y-61475710D01*
X63139720Y-61488336D01*
X63130952Y-61500159D01*
X63121066Y-61511066D01*
X63110159Y-61520952D01*
X63098336Y-61529720D01*
X63085710Y-61537288D01*
X63072403Y-61543582D01*
X63058543Y-61548541D01*
X63044264Y-61552118D01*
X63029703Y-61554278D01*
X63015000Y-61555000D01*
X62715000Y-61555000D01*
X62700297Y-61554278D01*
X62685736Y-61552118D01*
X62671457Y-61548541D01*
X62657597Y-61543582D01*
X62644290Y-61537288D01*
X62631664Y-61529720D01*
X62619841Y-61520952D01*
X62608934Y-61511066D01*
X62599048Y-61500159D01*
X62590280Y-61488336D01*
X62582712Y-61475710D01*
X62576418Y-61462403D01*
X62571459Y-61448543D01*
X62567882Y-61434264D01*
X62565722Y-61419703D01*
X62565000Y-61405000D01*
X62565000Y-59655000D01*
X62565722Y-59640297D01*
X62567882Y-59625736D01*
X62571459Y-59611457D01*
X62576418Y-59597597D01*
X62582712Y-59584290D01*
X62590280Y-59571664D01*
X62599048Y-59559841D01*
X62608934Y-59548934D01*
X62619841Y-59539048D01*
X62631664Y-59530280D01*
X62644290Y-59522712D01*
X62657597Y-59516418D01*
X62671457Y-59511459D01*
X62685736Y-59507882D01*
X62700297Y-59505722D01*
X62715000Y-59505000D01*
X63015000Y-59505000D01*
X63029703Y-59505722D01*
G37*
%TD.AperFunction*%
%TA.AperFunction,SMDPad,CuDef*%
%TO.P,U3,17*%
%TO.N,Net-(C9-Pad2)*%
G36*
X61759703Y-59505722D02*
G01*
X61774264Y-59507882D01*
X61788543Y-59511459D01*
X61802403Y-59516418D01*
X61815710Y-59522712D01*
X61828336Y-59530280D01*
X61840159Y-59539048D01*
X61851066Y-59548934D01*
X61860952Y-59559841D01*
X61869720Y-59571664D01*
X61877288Y-59584290D01*
X61883582Y-59597597D01*
X61888541Y-59611457D01*
X61892118Y-59625736D01*
X61894278Y-59640297D01*
X61895000Y-59655000D01*
X61895000Y-61405000D01*
X61894278Y-61419703D01*
X61892118Y-61434264D01*
X61888541Y-61448543D01*
X61883582Y-61462403D01*
X61877288Y-61475710D01*
X61869720Y-61488336D01*
X61860952Y-61500159D01*
X61851066Y-61511066D01*
X61840159Y-61520952D01*
X61828336Y-61529720D01*
X61815710Y-61537288D01*
X61802403Y-61543582D01*
X61788543Y-61548541D01*
X61774264Y-61552118D01*
X61759703Y-61554278D01*
X61745000Y-61555000D01*
X61445000Y-61555000D01*
X61430297Y-61554278D01*
X61415736Y-61552118D01*
X61401457Y-61548541D01*
X61387597Y-61543582D01*
X61374290Y-61537288D01*
X61361664Y-61529720D01*
X61349841Y-61520952D01*
X61338934Y-61511066D01*
X61329048Y-61500159D01*
X61320280Y-61488336D01*
X61312712Y-61475710D01*
X61306418Y-61462403D01*
X61301459Y-61448543D01*
X61297882Y-61434264D01*
X61295722Y-61419703D01*
X61295000Y-61405000D01*
X61295000Y-59655000D01*
X61295722Y-59640297D01*
X61297882Y-59625736D01*
X61301459Y-59611457D01*
X61306418Y-59597597D01*
X61312712Y-59584290D01*
X61320280Y-59571664D01*
X61329048Y-59559841D01*
X61338934Y-59548934D01*
X61349841Y-59539048D01*
X61361664Y-59530280D01*
X61374290Y-59522712D01*
X61387597Y-59516418D01*
X61401457Y-59511459D01*
X61415736Y-59507882D01*
X61430297Y-59505722D01*
X61445000Y-59505000D01*
X61745000Y-59505000D01*
X61759703Y-59505722D01*
G37*
%TD.AperFunction*%
%TA.AperFunction,SMDPad,CuDef*%
%TO.P,U3,16*%
%TO.N,Net-(U3-Pad16)*%
G36*
X60489703Y-59505722D02*
G01*
X60504264Y-59507882D01*
X60518543Y-59511459D01*
X60532403Y-59516418D01*
X60545710Y-59522712D01*
X60558336Y-59530280D01*
X60570159Y-59539048D01*
X60581066Y-59548934D01*
X60590952Y-59559841D01*
X60599720Y-59571664D01*
X60607288Y-59584290D01*
X60613582Y-59597597D01*
X60618541Y-59611457D01*
X60622118Y-59625736D01*
X60624278Y-59640297D01*
X60625000Y-59655000D01*
X60625000Y-61405000D01*
X60624278Y-61419703D01*
X60622118Y-61434264D01*
X60618541Y-61448543D01*
X60613582Y-61462403D01*
X60607288Y-61475710D01*
X60599720Y-61488336D01*
X60590952Y-61500159D01*
X60581066Y-61511066D01*
X60570159Y-61520952D01*
X60558336Y-61529720D01*
X60545710Y-61537288D01*
X60532403Y-61543582D01*
X60518543Y-61548541D01*
X60504264Y-61552118D01*
X60489703Y-61554278D01*
X60475000Y-61555000D01*
X60175000Y-61555000D01*
X60160297Y-61554278D01*
X60145736Y-61552118D01*
X60131457Y-61548541D01*
X60117597Y-61543582D01*
X60104290Y-61537288D01*
X60091664Y-61529720D01*
X60079841Y-61520952D01*
X60068934Y-61511066D01*
X60059048Y-61500159D01*
X60050280Y-61488336D01*
X60042712Y-61475710D01*
X60036418Y-61462403D01*
X60031459Y-61448543D01*
X60027882Y-61434264D01*
X60025722Y-61419703D01*
X60025000Y-61405000D01*
X60025000Y-59655000D01*
X60025722Y-59640297D01*
X60027882Y-59625736D01*
X60031459Y-59611457D01*
X60036418Y-59597597D01*
X60042712Y-59584290D01*
X60050280Y-59571664D01*
X60059048Y-59559841D01*
X60068934Y-59548934D01*
X60079841Y-59539048D01*
X60091664Y-59530280D01*
X60104290Y-59522712D01*
X60117597Y-59516418D01*
X60131457Y-59511459D01*
X60145736Y-59507882D01*
X60160297Y-59505722D01*
X60175000Y-59505000D01*
X60475000Y-59505000D01*
X60489703Y-59505722D01*
G37*
%TD.AperFunction*%
%TA.AperFunction,SMDPad,CuDef*%
%TO.P,U3,15*%
%TO.N,Net-(U3-Pad15)*%
G36*
X59219703Y-59505722D02*
G01*
X59234264Y-59507882D01*
X59248543Y-59511459D01*
X59262403Y-59516418D01*
X59275710Y-59522712D01*
X59288336Y-59530280D01*
X59300159Y-59539048D01*
X59311066Y-59548934D01*
X59320952Y-59559841D01*
X59329720Y-59571664D01*
X59337288Y-59584290D01*
X59343582Y-59597597D01*
X59348541Y-59611457D01*
X59352118Y-59625736D01*
X59354278Y-59640297D01*
X59355000Y-59655000D01*
X59355000Y-61405000D01*
X59354278Y-61419703D01*
X59352118Y-61434264D01*
X59348541Y-61448543D01*
X59343582Y-61462403D01*
X59337288Y-61475710D01*
X59329720Y-61488336D01*
X59320952Y-61500159D01*
X59311066Y-61511066D01*
X59300159Y-61520952D01*
X59288336Y-61529720D01*
X59275710Y-61537288D01*
X59262403Y-61543582D01*
X59248543Y-61548541D01*
X59234264Y-61552118D01*
X59219703Y-61554278D01*
X59205000Y-61555000D01*
X58905000Y-61555000D01*
X58890297Y-61554278D01*
X58875736Y-61552118D01*
X58861457Y-61548541D01*
X58847597Y-61543582D01*
X58834290Y-61537288D01*
X58821664Y-61529720D01*
X58809841Y-61520952D01*
X58798934Y-61511066D01*
X58789048Y-61500159D01*
X58780280Y-61488336D01*
X58772712Y-61475710D01*
X58766418Y-61462403D01*
X58761459Y-61448543D01*
X58757882Y-61434264D01*
X58755722Y-61419703D01*
X58755000Y-61405000D01*
X58755000Y-59655000D01*
X58755722Y-59640297D01*
X58757882Y-59625736D01*
X58761459Y-59611457D01*
X58766418Y-59597597D01*
X58772712Y-59584290D01*
X58780280Y-59571664D01*
X58789048Y-59559841D01*
X58798934Y-59548934D01*
X58809841Y-59539048D01*
X58821664Y-59530280D01*
X58834290Y-59522712D01*
X58847597Y-59516418D01*
X58861457Y-59511459D01*
X58875736Y-59507882D01*
X58890297Y-59505722D01*
X58905000Y-59505000D01*
X59205000Y-59505000D01*
X59219703Y-59505722D01*
G37*
%TD.AperFunction*%
%TA.AperFunction,SMDPad,CuDef*%
%TO.P,U3,14*%
%TO.N,Net-(U3-Pad14)*%
G36*
X57949703Y-59505722D02*
G01*
X57964264Y-59507882D01*
X57978543Y-59511459D01*
X57992403Y-59516418D01*
X58005710Y-59522712D01*
X58018336Y-59530280D01*
X58030159Y-59539048D01*
X58041066Y-59548934D01*
X58050952Y-59559841D01*
X58059720Y-59571664D01*
X58067288Y-59584290D01*
X58073582Y-59597597D01*
X58078541Y-59611457D01*
X58082118Y-59625736D01*
X58084278Y-59640297D01*
X58085000Y-59655000D01*
X58085000Y-61405000D01*
X58084278Y-61419703D01*
X58082118Y-61434264D01*
X58078541Y-61448543D01*
X58073582Y-61462403D01*
X58067288Y-61475710D01*
X58059720Y-61488336D01*
X58050952Y-61500159D01*
X58041066Y-61511066D01*
X58030159Y-61520952D01*
X58018336Y-61529720D01*
X58005710Y-61537288D01*
X57992403Y-61543582D01*
X57978543Y-61548541D01*
X57964264Y-61552118D01*
X57949703Y-61554278D01*
X57935000Y-61555000D01*
X57635000Y-61555000D01*
X57620297Y-61554278D01*
X57605736Y-61552118D01*
X57591457Y-61548541D01*
X57577597Y-61543582D01*
X57564290Y-61537288D01*
X57551664Y-61529720D01*
X57539841Y-61520952D01*
X57528934Y-61511066D01*
X57519048Y-61500159D01*
X57510280Y-61488336D01*
X57502712Y-61475710D01*
X57496418Y-61462403D01*
X57491459Y-61448543D01*
X57487882Y-61434264D01*
X57485722Y-61419703D01*
X57485000Y-61405000D01*
X57485000Y-59655000D01*
X57485722Y-59640297D01*
X57487882Y-59625736D01*
X57491459Y-59611457D01*
X57496418Y-59597597D01*
X57502712Y-59584290D01*
X57510280Y-59571664D01*
X57519048Y-59559841D01*
X57528934Y-59548934D01*
X57539841Y-59539048D01*
X57551664Y-59530280D01*
X57564290Y-59522712D01*
X57577597Y-59516418D01*
X57591457Y-59511459D01*
X57605736Y-59507882D01*
X57620297Y-59505722D01*
X57635000Y-59505000D01*
X57935000Y-59505000D01*
X57949703Y-59505722D01*
G37*
%TD.AperFunction*%
%TA.AperFunction,SMDPad,CuDef*%
%TO.P,U3,13*%
%TO.N,Net-(U3-Pad13)*%
G36*
X56679703Y-59505722D02*
G01*
X56694264Y-59507882D01*
X56708543Y-59511459D01*
X56722403Y-59516418D01*
X56735710Y-59522712D01*
X56748336Y-59530280D01*
X56760159Y-59539048D01*
X56771066Y-59548934D01*
X56780952Y-59559841D01*
X56789720Y-59571664D01*
X56797288Y-59584290D01*
X56803582Y-59597597D01*
X56808541Y-59611457D01*
X56812118Y-59625736D01*
X56814278Y-59640297D01*
X56815000Y-59655000D01*
X56815000Y-61405000D01*
X56814278Y-61419703D01*
X56812118Y-61434264D01*
X56808541Y-61448543D01*
X56803582Y-61462403D01*
X56797288Y-61475710D01*
X56789720Y-61488336D01*
X56780952Y-61500159D01*
X56771066Y-61511066D01*
X56760159Y-61520952D01*
X56748336Y-61529720D01*
X56735710Y-61537288D01*
X56722403Y-61543582D01*
X56708543Y-61548541D01*
X56694264Y-61552118D01*
X56679703Y-61554278D01*
X56665000Y-61555000D01*
X56365000Y-61555000D01*
X56350297Y-61554278D01*
X56335736Y-61552118D01*
X56321457Y-61548541D01*
X56307597Y-61543582D01*
X56294290Y-61537288D01*
X56281664Y-61529720D01*
X56269841Y-61520952D01*
X56258934Y-61511066D01*
X56249048Y-61500159D01*
X56240280Y-61488336D01*
X56232712Y-61475710D01*
X56226418Y-61462403D01*
X56221459Y-61448543D01*
X56217882Y-61434264D01*
X56215722Y-61419703D01*
X56215000Y-61405000D01*
X56215000Y-59655000D01*
X56215722Y-59640297D01*
X56217882Y-59625736D01*
X56221459Y-59611457D01*
X56226418Y-59597597D01*
X56232712Y-59584290D01*
X56240280Y-59571664D01*
X56249048Y-59559841D01*
X56258934Y-59548934D01*
X56269841Y-59539048D01*
X56281664Y-59530280D01*
X56294290Y-59522712D01*
X56307597Y-59516418D01*
X56321457Y-59511459D01*
X56335736Y-59507882D01*
X56350297Y-59505722D01*
X56365000Y-59505000D01*
X56665000Y-59505000D01*
X56679703Y-59505722D01*
G37*
%TD.AperFunction*%
%TA.AperFunction,SMDPad,CuDef*%
%TO.P,U3,12*%
%TO.N,TXD*%
G36*
X55409703Y-59505722D02*
G01*
X55424264Y-59507882D01*
X55438543Y-59511459D01*
X55452403Y-59516418D01*
X55465710Y-59522712D01*
X55478336Y-59530280D01*
X55490159Y-59539048D01*
X55501066Y-59548934D01*
X55510952Y-59559841D01*
X55519720Y-59571664D01*
X55527288Y-59584290D01*
X55533582Y-59597597D01*
X55538541Y-59611457D01*
X55542118Y-59625736D01*
X55544278Y-59640297D01*
X55545000Y-59655000D01*
X55545000Y-61405000D01*
X55544278Y-61419703D01*
X55542118Y-61434264D01*
X55538541Y-61448543D01*
X55533582Y-61462403D01*
X55527288Y-61475710D01*
X55519720Y-61488336D01*
X55510952Y-61500159D01*
X55501066Y-61511066D01*
X55490159Y-61520952D01*
X55478336Y-61529720D01*
X55465710Y-61537288D01*
X55452403Y-61543582D01*
X55438543Y-61548541D01*
X55424264Y-61552118D01*
X55409703Y-61554278D01*
X55395000Y-61555000D01*
X55095000Y-61555000D01*
X55080297Y-61554278D01*
X55065736Y-61552118D01*
X55051457Y-61548541D01*
X55037597Y-61543582D01*
X55024290Y-61537288D01*
X55011664Y-61529720D01*
X54999841Y-61520952D01*
X54988934Y-61511066D01*
X54979048Y-61500159D01*
X54970280Y-61488336D01*
X54962712Y-61475710D01*
X54956418Y-61462403D01*
X54951459Y-61448543D01*
X54947882Y-61434264D01*
X54945722Y-61419703D01*
X54945000Y-61405000D01*
X54945000Y-59655000D01*
X54945722Y-59640297D01*
X54947882Y-59625736D01*
X54951459Y-59611457D01*
X54956418Y-59597597D01*
X54962712Y-59584290D01*
X54970280Y-59571664D01*
X54979048Y-59559841D01*
X54988934Y-59548934D01*
X54999841Y-59539048D01*
X55011664Y-59530280D01*
X55024290Y-59522712D01*
X55037597Y-59516418D01*
X55051457Y-59511459D01*
X55065736Y-59507882D01*
X55080297Y-59505722D01*
X55095000Y-59505000D01*
X55395000Y-59505000D01*
X55409703Y-59505722D01*
G37*
%TD.AperFunction*%
%TA.AperFunction,SMDPad,CuDef*%
%TO.P,U3,11*%
%TO.N,Net-(U3-Pad11)*%
G36*
X54139703Y-59505722D02*
G01*
X54154264Y-59507882D01*
X54168543Y-59511459D01*
X54182403Y-59516418D01*
X54195710Y-59522712D01*
X54208336Y-59530280D01*
X54220159Y-59539048D01*
X54231066Y-59548934D01*
X54240952Y-59559841D01*
X54249720Y-59571664D01*
X54257288Y-59584290D01*
X54263582Y-59597597D01*
X54268541Y-59611457D01*
X54272118Y-59625736D01*
X54274278Y-59640297D01*
X54275000Y-59655000D01*
X54275000Y-61405000D01*
X54274278Y-61419703D01*
X54272118Y-61434264D01*
X54268541Y-61448543D01*
X54263582Y-61462403D01*
X54257288Y-61475710D01*
X54249720Y-61488336D01*
X54240952Y-61500159D01*
X54231066Y-61511066D01*
X54220159Y-61520952D01*
X54208336Y-61529720D01*
X54195710Y-61537288D01*
X54182403Y-61543582D01*
X54168543Y-61548541D01*
X54154264Y-61552118D01*
X54139703Y-61554278D01*
X54125000Y-61555000D01*
X53825000Y-61555000D01*
X53810297Y-61554278D01*
X53795736Y-61552118D01*
X53781457Y-61548541D01*
X53767597Y-61543582D01*
X53754290Y-61537288D01*
X53741664Y-61529720D01*
X53729841Y-61520952D01*
X53718934Y-61511066D01*
X53709048Y-61500159D01*
X53700280Y-61488336D01*
X53692712Y-61475710D01*
X53686418Y-61462403D01*
X53681459Y-61448543D01*
X53677882Y-61434264D01*
X53675722Y-61419703D01*
X53675000Y-61405000D01*
X53675000Y-59655000D01*
X53675722Y-59640297D01*
X53677882Y-59625736D01*
X53681459Y-59611457D01*
X53686418Y-59597597D01*
X53692712Y-59584290D01*
X53700280Y-59571664D01*
X53709048Y-59559841D01*
X53718934Y-59548934D01*
X53729841Y-59539048D01*
X53741664Y-59530280D01*
X53754290Y-59522712D01*
X53767597Y-59516418D01*
X53781457Y-59511459D01*
X53795736Y-59507882D01*
X53810297Y-59505722D01*
X53825000Y-59505000D01*
X54125000Y-59505000D01*
X54139703Y-59505722D01*
G37*
%TD.AperFunction*%
%TA.AperFunction,SMDPad,CuDef*%
%TO.P,U3,10*%
%TO.N,RXD*%
G36*
X54139703Y-50205722D02*
G01*
X54154264Y-50207882D01*
X54168543Y-50211459D01*
X54182403Y-50216418D01*
X54195710Y-50222712D01*
X54208336Y-50230280D01*
X54220159Y-50239048D01*
X54231066Y-50248934D01*
X54240952Y-50259841D01*
X54249720Y-50271664D01*
X54257288Y-50284290D01*
X54263582Y-50297597D01*
X54268541Y-50311457D01*
X54272118Y-50325736D01*
X54274278Y-50340297D01*
X54275000Y-50355000D01*
X54275000Y-52105000D01*
X54274278Y-52119703D01*
X54272118Y-52134264D01*
X54268541Y-52148543D01*
X54263582Y-52162403D01*
X54257288Y-52175710D01*
X54249720Y-52188336D01*
X54240952Y-52200159D01*
X54231066Y-52211066D01*
X54220159Y-52220952D01*
X54208336Y-52229720D01*
X54195710Y-52237288D01*
X54182403Y-52243582D01*
X54168543Y-52248541D01*
X54154264Y-52252118D01*
X54139703Y-52254278D01*
X54125000Y-52255000D01*
X53825000Y-52255000D01*
X53810297Y-52254278D01*
X53795736Y-52252118D01*
X53781457Y-52248541D01*
X53767597Y-52243582D01*
X53754290Y-52237288D01*
X53741664Y-52229720D01*
X53729841Y-52220952D01*
X53718934Y-52211066D01*
X53709048Y-52200159D01*
X53700280Y-52188336D01*
X53692712Y-52175710D01*
X53686418Y-52162403D01*
X53681459Y-52148543D01*
X53677882Y-52134264D01*
X53675722Y-52119703D01*
X53675000Y-52105000D01*
X53675000Y-50355000D01*
X53675722Y-50340297D01*
X53677882Y-50325736D01*
X53681459Y-50311457D01*
X53686418Y-50297597D01*
X53692712Y-50284290D01*
X53700280Y-50271664D01*
X53709048Y-50259841D01*
X53718934Y-50248934D01*
X53729841Y-50239048D01*
X53741664Y-50230280D01*
X53754290Y-50222712D01*
X53767597Y-50216418D01*
X53781457Y-50211459D01*
X53795736Y-50207882D01*
X53810297Y-50205722D01*
X53825000Y-50205000D01*
X54125000Y-50205000D01*
X54139703Y-50205722D01*
G37*
%TD.AperFunction*%
%TA.AperFunction,SMDPad,CuDef*%
%TO.P,U3,9*%
%TO.N,Net-(U3-Pad9)*%
G36*
X55409703Y-50205722D02*
G01*
X55424264Y-50207882D01*
X55438543Y-50211459D01*
X55452403Y-50216418D01*
X55465710Y-50222712D01*
X55478336Y-50230280D01*
X55490159Y-50239048D01*
X55501066Y-50248934D01*
X55510952Y-50259841D01*
X55519720Y-50271664D01*
X55527288Y-50284290D01*
X55533582Y-50297597D01*
X55538541Y-50311457D01*
X55542118Y-50325736D01*
X55544278Y-50340297D01*
X55545000Y-50355000D01*
X55545000Y-52105000D01*
X55544278Y-52119703D01*
X55542118Y-52134264D01*
X55538541Y-52148543D01*
X55533582Y-52162403D01*
X55527288Y-52175710D01*
X55519720Y-52188336D01*
X55510952Y-52200159D01*
X55501066Y-52211066D01*
X55490159Y-52220952D01*
X55478336Y-52229720D01*
X55465710Y-52237288D01*
X55452403Y-52243582D01*
X55438543Y-52248541D01*
X55424264Y-52252118D01*
X55409703Y-52254278D01*
X55395000Y-52255000D01*
X55095000Y-52255000D01*
X55080297Y-52254278D01*
X55065736Y-52252118D01*
X55051457Y-52248541D01*
X55037597Y-52243582D01*
X55024290Y-52237288D01*
X55011664Y-52229720D01*
X54999841Y-52220952D01*
X54988934Y-52211066D01*
X54979048Y-52200159D01*
X54970280Y-52188336D01*
X54962712Y-52175710D01*
X54956418Y-52162403D01*
X54951459Y-52148543D01*
X54947882Y-52134264D01*
X54945722Y-52119703D01*
X54945000Y-52105000D01*
X54945000Y-50355000D01*
X54945722Y-50340297D01*
X54947882Y-50325736D01*
X54951459Y-50311457D01*
X54956418Y-50297597D01*
X54962712Y-50284290D01*
X54970280Y-50271664D01*
X54979048Y-50259841D01*
X54988934Y-50248934D01*
X54999841Y-50239048D01*
X55011664Y-50230280D01*
X55024290Y-50222712D01*
X55037597Y-50216418D01*
X55051457Y-50211459D01*
X55065736Y-50207882D01*
X55080297Y-50205722D01*
X55095000Y-50205000D01*
X55395000Y-50205000D01*
X55409703Y-50205722D01*
G37*
%TD.AperFunction*%
%TA.AperFunction,SMDPad,CuDef*%
%TO.P,U3,8*%
%TO.N,Net-(U3-Pad8)*%
G36*
X56679703Y-50205722D02*
G01*
X56694264Y-50207882D01*
X56708543Y-50211459D01*
X56722403Y-50216418D01*
X56735710Y-50222712D01*
X56748336Y-50230280D01*
X56760159Y-50239048D01*
X56771066Y-50248934D01*
X56780952Y-50259841D01*
X56789720Y-50271664D01*
X56797288Y-50284290D01*
X56803582Y-50297597D01*
X56808541Y-50311457D01*
X56812118Y-50325736D01*
X56814278Y-50340297D01*
X56815000Y-50355000D01*
X56815000Y-52105000D01*
X56814278Y-52119703D01*
X56812118Y-52134264D01*
X56808541Y-52148543D01*
X56803582Y-52162403D01*
X56797288Y-52175710D01*
X56789720Y-52188336D01*
X56780952Y-52200159D01*
X56771066Y-52211066D01*
X56760159Y-52220952D01*
X56748336Y-52229720D01*
X56735710Y-52237288D01*
X56722403Y-52243582D01*
X56708543Y-52248541D01*
X56694264Y-52252118D01*
X56679703Y-52254278D01*
X56665000Y-52255000D01*
X56365000Y-52255000D01*
X56350297Y-52254278D01*
X56335736Y-52252118D01*
X56321457Y-52248541D01*
X56307597Y-52243582D01*
X56294290Y-52237288D01*
X56281664Y-52229720D01*
X56269841Y-52220952D01*
X56258934Y-52211066D01*
X56249048Y-52200159D01*
X56240280Y-52188336D01*
X56232712Y-52175710D01*
X56226418Y-52162403D01*
X56221459Y-52148543D01*
X56217882Y-52134264D01*
X56215722Y-52119703D01*
X56215000Y-52105000D01*
X56215000Y-50355000D01*
X56215722Y-50340297D01*
X56217882Y-50325736D01*
X56221459Y-50311457D01*
X56226418Y-50297597D01*
X56232712Y-50284290D01*
X56240280Y-50271664D01*
X56249048Y-50259841D01*
X56258934Y-50248934D01*
X56269841Y-50239048D01*
X56281664Y-50230280D01*
X56294290Y-50222712D01*
X56307597Y-50216418D01*
X56321457Y-50211459D01*
X56335736Y-50207882D01*
X56350297Y-50205722D01*
X56365000Y-50205000D01*
X56665000Y-50205000D01*
X56679703Y-50205722D01*
G37*
%TD.AperFunction*%
%TA.AperFunction,SMDPad,CuDef*%
%TO.P,U3,7*%
%TO.N,Net-(U3-Pad7)*%
G36*
X57949703Y-50205722D02*
G01*
X57964264Y-50207882D01*
X57978543Y-50211459D01*
X57992403Y-50216418D01*
X58005710Y-50222712D01*
X58018336Y-50230280D01*
X58030159Y-50239048D01*
X58041066Y-50248934D01*
X58050952Y-50259841D01*
X58059720Y-50271664D01*
X58067288Y-50284290D01*
X58073582Y-50297597D01*
X58078541Y-50311457D01*
X58082118Y-50325736D01*
X58084278Y-50340297D01*
X58085000Y-50355000D01*
X58085000Y-52105000D01*
X58084278Y-52119703D01*
X58082118Y-52134264D01*
X58078541Y-52148543D01*
X58073582Y-52162403D01*
X58067288Y-52175710D01*
X58059720Y-52188336D01*
X58050952Y-52200159D01*
X58041066Y-52211066D01*
X58030159Y-52220952D01*
X58018336Y-52229720D01*
X58005710Y-52237288D01*
X57992403Y-52243582D01*
X57978543Y-52248541D01*
X57964264Y-52252118D01*
X57949703Y-52254278D01*
X57935000Y-52255000D01*
X57635000Y-52255000D01*
X57620297Y-52254278D01*
X57605736Y-52252118D01*
X57591457Y-52248541D01*
X57577597Y-52243582D01*
X57564290Y-52237288D01*
X57551664Y-52229720D01*
X57539841Y-52220952D01*
X57528934Y-52211066D01*
X57519048Y-52200159D01*
X57510280Y-52188336D01*
X57502712Y-52175710D01*
X57496418Y-52162403D01*
X57491459Y-52148543D01*
X57487882Y-52134264D01*
X57485722Y-52119703D01*
X57485000Y-52105000D01*
X57485000Y-50355000D01*
X57485722Y-50340297D01*
X57487882Y-50325736D01*
X57491459Y-50311457D01*
X57496418Y-50297597D01*
X57502712Y-50284290D01*
X57510280Y-50271664D01*
X57519048Y-50259841D01*
X57528934Y-50248934D01*
X57539841Y-50239048D01*
X57551664Y-50230280D01*
X57564290Y-50222712D01*
X57577597Y-50216418D01*
X57591457Y-50211459D01*
X57605736Y-50207882D01*
X57620297Y-50205722D01*
X57635000Y-50205000D01*
X57935000Y-50205000D01*
X57949703Y-50205722D01*
G37*
%TD.AperFunction*%
%TA.AperFunction,SMDPad,CuDef*%
%TO.P,U3,6*%
%TO.N,Net-(D1-Pad1)*%
G36*
X59219703Y-50205722D02*
G01*
X59234264Y-50207882D01*
X59248543Y-50211459D01*
X59262403Y-50216418D01*
X59275710Y-50222712D01*
X59288336Y-50230280D01*
X59300159Y-50239048D01*
X59311066Y-50248934D01*
X59320952Y-50259841D01*
X59329720Y-50271664D01*
X59337288Y-50284290D01*
X59343582Y-50297597D01*
X59348541Y-50311457D01*
X59352118Y-50325736D01*
X59354278Y-50340297D01*
X59355000Y-50355000D01*
X59355000Y-52105000D01*
X59354278Y-52119703D01*
X59352118Y-52134264D01*
X59348541Y-52148543D01*
X59343582Y-52162403D01*
X59337288Y-52175710D01*
X59329720Y-52188336D01*
X59320952Y-52200159D01*
X59311066Y-52211066D01*
X59300159Y-52220952D01*
X59288336Y-52229720D01*
X59275710Y-52237288D01*
X59262403Y-52243582D01*
X59248543Y-52248541D01*
X59234264Y-52252118D01*
X59219703Y-52254278D01*
X59205000Y-52255000D01*
X58905000Y-52255000D01*
X58890297Y-52254278D01*
X58875736Y-52252118D01*
X58861457Y-52248541D01*
X58847597Y-52243582D01*
X58834290Y-52237288D01*
X58821664Y-52229720D01*
X58809841Y-52220952D01*
X58798934Y-52211066D01*
X58789048Y-52200159D01*
X58780280Y-52188336D01*
X58772712Y-52175710D01*
X58766418Y-52162403D01*
X58761459Y-52148543D01*
X58757882Y-52134264D01*
X58755722Y-52119703D01*
X58755000Y-52105000D01*
X58755000Y-50355000D01*
X58755722Y-50340297D01*
X58757882Y-50325736D01*
X58761459Y-50311457D01*
X58766418Y-50297597D01*
X58772712Y-50284290D01*
X58780280Y-50271664D01*
X58789048Y-50259841D01*
X58798934Y-50248934D01*
X58809841Y-50239048D01*
X58821664Y-50230280D01*
X58834290Y-50222712D01*
X58847597Y-50216418D01*
X58861457Y-50211459D01*
X58875736Y-50207882D01*
X58890297Y-50205722D01*
X58905000Y-50205000D01*
X59205000Y-50205000D01*
X59219703Y-50205722D01*
G37*
%TD.AperFunction*%
%TA.AperFunction,SMDPad,CuDef*%
%TO.P,U3,5*%
%TO.N,Net-(D2-Pad1)*%
G36*
X60489703Y-50205722D02*
G01*
X60504264Y-50207882D01*
X60518543Y-50211459D01*
X60532403Y-50216418D01*
X60545710Y-50222712D01*
X60558336Y-50230280D01*
X60570159Y-50239048D01*
X60581066Y-50248934D01*
X60590952Y-50259841D01*
X60599720Y-50271664D01*
X60607288Y-50284290D01*
X60613582Y-50297597D01*
X60618541Y-50311457D01*
X60622118Y-50325736D01*
X60624278Y-50340297D01*
X60625000Y-50355000D01*
X60625000Y-52105000D01*
X60624278Y-52119703D01*
X60622118Y-52134264D01*
X60618541Y-52148543D01*
X60613582Y-52162403D01*
X60607288Y-52175710D01*
X60599720Y-52188336D01*
X60590952Y-52200159D01*
X60581066Y-52211066D01*
X60570159Y-52220952D01*
X60558336Y-52229720D01*
X60545710Y-52237288D01*
X60532403Y-52243582D01*
X60518543Y-52248541D01*
X60504264Y-52252118D01*
X60489703Y-52254278D01*
X60475000Y-52255000D01*
X60175000Y-52255000D01*
X60160297Y-52254278D01*
X60145736Y-52252118D01*
X60131457Y-52248541D01*
X60117597Y-52243582D01*
X60104290Y-52237288D01*
X60091664Y-52229720D01*
X60079841Y-52220952D01*
X60068934Y-52211066D01*
X60059048Y-52200159D01*
X60050280Y-52188336D01*
X60042712Y-52175710D01*
X60036418Y-52162403D01*
X60031459Y-52148543D01*
X60027882Y-52134264D01*
X60025722Y-52119703D01*
X60025000Y-52105000D01*
X60025000Y-50355000D01*
X60025722Y-50340297D01*
X60027882Y-50325736D01*
X60031459Y-50311457D01*
X60036418Y-50297597D01*
X60042712Y-50284290D01*
X60050280Y-50271664D01*
X60059048Y-50259841D01*
X60068934Y-50248934D01*
X60079841Y-50239048D01*
X60091664Y-50230280D01*
X60104290Y-50222712D01*
X60117597Y-50216418D01*
X60131457Y-50211459D01*
X60145736Y-50207882D01*
X60160297Y-50205722D01*
X60175000Y-50205000D01*
X60475000Y-50205000D01*
X60489703Y-50205722D01*
G37*
%TD.AperFunction*%
%TA.AperFunction,SMDPad,CuDef*%
%TO.P,U3,4*%
%TO.N,Net-(C7-Pad1)*%
G36*
X61759703Y-50205722D02*
G01*
X61774264Y-50207882D01*
X61788543Y-50211459D01*
X61802403Y-50216418D01*
X61815710Y-50222712D01*
X61828336Y-50230280D01*
X61840159Y-50239048D01*
X61851066Y-50248934D01*
X61860952Y-50259841D01*
X61869720Y-50271664D01*
X61877288Y-50284290D01*
X61883582Y-50297597D01*
X61888541Y-50311457D01*
X61892118Y-50325736D01*
X61894278Y-50340297D01*
X61895000Y-50355000D01*
X61895000Y-52105000D01*
X61894278Y-52119703D01*
X61892118Y-52134264D01*
X61888541Y-52148543D01*
X61883582Y-52162403D01*
X61877288Y-52175710D01*
X61869720Y-52188336D01*
X61860952Y-52200159D01*
X61851066Y-52211066D01*
X61840159Y-52220952D01*
X61828336Y-52229720D01*
X61815710Y-52237288D01*
X61802403Y-52243582D01*
X61788543Y-52248541D01*
X61774264Y-52252118D01*
X61759703Y-52254278D01*
X61745000Y-52255000D01*
X61445000Y-52255000D01*
X61430297Y-52254278D01*
X61415736Y-52252118D01*
X61401457Y-52248541D01*
X61387597Y-52243582D01*
X61374290Y-52237288D01*
X61361664Y-52229720D01*
X61349841Y-52220952D01*
X61338934Y-52211066D01*
X61329048Y-52200159D01*
X61320280Y-52188336D01*
X61312712Y-52175710D01*
X61306418Y-52162403D01*
X61301459Y-52148543D01*
X61297882Y-52134264D01*
X61295722Y-52119703D01*
X61295000Y-52105000D01*
X61295000Y-50355000D01*
X61295722Y-50340297D01*
X61297882Y-50325736D01*
X61301459Y-50311457D01*
X61306418Y-50297597D01*
X61312712Y-50284290D01*
X61320280Y-50271664D01*
X61329048Y-50259841D01*
X61338934Y-50248934D01*
X61349841Y-50239048D01*
X61361664Y-50230280D01*
X61374290Y-50222712D01*
X61387597Y-50216418D01*
X61401457Y-50211459D01*
X61415736Y-50207882D01*
X61430297Y-50205722D01*
X61445000Y-50205000D01*
X61745000Y-50205000D01*
X61759703Y-50205722D01*
G37*
%TD.AperFunction*%
%TA.AperFunction,SMDPad,CuDef*%
%TO.P,U3,3*%
%TO.N,Net-(C5-Pad1)*%
G36*
X63029703Y-50205722D02*
G01*
X63044264Y-50207882D01*
X63058543Y-50211459D01*
X63072403Y-50216418D01*
X63085710Y-50222712D01*
X63098336Y-50230280D01*
X63110159Y-50239048D01*
X63121066Y-50248934D01*
X63130952Y-50259841D01*
X63139720Y-50271664D01*
X63147288Y-50284290D01*
X63153582Y-50297597D01*
X63158541Y-50311457D01*
X63162118Y-50325736D01*
X63164278Y-50340297D01*
X63165000Y-50355000D01*
X63165000Y-52105000D01*
X63164278Y-52119703D01*
X63162118Y-52134264D01*
X63158541Y-52148543D01*
X63153582Y-52162403D01*
X63147288Y-52175710D01*
X63139720Y-52188336D01*
X63130952Y-52200159D01*
X63121066Y-52211066D01*
X63110159Y-52220952D01*
X63098336Y-52229720D01*
X63085710Y-52237288D01*
X63072403Y-52243582D01*
X63058543Y-52248541D01*
X63044264Y-52252118D01*
X63029703Y-52254278D01*
X63015000Y-52255000D01*
X62715000Y-52255000D01*
X62700297Y-52254278D01*
X62685736Y-52252118D01*
X62671457Y-52248541D01*
X62657597Y-52243582D01*
X62644290Y-52237288D01*
X62631664Y-52229720D01*
X62619841Y-52220952D01*
X62608934Y-52211066D01*
X62599048Y-52200159D01*
X62590280Y-52188336D01*
X62582712Y-52175710D01*
X62576418Y-52162403D01*
X62571459Y-52148543D01*
X62567882Y-52134264D01*
X62565722Y-52119703D01*
X62565000Y-52105000D01*
X62565000Y-50355000D01*
X62565722Y-50340297D01*
X62567882Y-50325736D01*
X62571459Y-50311457D01*
X62576418Y-50297597D01*
X62582712Y-50284290D01*
X62590280Y-50271664D01*
X62599048Y-50259841D01*
X62608934Y-50248934D01*
X62619841Y-50239048D01*
X62631664Y-50230280D01*
X62644290Y-50222712D01*
X62657597Y-50216418D01*
X62671457Y-50211459D01*
X62685736Y-50207882D01*
X62700297Y-50205722D01*
X62715000Y-50205000D01*
X63015000Y-50205000D01*
X63029703Y-50205722D01*
G37*
%TD.AperFunction*%
%TA.AperFunction,SMDPad,CuDef*%
%TO.P,U3,2*%
%TO.N,Net-(C4-Pad1)*%
G36*
X64299703Y-50205722D02*
G01*
X64314264Y-50207882D01*
X64328543Y-50211459D01*
X64342403Y-50216418D01*
X64355710Y-50222712D01*
X64368336Y-50230280D01*
X64380159Y-50239048D01*
X64391066Y-50248934D01*
X64400952Y-50259841D01*
X64409720Y-50271664D01*
X64417288Y-50284290D01*
X64423582Y-50297597D01*
X64428541Y-50311457D01*
X64432118Y-50325736D01*
X64434278Y-50340297D01*
X64435000Y-50355000D01*
X64435000Y-52105000D01*
X64434278Y-52119703D01*
X64432118Y-52134264D01*
X64428541Y-52148543D01*
X64423582Y-52162403D01*
X64417288Y-52175710D01*
X64409720Y-52188336D01*
X64400952Y-52200159D01*
X64391066Y-52211066D01*
X64380159Y-52220952D01*
X64368336Y-52229720D01*
X64355710Y-52237288D01*
X64342403Y-52243582D01*
X64328543Y-52248541D01*
X64314264Y-52252118D01*
X64299703Y-52254278D01*
X64285000Y-52255000D01*
X63985000Y-52255000D01*
X63970297Y-52254278D01*
X63955736Y-52252118D01*
X63941457Y-52248541D01*
X63927597Y-52243582D01*
X63914290Y-52237288D01*
X63901664Y-52229720D01*
X63889841Y-52220952D01*
X63878934Y-52211066D01*
X63869048Y-52200159D01*
X63860280Y-52188336D01*
X63852712Y-52175710D01*
X63846418Y-52162403D01*
X63841459Y-52148543D01*
X63837882Y-52134264D01*
X63835722Y-52119703D01*
X63835000Y-52105000D01*
X63835000Y-50355000D01*
X63835722Y-50340297D01*
X63837882Y-50325736D01*
X63841459Y-50311457D01*
X63846418Y-50297597D01*
X63852712Y-50284290D01*
X63860280Y-50271664D01*
X63869048Y-50259841D01*
X63878934Y-50248934D01*
X63889841Y-50239048D01*
X63901664Y-50230280D01*
X63914290Y-50222712D01*
X63927597Y-50216418D01*
X63941457Y-50211459D01*
X63955736Y-50207882D01*
X63970297Y-50205722D01*
X63985000Y-50205000D01*
X64285000Y-50205000D01*
X64299703Y-50205722D01*
G37*
%TD.AperFunction*%
%TA.AperFunction,SMDPad,CuDef*%
%TO.P,U3,1*%
%TO.N,VBUS*%
G36*
X65569703Y-50205722D02*
G01*
X65584264Y-50207882D01*
X65598543Y-50211459D01*
X65612403Y-50216418D01*
X65625710Y-50222712D01*
X65638336Y-50230280D01*
X65650159Y-50239048D01*
X65661066Y-50248934D01*
X65670952Y-50259841D01*
X65679720Y-50271664D01*
X65687288Y-50284290D01*
X65693582Y-50297597D01*
X65698541Y-50311457D01*
X65702118Y-50325736D01*
X65704278Y-50340297D01*
X65705000Y-50355000D01*
X65705000Y-52105000D01*
X65704278Y-52119703D01*
X65702118Y-52134264D01*
X65698541Y-52148543D01*
X65693582Y-52162403D01*
X65687288Y-52175710D01*
X65679720Y-52188336D01*
X65670952Y-52200159D01*
X65661066Y-52211066D01*
X65650159Y-52220952D01*
X65638336Y-52229720D01*
X65625710Y-52237288D01*
X65612403Y-52243582D01*
X65598543Y-52248541D01*
X65584264Y-52252118D01*
X65569703Y-52254278D01*
X65555000Y-52255000D01*
X65255000Y-52255000D01*
X65240297Y-52254278D01*
X65225736Y-52252118D01*
X65211457Y-52248541D01*
X65197597Y-52243582D01*
X65184290Y-52237288D01*
X65171664Y-52229720D01*
X65159841Y-52220952D01*
X65148934Y-52211066D01*
X65139048Y-52200159D01*
X65130280Y-52188336D01*
X65122712Y-52175710D01*
X65116418Y-52162403D01*
X65111459Y-52148543D01*
X65107882Y-52134264D01*
X65105722Y-52119703D01*
X65105000Y-52105000D01*
X65105000Y-50355000D01*
X65105722Y-50340297D01*
X65107882Y-50325736D01*
X65111459Y-50311457D01*
X65116418Y-50297597D01*
X65122712Y-50284290D01*
X65130280Y-50271664D01*
X65139048Y-50259841D01*
X65148934Y-50248934D01*
X65159841Y-50239048D01*
X65171664Y-50230280D01*
X65184290Y-50222712D01*
X65197597Y-50216418D01*
X65211457Y-50211459D01*
X65225736Y-50207882D01*
X65240297Y-50205722D01*
X65255000Y-50205000D01*
X65555000Y-50205000D01*
X65569703Y-50205722D01*
G37*
%TD.AperFunction*%
%TD*%
D28*
%TO.N,GND*%
X64770000Y-63500000D03*
%TO.N,Net-(C4-Pad1)*%
X64770000Y-54610000D03*
%TO.N,Net-(C5-Pad1)*%
X63500000Y-53340000D03*
%TO.N,Net-(C7-Pad1)*%
X60325000Y-53975000D03*
%TO.N,Net-(D1-Pad1)*%
X52070000Y-43815000D03*
%TO.N,Net-(D2-Pad1)*%
X57150000Y-44450000D03*
%TO.N,/InputOutputPins/PC0*%
X125730000Y-102870000D03*
%TO.N,/InputOutputPins/PC1*%
X124460000Y-102870000D03*
%TO.N,/InputOutputPins/PC2*%
X123190000Y-102870000D03*
%TO.N,/InputOutputPins/PC3*%
X121920000Y-102870000D03*
%TO.N,/InputOutputPins/PC4*%
X120650000Y-102870000D03*
%TO.N,/InputOutputPins/PC5*%
X119380000Y-102870000D03*
%TO.N,/InputOutputPins/PC6*%
X118110000Y-102870000D03*
%TO.N,/InputOutputPins/PC7*%
X116840000Y-102870000D03*
%TO.N,/InputOutputPins/PB5*%
X106680000Y-102870000D03*
%TO.N,/InputOutputPins/PB7*%
X104140000Y-102870000D03*
%TO.N,/InputOutputPins/PB6*%
X105410000Y-102870000D03*
%TO.N,/InputOutputPins/PB0*%
X113030000Y-102870000D03*
%TO.N,/InputOutputPins/PB1*%
X111760000Y-102870000D03*
%TO.N,/InputOutputPins/PB2*%
X110490000Y-102870000D03*
%TO.N,/InputOutputPins/PB3*%
X109220000Y-102870000D03*
%TO.N,/InputOutputPins/PB4*%
X107950000Y-102870000D03*
%TO.N,Q7*%
X95250000Y-92710000D03*
X91440000Y-92710000D03*
%TO.N,Net-(J6-Pad10)*%
X96520000Y-130175000D03*
X46990000Y-106680000D03*
%TO.N,Net-(J12-Pad10)*%
X43180000Y-174625000D03*
%TO.N,Net-(J14-Pad10)*%
X97155000Y-177800000D03*
%TO.N,Net-(J16-Pad10)*%
X47625000Y-194310000D03*
X47625000Y-146685000D03*
%TO.N,Net-(J18-Pad10)*%
X46355000Y-194310000D03*
X46355000Y-118745000D03*
%TD*%
D29*
%TO.N,Net-(U1-Pad20)*%
X93980000Y-87630000D02*
X91440000Y-90170000D01*
X93980000Y-77470000D02*
X93980000Y-87630000D01*
%TO.N,Net-(U1-Pad19)*%
X88900000Y-80010000D02*
X88900000Y-90170000D01*
X93980000Y-74930000D02*
X88900000Y-80010000D01*
%TO.N,Net-(U1-Pad18)*%
X86360000Y-80010000D02*
X86360000Y-90170000D01*
X93980000Y-72390000D02*
X86360000Y-80010000D01*
%TO.N,GND*%
X39740000Y-64600000D02*
X39740000Y-60040000D01*
X42450000Y-67310000D02*
X39740000Y-64600000D01*
X42450000Y-69370000D02*
X42450000Y-67310000D01*
X39740000Y-72080000D02*
X42450000Y-69370000D01*
X37990001Y-32560001D02*
X34640000Y-29210000D01*
X37990001Y-58290001D02*
X37990001Y-32560001D01*
X39740000Y-60040000D02*
X37990001Y-58290001D01*
X36965001Y-26884999D02*
X34640000Y-29210000D01*
X64770000Y-30480000D02*
X61174999Y-26884999D01*
X65405000Y-62865000D02*
X64770000Y-63500000D01*
X65405000Y-60530000D02*
X65405000Y-62865000D01*
X57150000Y-73305002D02*
X57150000Y-72390000D01*
X70485000Y-81280000D02*
X65405000Y-81280000D01*
X65124998Y-81280000D02*
X64629999Y-80785001D01*
X65405000Y-81280000D02*
X65124998Y-81280000D01*
X64629999Y-80785001D02*
X57150000Y-73305002D01*
X91890010Y-52520010D02*
X93980000Y-54610000D01*
X77205010Y-52520010D02*
X91890010Y-52520010D01*
X74850000Y-50165000D02*
X77205010Y-52520010D01*
X42054998Y-24210000D02*
X39379999Y-26884999D01*
X52070000Y-24210000D02*
X42054998Y-24210000D01*
X39379999Y-26884999D02*
X37044999Y-26884999D01*
X37044999Y-26884999D02*
X36965001Y-26884999D01*
X61174999Y-26884999D02*
X37044999Y-26884999D01*
X38100000Y-73720000D02*
X39740000Y-72080000D01*
X38100000Y-81280000D02*
X38100000Y-73720000D01*
X167720000Y-31670000D02*
X170180000Y-29210000D01*
X147320000Y-31670000D02*
X167720000Y-31670000D01*
X167720000Y-41830000D02*
X170180000Y-39370000D01*
X147320000Y-41830000D02*
X167720000Y-41830000D01*
X167720000Y-51990000D02*
X170180000Y-49530000D01*
X147320000Y-51990000D02*
X167720000Y-51990000D01*
X167720000Y-62150000D02*
X170180000Y-59690000D01*
X147320000Y-62150000D02*
X167720000Y-62150000D01*
X167720000Y-72310000D02*
X170180000Y-69850000D01*
X147320000Y-72310000D02*
X167720000Y-72310000D01*
X167720000Y-82470000D02*
X170180000Y-80010000D01*
X147320000Y-82470000D02*
X167720000Y-82470000D01*
X167720000Y-92630000D02*
X170180000Y-90170000D01*
X147320000Y-92630000D02*
X167720000Y-92630000D01*
X167720000Y-102790000D02*
X170180000Y-100330000D01*
X147320000Y-102790000D02*
X167720000Y-102790000D01*
X167640000Y-102870000D02*
X170180000Y-100330000D01*
X118745000Y-55661370D02*
X118745000Y-54530000D01*
X124645000Y-83240000D02*
X126030000Y-81855000D01*
X123190000Y-83240000D02*
X124645000Y-83240000D01*
X126030000Y-79085000D02*
X126030000Y-81855000D01*
X124645000Y-77700000D02*
X126030000Y-79085000D01*
X123190000Y-77700000D02*
X124645000Y-77700000D01*
X124645000Y-80470000D02*
X126030000Y-79085000D01*
X124645000Y-80470000D02*
X126030000Y-81855000D01*
X123190000Y-80470000D02*
X124645000Y-80470000D01*
X123190000Y-83240000D02*
X123190000Y-77700000D01*
%TO.N,+5V*%
X40670000Y-29180000D02*
X40640000Y-29210000D01*
X40640000Y-29210000D02*
X40640000Y-31750000D01*
X50150000Y-41260000D02*
X63500000Y-41260000D01*
X40640000Y-31750000D02*
X50150000Y-41260000D01*
X69850000Y-34910000D02*
X63500000Y-41260000D01*
X69850000Y-30480000D02*
X69850000Y-34910000D01*
X82550000Y-52070000D02*
X93980000Y-52070000D01*
X78740000Y-48260000D02*
X82550000Y-52070000D01*
X66660000Y-41260000D02*
X63500000Y-41260000D01*
X71120000Y-45720000D02*
X66660000Y-41260000D01*
X76200000Y-45720000D02*
X78740000Y-48260000D01*
X71120000Y-45720000D02*
X76200000Y-45720000D01*
X84945001Y-79759997D02*
X93584998Y-71120000D01*
X84945001Y-89044999D02*
X84945001Y-79759997D01*
X83820000Y-90170000D02*
X84945001Y-89044999D01*
X95105001Y-53195001D02*
X93980000Y-52070000D01*
X95105001Y-70390001D02*
X95105001Y-53195001D01*
X94375002Y-71120000D02*
X95105001Y-70390001D01*
X93584998Y-71120000D02*
X94375002Y-71120000D01*
X81915000Y-88265000D02*
X83820000Y-90170000D01*
X74930000Y-88265000D02*
X81915000Y-88265000D01*
X118745000Y-49530000D02*
X109220000Y-49530000D01*
X109220000Y-54610000D02*
X114935000Y-54610000D01*
X114935000Y-54610000D02*
X117475000Y-52070000D01*
X125095000Y-52070000D02*
X127635000Y-49530000D01*
X117475000Y-52070000D02*
X125095000Y-52070000D01*
X52070000Y-29210000D02*
X40640000Y-29210000D01*
X108094999Y-53484999D02*
X109220000Y-54610000D01*
X108094999Y-50655001D02*
X108094999Y-53484999D01*
X109220000Y-49530000D02*
X108094999Y-50655001D01*
X171355001Y-33114999D02*
X170180000Y-34290000D01*
X171355001Y-25305001D02*
X171355001Y-33114999D01*
X170180000Y-24130000D02*
X171355001Y-25305001D01*
X171355001Y-43274999D02*
X170180000Y-44450000D01*
X171355001Y-35465001D02*
X171355001Y-43274999D01*
X170180000Y-34290000D02*
X171355001Y-35465001D01*
X171355001Y-53434999D02*
X170180000Y-54610000D01*
X171355001Y-45625001D02*
X171355001Y-53434999D01*
X170180000Y-44450000D02*
X171355001Y-45625001D01*
X171355001Y-63594999D02*
X170180000Y-64770000D01*
X171355001Y-55785001D02*
X171355001Y-63594999D01*
X170180000Y-54610000D02*
X171355001Y-55785001D01*
X171355001Y-73754999D02*
X170180000Y-74930000D01*
X171355001Y-65945001D02*
X171355001Y-73754999D01*
X170180000Y-64770000D02*
X171355001Y-65945001D01*
X171355001Y-76105001D02*
X171355001Y-83914999D01*
X171355001Y-83914999D02*
X170180000Y-85090000D01*
X170180000Y-74930000D02*
X171355001Y-76105001D01*
X171355001Y-94074999D02*
X170180000Y-95250000D01*
X171355001Y-86265001D02*
X171355001Y-94074999D01*
X170180000Y-85090000D02*
X171355001Y-86265001D01*
X126030000Y-76315000D02*
X127155001Y-77440001D01*
X127155001Y-83499999D02*
X126030000Y-84625000D01*
X127155001Y-77440001D02*
X127155001Y-83499999D01*
X126030000Y-75183630D02*
X118110000Y-67263630D01*
X126030000Y-76315000D02*
X126030000Y-75183630D01*
X118110000Y-63500000D02*
X109220000Y-54610000D01*
X118110000Y-67263630D02*
X118110000Y-63500000D01*
%TO.N,/Analog Inputs/PA0*%
X109220000Y-29210000D02*
X110490000Y-29210000D01*
X113030000Y-26670000D02*
X118110000Y-26670000D01*
X110490000Y-29210000D02*
X113030000Y-26670000D01*
X153670000Y-26670000D02*
X147320000Y-26670000D01*
X147320000Y-26670000D02*
X118110000Y-26670000D01*
%TO.N,Net-(C4-Pad1)*%
X93980000Y-59490000D02*
X93980000Y-59690000D01*
X64135000Y-52901998D02*
X64770000Y-53536998D01*
X64135000Y-51230000D02*
X64135000Y-52901998D01*
X64770000Y-53536998D02*
X64770000Y-54610000D01*
%TO.N,Net-(C5-Pad1)*%
X62865000Y-52705000D02*
X63500000Y-53340000D01*
X62865000Y-51230000D02*
X62865000Y-52705000D01*
%TO.N,Net-(C7-Pad1)*%
X65118001Y-55970001D02*
X69850000Y-51238002D01*
X69850000Y-51238002D02*
X69850000Y-50165000D01*
X64421999Y-55970001D02*
X65118001Y-55970001D01*
X61595000Y-53143002D02*
X64421999Y-55970001D01*
X61595000Y-51230000D02*
X61595000Y-53143002D01*
X61595000Y-52705000D02*
X61595000Y-51230000D01*
X60325000Y-53975000D02*
X61595000Y-52705000D01*
%TO.N,VBUS*%
X65405000Y-44465000D02*
X65405000Y-51230000D01*
X63500000Y-42560000D02*
X65405000Y-44465000D01*
X44530000Y-67390000D02*
X44450000Y-67310000D01*
X54610000Y-67390000D02*
X44530000Y-67390000D01*
X54610000Y-67390000D02*
X57150000Y-67390000D01*
X48470000Y-41910000D02*
X48290000Y-41910000D01*
X43630010Y-66490010D02*
X44450000Y-67310000D01*
X42988591Y-65985001D02*
X43493599Y-66490009D01*
X41885999Y-65985001D02*
X42988591Y-65985001D01*
X41274999Y-61576003D02*
X41274999Y-65374001D01*
X41910000Y-60941002D02*
X41274999Y-61576003D01*
X41910000Y-45720000D02*
X41910000Y-60941002D01*
X43493599Y-66490009D02*
X43630010Y-66490010D01*
X41274999Y-65374001D02*
X41885999Y-65985001D01*
X45720000Y-41910000D02*
X41910000Y-45720000D01*
X45720000Y-41910000D02*
X48470000Y-41910000D01*
X49120000Y-42560000D02*
X63500000Y-42560000D01*
X48470000Y-41910000D02*
X49120000Y-42560000D01*
X48470000Y-46565000D02*
X48895000Y-46990000D01*
X48470000Y-41910000D02*
X48470000Y-46565000D01*
%TO.N,Net-(C9-Pad2)*%
X61595000Y-60103232D02*
X61595000Y-60530000D01*
X43100000Y-53260000D02*
X53340000Y-63500000D01*
X61595000Y-62188590D02*
X61595000Y-60530000D01*
X60283590Y-63500000D02*
X61595000Y-62188590D01*
X53340000Y-63500000D02*
X60283590Y-63500000D01*
X43100000Y-53260000D02*
X43100000Y-50800000D01*
%TO.N,/Analog Inputs/PA1*%
X109220000Y-31750000D02*
X110490000Y-31750000D01*
X113030000Y-29210000D02*
X118110000Y-29210000D01*
X110490000Y-31750000D02*
X113030000Y-29210000D01*
X147320000Y-36830000D02*
X153670000Y-36830000D01*
X139700000Y-29210000D02*
X147320000Y-36830000D01*
X118110000Y-29210000D02*
X139700000Y-29210000D01*
%TO.N,/Analog Inputs/PA2*%
X109220000Y-34290000D02*
X110490000Y-34290000D01*
X113030000Y-31750000D02*
X118110000Y-31750000D01*
X110490000Y-34290000D02*
X113030000Y-31750000D01*
X147320000Y-46990000D02*
X153670000Y-46990000D01*
X132080000Y-31750000D02*
X147320000Y-46990000D01*
X118110000Y-31750000D02*
X132080000Y-31750000D01*
%TO.N,/Analog Inputs/PA3*%
X109220000Y-36830000D02*
X110490000Y-36830000D01*
X113030000Y-34290000D02*
X118110000Y-34290000D01*
X110490000Y-36830000D02*
X113030000Y-34290000D01*
X153670000Y-57150000D02*
X147320000Y-57150000D01*
X118110000Y-34290000D02*
X124460000Y-34290000D01*
X124460000Y-34290000D02*
X147320000Y-57150000D01*
%TO.N,/Analog Inputs/PA4*%
X109220000Y-39370000D02*
X110490000Y-39370000D01*
X113030000Y-36830000D02*
X118110000Y-36830000D01*
X110490000Y-39370000D02*
X113030000Y-36830000D01*
X153670000Y-67310000D02*
X147320000Y-67310000D01*
X118110000Y-36830000D02*
X125730000Y-36830000D01*
X142240000Y-62230000D02*
X147320000Y-67310000D01*
X142240000Y-53340000D02*
X142240000Y-62230000D01*
X142240000Y-53340000D02*
X125730000Y-36830000D01*
%TO.N,/Analog Inputs/PA5*%
X109220000Y-41910000D02*
X110490000Y-41910000D01*
X113030000Y-39370000D02*
X118110000Y-39370000D01*
X110490000Y-41910000D02*
X113030000Y-39370000D01*
X153670000Y-77470000D02*
X147320000Y-77470000D01*
X141789990Y-71939990D02*
X147320000Y-77470000D01*
X118110000Y-39370000D02*
X127000000Y-39370000D01*
X127000000Y-39370000D02*
X129540000Y-41910000D01*
X129540000Y-41910000D02*
X133350000Y-45720000D01*
X133350000Y-45720000D02*
X140970000Y-53340000D01*
X140970000Y-53340000D02*
X140970000Y-71120000D01*
X140970000Y-71120000D02*
X142240000Y-72390000D01*
%TO.N,/Analog Inputs/PA6*%
X109220000Y-44450000D02*
X110490000Y-44450000D01*
X113030000Y-41910000D02*
X118110000Y-41910000D01*
X110490000Y-44450000D02*
X113030000Y-41910000D01*
X153670000Y-87630000D02*
X147320000Y-87630000D01*
X141339980Y-81649980D02*
X147320000Y-87630000D01*
X139700000Y-80010000D02*
X141339980Y-81649980D01*
X128270000Y-41910000D02*
X139700000Y-53340000D01*
X139700000Y-53340000D02*
X139700000Y-80010000D01*
X118110000Y-41910000D02*
X128270000Y-41910000D01*
%TO.N,/Analog Inputs/PA7*%
X109220000Y-46990000D02*
X110490000Y-46990000D01*
X113030000Y-44450000D02*
X118110000Y-44450000D01*
X110490000Y-46990000D02*
X113030000Y-44450000D01*
X153670000Y-97790000D02*
X147320000Y-97790000D01*
X140889970Y-91359970D02*
X147320000Y-97790000D01*
X138430000Y-88900000D02*
X140889970Y-91359970D01*
X138430000Y-53340000D02*
X138430000Y-88900000D01*
X129540000Y-44450000D02*
X138430000Y-53340000D01*
X118110000Y-44450000D02*
X129540000Y-44450000D01*
%TO.N,Net-(D1-Pad2)*%
X50800000Y-34290000D02*
X52070000Y-35560000D01*
X48470000Y-34290000D02*
X50800000Y-34290000D01*
%TO.N,Net-(D1-Pad1)*%
X59055000Y-50803232D02*
X59055000Y-51230000D01*
X52070000Y-43818232D02*
X53020884Y-44769116D01*
X53020884Y-44769116D02*
X59055000Y-50803232D01*
X52701768Y-44450000D02*
X53020884Y-44769116D01*
%TO.N,Net-(D2-Pad2)*%
X45720000Y-34290000D02*
X48260000Y-36830000D01*
X55880000Y-36830000D02*
X57150000Y-35560000D01*
X48260000Y-36830000D02*
X55880000Y-36830000D01*
%TO.N,Net-(D2-Pad1)*%
X60325000Y-47625000D02*
X60325000Y-51230000D01*
X57150000Y-44450000D02*
X60325000Y-47625000D01*
%TO.N,STATUS*%
X78740000Y-81915000D02*
X74930000Y-85725000D01*
X78740000Y-81280000D02*
X78740000Y-81915000D01*
X82550000Y-81280000D02*
X93980000Y-69850000D01*
X78740000Y-81280000D02*
X82550000Y-81280000D01*
%TO.N,Net-(D7-Pad2)*%
X93345000Y-130810000D02*
X93345000Y-134620000D01*
%TO.N,/InputOutputPins/PC0*%
X140429999Y-144874999D02*
X141605000Y-146050000D01*
X140429999Y-124365001D02*
X140429999Y-144874999D01*
X141605000Y-123190000D02*
X140429999Y-124365001D01*
X140429999Y-167734999D02*
X141478000Y-168783000D01*
X140429999Y-147225001D02*
X140429999Y-167734999D01*
X141605000Y-146050000D02*
X140429999Y-147225001D01*
X140352999Y-190517999D02*
X141605000Y-191770000D01*
X140352999Y-169908001D02*
X140352999Y-190517999D01*
X141478000Y-168783000D02*
X140352999Y-169908001D01*
X93345000Y-213995000D02*
X92710000Y-213360000D01*
X140429999Y-212819999D02*
X141605000Y-213995000D01*
X140335000Y-212725000D02*
X140429999Y-212819999D01*
X140335000Y-193040000D02*
X140335000Y-212725000D01*
X141605000Y-191770000D02*
X140335000Y-193040000D01*
X92092999Y-211692999D02*
X92092999Y-194292001D01*
X93345000Y-212945000D02*
X92092999Y-211692999D01*
X93345000Y-213995000D02*
X93345000Y-212945000D01*
X93218000Y-193167000D02*
X93218000Y-191643000D01*
X92092999Y-194292001D02*
X93218000Y-193167000D01*
X107950000Y-76200000D02*
X109220000Y-74930000D01*
X107950000Y-84455000D02*
X107950000Y-76200000D01*
X125730000Y-102235000D02*
X107950000Y-84455000D01*
X125730000Y-102870000D02*
X125730000Y-102235000D01*
X125730000Y-107315000D02*
X141605000Y-123190000D01*
X125730000Y-102870000D02*
X125730000Y-107315000D01*
X92092999Y-189467999D02*
X92092999Y-171432001D01*
X93218000Y-190593000D02*
X92092999Y-189467999D01*
X93218000Y-191643000D02*
X93218000Y-190593000D01*
X93218000Y-170307000D02*
X93218000Y-168783000D01*
X92092999Y-171432001D02*
X93218000Y-170307000D01*
X92169999Y-166684999D02*
X92169999Y-148495001D01*
X93218000Y-167733000D02*
X92169999Y-166684999D01*
X93218000Y-168783000D02*
X93218000Y-167733000D01*
X93345000Y-147320000D02*
X93345000Y-146050000D01*
X92169999Y-148495001D02*
X93345000Y-147320000D01*
X93345000Y-146050000D02*
X93345000Y-144780000D01*
X93345000Y-144780000D02*
X92075000Y-143510000D01*
X92075000Y-143510000D02*
X92075000Y-125730000D01*
X93345000Y-124460000D02*
X93345000Y-123190000D01*
X92075000Y-125730000D02*
X93345000Y-124460000D01*
X120300000Y-86010000D02*
X109220000Y-74930000D01*
X123190000Y-86010000D02*
X120300000Y-86010000D01*
%TO.N,Net-(D8-Pad2)*%
X90805000Y-134620000D02*
X90805000Y-130810000D01*
%TO.N,/InputOutputPins/PC1*%
X139065000Y-213995000D02*
X138430000Y-213995000D01*
X137889999Y-144874999D02*
X139065000Y-146050000D01*
X137889999Y-124365001D02*
X137889999Y-144874999D01*
X139065000Y-123190000D02*
X137889999Y-124365001D01*
X137889999Y-167734999D02*
X138938000Y-168783000D01*
X138430000Y-158915998D02*
X137889999Y-159455999D01*
X138430000Y-158584002D02*
X138430000Y-158915998D01*
X137889999Y-158044001D02*
X138430000Y-158584002D01*
X137889999Y-147225001D02*
X137889999Y-158044001D01*
X137889999Y-159455999D02*
X137889999Y-167734999D01*
X139065000Y-146050000D02*
X137889999Y-147225001D01*
X137812999Y-190517999D02*
X139065000Y-191770000D01*
X137812999Y-169908001D02*
X137812999Y-190517999D01*
X138938000Y-168783000D02*
X137812999Y-169908001D01*
X137889999Y-212819999D02*
X139065000Y-213995000D01*
X137889999Y-192945001D02*
X137889999Y-212819999D01*
X139065000Y-191770000D02*
X137889999Y-192945001D01*
X90805000Y-213995000D02*
X90805000Y-213360000D01*
X90805000Y-213360000D02*
X89535000Y-212090000D01*
X89535000Y-212090000D02*
X89535000Y-194310000D01*
X90678000Y-193167000D02*
X90678000Y-191643000D01*
X89535000Y-194310000D02*
X90678000Y-193167000D01*
X107315000Y-74295000D02*
X109220000Y-72390000D01*
X107315000Y-85090000D02*
X107315000Y-74295000D01*
X124460000Y-102235000D02*
X107315000Y-85090000D01*
X124460000Y-102870000D02*
X124460000Y-102235000D01*
X124460000Y-108585000D02*
X139065000Y-123190000D01*
X124460000Y-102870000D02*
X124460000Y-108585000D01*
X89552999Y-189467999D02*
X89552999Y-171432001D01*
X90678000Y-190593000D02*
X89552999Y-189467999D01*
X90678000Y-191643000D02*
X90678000Y-190593000D01*
X90678000Y-170307000D02*
X90678000Y-168783000D01*
X89552999Y-171432001D02*
X90678000Y-170307000D01*
X89629999Y-166684999D02*
X89629999Y-148495001D01*
X90678000Y-167733000D02*
X89629999Y-166684999D01*
X90678000Y-168783000D02*
X90678000Y-167733000D01*
X90805000Y-147320000D02*
X90805000Y-146050000D01*
X89629999Y-148495001D02*
X90805000Y-147320000D01*
X90805000Y-146050000D02*
X90805000Y-144780000D01*
X90805000Y-144780000D02*
X89535000Y-143510000D01*
X89535000Y-143510000D02*
X89535000Y-125730000D01*
X90805000Y-124460000D02*
X90805000Y-123190000D01*
X89535000Y-125730000D02*
X90805000Y-124460000D01*
X121700000Y-72390000D02*
X123190000Y-73880000D01*
X123190000Y-73880000D02*
X123190000Y-74930000D01*
X109220000Y-72390000D02*
X121700000Y-72390000D01*
%TO.N,Net-(D9-Pad2)*%
X88265000Y-130810000D02*
X88265000Y-134620000D01*
%TO.N,/InputOutputPins/PC2*%
X135349999Y-192945001D02*
X136525000Y-191770000D01*
X135349999Y-212819999D02*
X135349999Y-192945001D01*
X136525000Y-213995000D02*
X135349999Y-212819999D01*
X135272999Y-169908001D02*
X136398000Y-168783000D01*
X135272999Y-190517999D02*
X135272999Y-169908001D01*
X136525000Y-191770000D02*
X135272999Y-190517999D01*
X135160001Y-147414999D02*
X136525000Y-146050000D01*
X135160001Y-167545001D02*
X135160001Y-147414999D01*
X136398000Y-168783000D02*
X135160001Y-167545001D01*
X135349999Y-144874999D02*
X136525000Y-146050000D01*
X135349999Y-124365001D02*
X135349999Y-144874999D01*
X136525000Y-123190000D02*
X135349999Y-124365001D01*
X87012999Y-211692999D02*
X87012999Y-194292001D01*
X88265000Y-212945000D02*
X87012999Y-211692999D01*
X88265000Y-213995000D02*
X88265000Y-212945000D01*
X88138000Y-193167000D02*
X88138000Y-191643000D01*
X87012999Y-194292001D02*
X88138000Y-193167000D01*
X106680000Y-72390000D02*
X109220000Y-69850000D01*
X106680000Y-85311668D02*
X106680000Y-72390000D01*
X123190000Y-101821668D02*
X106680000Y-85311668D01*
X123190000Y-102870000D02*
X123190000Y-101821668D01*
X123190000Y-109855000D02*
X136525000Y-123190000D01*
X123190000Y-102870000D02*
X123190000Y-109855000D01*
X88138000Y-190593000D02*
X87012999Y-189467999D01*
X87012999Y-189467999D02*
X87012999Y-171432001D01*
X88138000Y-191643000D02*
X88138000Y-190593000D01*
X88138000Y-170307000D02*
X88138000Y-168783000D01*
X87012999Y-171432001D02*
X88138000Y-170307000D01*
X87089999Y-166684999D02*
X87089999Y-148495001D01*
X88138000Y-167733000D02*
X87089999Y-166684999D01*
X88138000Y-168783000D02*
X88138000Y-167733000D01*
X88265000Y-147320000D02*
X88265000Y-146050000D01*
X87089999Y-148495001D02*
X88265000Y-147320000D01*
X88265000Y-145000000D02*
X86995000Y-143730000D01*
X88265000Y-146050000D02*
X88265000Y-145000000D01*
X87139999Y-131300001D02*
X87139999Y-125585001D01*
X86995000Y-131445000D02*
X87139999Y-131300001D01*
X86995000Y-143730000D02*
X86995000Y-131445000D01*
X88265000Y-124460000D02*
X88265000Y-123190000D01*
X87139999Y-125585001D02*
X88265000Y-124460000D01*
%TO.N,Net-(D10-Pad2)*%
X85725000Y-134620000D02*
X85725000Y-130810000D01*
%TO.N,/InputOutputPins/PC3*%
X132809999Y-144874999D02*
X133985000Y-146050000D01*
X132809999Y-124365001D02*
X132809999Y-144874999D01*
X133985000Y-123190000D02*
X132809999Y-124365001D01*
X132809999Y-167734999D02*
X133858000Y-168783000D01*
X132809999Y-147225001D02*
X132809999Y-167734999D01*
X133985000Y-146050000D02*
X132809999Y-147225001D01*
X132732999Y-190517999D02*
X133985000Y-191770000D01*
X132732999Y-169908001D02*
X132732999Y-190517999D01*
X133858000Y-168783000D02*
X132732999Y-169908001D01*
X132809999Y-212819999D02*
X133985000Y-213995000D01*
X132809999Y-192945001D02*
X132809999Y-212819999D01*
X133985000Y-191770000D02*
X132809999Y-192945001D01*
X85725000Y-213995000D02*
X85725000Y-213360000D01*
X84472999Y-212107999D02*
X84472999Y-194292001D01*
X85725000Y-213360000D02*
X84472999Y-212107999D01*
X85598000Y-193167000D02*
X85598000Y-191643000D01*
X84472999Y-194292001D02*
X85598000Y-193167000D01*
X106229991Y-70300009D02*
X108420001Y-68109999D01*
X106229991Y-85498069D02*
X106229991Y-70300009D01*
X121920000Y-101188078D02*
X106229991Y-85498069D01*
X108420001Y-68109999D02*
X109220000Y-67310000D01*
X121920000Y-102870000D02*
X121920000Y-101188078D01*
X121920000Y-111125000D02*
X133985000Y-123190000D01*
X121920000Y-102870000D02*
X121920000Y-111125000D01*
X84472999Y-189467999D02*
X84472999Y-171432001D01*
X85598000Y-190593000D02*
X84472999Y-189467999D01*
X85598000Y-191643000D02*
X85598000Y-190593000D01*
X85598000Y-170307000D02*
X85598000Y-168783000D01*
X84472999Y-171432001D02*
X85598000Y-170307000D01*
X85598000Y-167733000D02*
X84549999Y-166684999D01*
X84549999Y-166684999D02*
X84549999Y-148495001D01*
X85598000Y-168783000D02*
X85598000Y-167733000D01*
X85725000Y-147320000D02*
X85725000Y-146050000D01*
X84549999Y-148495001D02*
X85725000Y-147320000D01*
X85725000Y-145000000D02*
X84455000Y-143730000D01*
X85725000Y-146050000D02*
X85725000Y-145000000D01*
X84455000Y-143730000D02*
X84455000Y-125730000D01*
X85725000Y-124460000D02*
X85725000Y-123190000D01*
X84455000Y-125730000D02*
X85725000Y-124460000D01*
%TO.N,Net-(D11-Pad2)*%
X83185000Y-130810000D02*
X83185000Y-134620000D01*
%TO.N,/InputOutputPins/PC4*%
X130269999Y-144874999D02*
X131445000Y-146050000D01*
X130269999Y-124365001D02*
X130269999Y-144874999D01*
X131445000Y-123190000D02*
X130269999Y-124365001D01*
X130269999Y-167734999D02*
X131318000Y-168783000D01*
X130269999Y-147225001D02*
X130269999Y-167734999D01*
X131445000Y-146050000D02*
X130269999Y-147225001D01*
X130192999Y-190517999D02*
X131445000Y-191770000D01*
X130192999Y-169908001D02*
X130192999Y-190517999D01*
X131318000Y-168783000D02*
X130192999Y-169908001D01*
X130269999Y-212819999D02*
X131445000Y-213995000D01*
X130269999Y-192945001D02*
X130269999Y-212819999D01*
X131445000Y-191770000D02*
X130269999Y-192945001D01*
X81932999Y-211692999D02*
X81932999Y-194292001D01*
X83185000Y-212945000D02*
X81932999Y-211692999D01*
X83185000Y-213995000D02*
X83185000Y-212945000D01*
X83058000Y-193167000D02*
X83058000Y-191643000D01*
X81932999Y-194292001D02*
X83058000Y-193167000D01*
X108420001Y-65569999D02*
X109220000Y-64770000D01*
X105779981Y-68210019D02*
X108420001Y-65569999D01*
X105779981Y-85684469D02*
X105779981Y-68210019D01*
X120650000Y-100554488D02*
X105779981Y-85684469D01*
X120650000Y-102870000D02*
X120650000Y-100554488D01*
X120650000Y-112395000D02*
X131445000Y-123190000D01*
X120650000Y-102870000D02*
X120650000Y-112395000D01*
X81932999Y-189467999D02*
X81932999Y-171432001D01*
X83058000Y-190593000D02*
X81932999Y-189467999D01*
X83058000Y-191643000D02*
X83058000Y-190593000D01*
X83058000Y-170307000D02*
X83058000Y-168783000D01*
X81932999Y-171432001D02*
X83058000Y-170307000D01*
X82009999Y-166684999D02*
X82009999Y-148495001D01*
X83058000Y-167733000D02*
X82009999Y-166684999D01*
X83058000Y-168783000D02*
X83058000Y-167733000D01*
X83185000Y-147320000D02*
X83185000Y-146050000D01*
X82009999Y-148495001D02*
X83185000Y-147320000D01*
X83185000Y-124460000D02*
X83185000Y-123190000D01*
X82009999Y-125635001D02*
X83185000Y-124460000D01*
X82009999Y-144239999D02*
X82009999Y-125635001D01*
X83185000Y-145415000D02*
X82009999Y-144239999D01*
X83185000Y-146050000D02*
X83185000Y-145415000D01*
%TO.N,Net-(D12-Pad2)*%
X80645000Y-134620000D02*
X80645000Y-130810000D01*
%TO.N,/InputOutputPins/PC5*%
X127729999Y-192945001D02*
X128905000Y-191770000D01*
X127729999Y-212819999D02*
X127729999Y-192945001D01*
X128905000Y-213995000D02*
X127729999Y-212819999D01*
X127652999Y-169908001D02*
X128778000Y-168783000D01*
X127652999Y-190517999D02*
X127652999Y-169908001D01*
X128905000Y-191770000D02*
X127652999Y-190517999D01*
X127729999Y-147225001D02*
X128905000Y-146050000D01*
X127729999Y-167734999D02*
X127729999Y-147225001D01*
X128778000Y-168783000D02*
X127729999Y-167734999D01*
X127729999Y-124365001D02*
X128905000Y-123190000D01*
X127729999Y-144874999D02*
X127729999Y-124365001D01*
X128905000Y-146050000D02*
X127729999Y-144874999D01*
X80645000Y-213995000D02*
X80645000Y-213360000D01*
X80645000Y-213360000D02*
X79375000Y-212090000D01*
X79375000Y-212090000D02*
X79375000Y-194310000D01*
X80518000Y-193167000D02*
X80518000Y-191643000D01*
X79375000Y-194310000D02*
X80518000Y-193167000D01*
X119380000Y-99920898D02*
X108975247Y-89516145D01*
X119380000Y-102870000D02*
X119380000Y-99920898D01*
X108975247Y-89516145D02*
X109424551Y-89965449D01*
X108420001Y-63029999D02*
X109220000Y-62230000D01*
X105329971Y-66120029D02*
X108420001Y-63029999D01*
X105329971Y-85870869D02*
X105329971Y-66120029D01*
X108975247Y-89516145D02*
X105329971Y-85870869D01*
X119380000Y-113665000D02*
X128905000Y-123190000D01*
X119380000Y-102870000D02*
X119380000Y-113665000D01*
X79392999Y-189467999D02*
X79392999Y-171432001D01*
X80518000Y-190593000D02*
X79392999Y-189467999D01*
X80518000Y-191643000D02*
X80518000Y-190593000D01*
X80518000Y-170307000D02*
X80518000Y-168783000D01*
X79392999Y-171432001D02*
X80518000Y-170307000D01*
X79469999Y-166684999D02*
X79469999Y-148495001D01*
X80518000Y-167733000D02*
X79469999Y-166684999D01*
X80518000Y-168783000D02*
X80518000Y-167733000D01*
X80645000Y-147320000D02*
X80645000Y-146050000D01*
X79469999Y-148495001D02*
X80645000Y-147320000D01*
X80645000Y-146050000D02*
X80645000Y-145000000D01*
X79469999Y-143824999D02*
X79469999Y-125635001D01*
X80645000Y-145000000D02*
X79469999Y-143824999D01*
X80645000Y-124460000D02*
X80645000Y-123190000D01*
X79469999Y-125635001D02*
X80645000Y-124460000D01*
%TO.N,Net-(D13-Pad2)*%
X78105000Y-130810000D02*
X78105000Y-134620000D01*
%TO.N,/InputOutputPins/PC6*%
X125189999Y-124365001D02*
X125189999Y-144874999D01*
X125189999Y-144874999D02*
X126365000Y-146050000D01*
X126365000Y-123190000D02*
X125189999Y-124365001D01*
X125189999Y-167734999D02*
X126238000Y-168783000D01*
X125189999Y-147225001D02*
X125189999Y-167734999D01*
X126365000Y-146050000D02*
X125189999Y-147225001D01*
X125112999Y-190517999D02*
X126365000Y-191770000D01*
X125112999Y-169908001D02*
X125112999Y-190517999D01*
X126238000Y-168783000D02*
X125112999Y-169908001D01*
X125189999Y-212819999D02*
X126365000Y-213995000D01*
X125189999Y-192945001D02*
X125189999Y-212819999D01*
X126365000Y-191770000D02*
X125189999Y-192945001D01*
X78105000Y-213995000D02*
X78105000Y-213360000D01*
X76852999Y-212107999D02*
X76852999Y-194292001D01*
X78105000Y-213360000D02*
X76852999Y-212107999D01*
X77978000Y-193167000D02*
X77978000Y-191643000D01*
X76852999Y-194292001D02*
X77978000Y-193167000D01*
X108420001Y-60489999D02*
X109220000Y-59690000D01*
X104879961Y-64030039D02*
X108420001Y-60489999D01*
X104879961Y-86057269D02*
X104879961Y-64030039D01*
X118110000Y-99287308D02*
X104879961Y-86057269D01*
X118110000Y-102870000D02*
X118110000Y-99287308D01*
X118110000Y-114935000D02*
X126365000Y-123190000D01*
X118110000Y-102870000D02*
X118110000Y-114935000D01*
X76852999Y-189467999D02*
X76852999Y-171432001D01*
X77978000Y-190593000D02*
X76852999Y-189467999D01*
X77978000Y-191643000D02*
X77978000Y-190593000D01*
X77978000Y-170307000D02*
X77978000Y-168783000D01*
X76852999Y-171432001D02*
X77978000Y-170307000D01*
X76929999Y-166684999D02*
X76929999Y-148495001D01*
X77978000Y-167733000D02*
X76929999Y-166684999D01*
X77978000Y-168783000D02*
X77978000Y-167733000D01*
X78105000Y-147320000D02*
X78105000Y-146050000D01*
X76929999Y-148495001D02*
X78105000Y-147320000D01*
X78105000Y-146050000D02*
X78105000Y-145000000D01*
X76929999Y-143824999D02*
X76929999Y-125635001D01*
X78105000Y-145000000D02*
X76929999Y-143824999D01*
X78105000Y-124460000D02*
X78105000Y-123190000D01*
X76929999Y-125635001D02*
X78105000Y-124460000D01*
%TO.N,Net-(D14-Pad2)*%
X75565000Y-134620000D02*
X75565000Y-130810000D01*
%TO.N,/InputOutputPins/PC7*%
X122649999Y-192945001D02*
X123825000Y-191770000D01*
X122649999Y-212819999D02*
X122649999Y-192945001D01*
X123825000Y-213995000D02*
X122649999Y-212819999D01*
X122572999Y-169908001D02*
X123698000Y-168783000D01*
X122572999Y-190517999D02*
X122572999Y-169908001D01*
X123825000Y-191770000D02*
X122572999Y-190517999D01*
X122649999Y-147225001D02*
X123825000Y-146050000D01*
X122649999Y-167734999D02*
X122649999Y-147225001D01*
X123698000Y-168783000D02*
X122649999Y-167734999D01*
X122649999Y-124365001D02*
X123825000Y-123190000D01*
X122649999Y-144874999D02*
X122649999Y-124365001D01*
X123825000Y-146050000D02*
X122649999Y-144874999D01*
X75565000Y-213995000D02*
X75565000Y-213360000D01*
X74312999Y-212107999D02*
X74312999Y-194292001D01*
X75565000Y-213360000D02*
X74312999Y-212107999D01*
X75438000Y-193167000D02*
X75438000Y-191643000D01*
X74312999Y-194292001D02*
X75438000Y-193167000D01*
X108420001Y-57949999D02*
X109220000Y-57150000D01*
X104429951Y-61940049D02*
X108420001Y-57949999D01*
X104429951Y-86243669D02*
X104429951Y-61940049D01*
X116840000Y-98653718D02*
X104429951Y-86243669D01*
X116840000Y-102870000D02*
X116840000Y-98653718D01*
X116840000Y-103435685D02*
X116840000Y-102870000D01*
X116840000Y-115155000D02*
X116840000Y-103435685D01*
X123825000Y-122140000D02*
X116840000Y-115155000D01*
X123825000Y-123190000D02*
X123825000Y-122140000D01*
X74312999Y-189467999D02*
X74312999Y-171432001D01*
X75438000Y-190593000D02*
X74312999Y-189467999D01*
X75438000Y-191643000D02*
X75438000Y-190593000D01*
X75438000Y-170307000D02*
X75438000Y-168783000D01*
X74312999Y-171432001D02*
X75438000Y-170307000D01*
X74389999Y-166684999D02*
X74389999Y-148495001D01*
X75438000Y-167733000D02*
X74389999Y-166684999D01*
X75438000Y-168783000D02*
X75438000Y-167733000D01*
X75565000Y-147320000D02*
X75565000Y-146050000D01*
X74389999Y-148495001D02*
X75565000Y-147320000D01*
X74389999Y-143824999D02*
X74389999Y-125635001D01*
X75565000Y-145000000D02*
X74389999Y-143824999D01*
X75565000Y-146050000D02*
X75565000Y-145000000D01*
X75565000Y-124460000D02*
X75565000Y-123190000D01*
X74389999Y-125635001D02*
X75565000Y-124460000D01*
%TO.N,Net-(D15-Pad2)*%
X141605000Y-130810000D02*
X141605000Y-134620000D01*
%TO.N,Net-(D16-Pad2)*%
X139065000Y-134620000D02*
X139065000Y-130810000D01*
%TO.N,Net-(D17-Pad2)*%
X136525000Y-130810000D02*
X136525000Y-134620000D01*
%TO.N,Net-(D18-Pad2)*%
X133985000Y-134620000D02*
X133985000Y-130810000D01*
%TO.N,Net-(D19-Pad2)*%
X131445000Y-130810000D02*
X131445000Y-134620000D01*
%TO.N,Net-(D20-Pad2)*%
X128905000Y-134620000D02*
X128905000Y-132080000D01*
X128905000Y-132080000D02*
X128905000Y-130810000D01*
%TO.N,Net-(D21-Pad2)*%
X126365000Y-130810000D02*
X126365000Y-134620000D01*
%TO.N,Net-(D22-Pad2)*%
X123825000Y-130810000D02*
X123825000Y-134620000D01*
%TO.N,Net-(D23-Pad2)*%
X93345000Y-157480000D02*
X93345000Y-153670000D01*
%TO.N,Net-(D24-Pad2)*%
X90805000Y-153670000D02*
X90805000Y-157480000D01*
%TO.N,Net-(D25-Pad2)*%
X88265000Y-157480000D02*
X88265000Y-153670000D01*
%TO.N,Net-(D26-Pad2)*%
X85725000Y-153670000D02*
X85725000Y-157480000D01*
%TO.N,Net-(D27-Pad2)*%
X83185000Y-157480000D02*
X83185000Y-153670000D01*
%TO.N,Net-(D28-Pad2)*%
X80645000Y-153670000D02*
X80645000Y-157480000D01*
%TO.N,Net-(D29-Pad2)*%
X78105000Y-157480000D02*
X78105000Y-153670000D01*
%TO.N,Net-(D30-Pad2)*%
X75565000Y-153670000D02*
X75565000Y-157480000D01*
%TO.N,Net-(D31-Pad2)*%
X141605000Y-153670000D02*
X141605000Y-157480000D01*
%TO.N,Net-(D32-Pad2)*%
X139065000Y-157480000D02*
X139065000Y-153670000D01*
%TO.N,Net-(D33-Pad2)*%
X136525000Y-153670000D02*
X136525000Y-157480000D01*
%TO.N,Net-(D34-Pad2)*%
X133985000Y-157480000D02*
X133985000Y-153670000D01*
%TO.N,Net-(D35-Pad2)*%
X131445000Y-153670000D02*
X131445000Y-157480000D01*
%TO.N,Net-(D36-Pad2)*%
X128905000Y-157480000D02*
X128905000Y-153670000D01*
%TO.N,Net-(D37-Pad2)*%
X126365000Y-153670000D02*
X126365000Y-157480000D01*
%TO.N,Net-(D38-Pad2)*%
X123825000Y-157480000D02*
X123825000Y-154940000D01*
X123825000Y-154940000D02*
X123825000Y-153670000D01*
%TO.N,Net-(D39-Pad2)*%
X93345000Y-176530000D02*
X93218000Y-176403000D01*
X93345000Y-180340000D02*
X93345000Y-176530000D01*
%TO.N,Net-(D40-Pad2)*%
X90678000Y-180213000D02*
X90805000Y-180340000D01*
X90678000Y-176403000D02*
X90678000Y-180213000D01*
%TO.N,Net-(D41-Pad2)*%
X88265000Y-176530000D02*
X88138000Y-176403000D01*
X88265000Y-180340000D02*
X88265000Y-176530000D01*
%TO.N,Net-(D42-Pad2)*%
X85598000Y-180213000D02*
X85725000Y-180340000D01*
X85598000Y-176403000D02*
X85598000Y-180213000D01*
%TO.N,Net-(D43-Pad2)*%
X83185000Y-176530000D02*
X83058000Y-176403000D01*
X83185000Y-180340000D02*
X83185000Y-176530000D01*
%TO.N,Net-(D44-Pad2)*%
X80518000Y-180213000D02*
X80645000Y-180340000D01*
X80518000Y-176403000D02*
X80518000Y-180213000D01*
%TO.N,Net-(D45-Pad2)*%
X78105000Y-176530000D02*
X77978000Y-176403000D01*
X78105000Y-180340000D02*
X78105000Y-176530000D01*
%TO.N,Net-(D46-Pad2)*%
X75438000Y-176403000D02*
X75438000Y-178943000D01*
X75565000Y-179070000D02*
X75565000Y-180340000D01*
X75438000Y-178943000D02*
X75565000Y-179070000D01*
%TO.N,Net-(D47-Pad2)*%
X141478000Y-180213000D02*
X141605000Y-180340000D01*
X141478000Y-176403000D02*
X141478000Y-180213000D01*
%TO.N,Net-(D48-Pad2)*%
X139065000Y-176530000D02*
X138938000Y-176403000D01*
X139065000Y-180340000D02*
X139065000Y-176530000D01*
%TO.N,Net-(D49-Pad2)*%
X136398000Y-180213000D02*
X136525000Y-180340000D01*
X136398000Y-176403000D02*
X136398000Y-180213000D01*
%TO.N,Net-(D50-Pad2)*%
X133985000Y-176530000D02*
X133858000Y-176403000D01*
X133985000Y-180340000D02*
X133985000Y-176530000D01*
%TO.N,Net-(D51-Pad2)*%
X131318000Y-180213000D02*
X131445000Y-180340000D01*
X131318000Y-176403000D02*
X131318000Y-180213000D01*
%TO.N,Net-(D52-Pad2)*%
X128905000Y-176530000D02*
X128778000Y-176403000D01*
X128905000Y-180340000D02*
X128905000Y-176530000D01*
%TO.N,Net-(D53-Pad2)*%
X126238000Y-180213000D02*
X126365000Y-180340000D01*
X126238000Y-176403000D02*
X126238000Y-180213000D01*
%TO.N,Net-(D54-Pad2)*%
X123698000Y-180213000D02*
X123825000Y-180340000D01*
X123698000Y-176403000D02*
X123698000Y-180213000D01*
%TO.N,Net-(D55-Pad2)*%
X93345000Y-199390000D02*
X93218000Y-199263000D01*
X93345000Y-203200000D02*
X93345000Y-199390000D01*
%TO.N,Net-(D56-Pad2)*%
X90678000Y-203073000D02*
X90805000Y-203200000D01*
X90678000Y-199263000D02*
X90678000Y-203073000D01*
%TO.N,Net-(D57-Pad2)*%
X88265000Y-199390000D02*
X88138000Y-199263000D01*
X88265000Y-203200000D02*
X88265000Y-199390000D01*
%TO.N,Net-(D58-Pad2)*%
X85598000Y-203073000D02*
X85725000Y-203200000D01*
X85598000Y-199263000D02*
X85598000Y-203073000D01*
%TO.N,Net-(D59-Pad2)*%
X83185000Y-199390000D02*
X83058000Y-199263000D01*
X83185000Y-203200000D02*
X83185000Y-199390000D01*
%TO.N,Net-(D60-Pad2)*%
X80518000Y-203073000D02*
X80645000Y-203200000D01*
X80518000Y-199263000D02*
X80518000Y-203073000D01*
%TO.N,Net-(D61-Pad2)*%
X78105000Y-199390000D02*
X77978000Y-199263000D01*
X78105000Y-203200000D02*
X78105000Y-199390000D01*
%TO.N,Net-(D62-Pad2)*%
X75438000Y-203073000D02*
X75565000Y-203200000D01*
X75438000Y-199263000D02*
X75438000Y-203073000D01*
%TO.N,Net-(D63-Pad2)*%
X141605000Y-199390000D02*
X141605000Y-203200000D01*
%TO.N,Net-(D64-Pad2)*%
X139065000Y-203200000D02*
X139065000Y-199390000D01*
%TO.N,Net-(D65-Pad2)*%
X136525000Y-199390000D02*
X136525000Y-203200000D01*
%TO.N,Net-(D66-Pad2)*%
X133985000Y-203200000D02*
X133985000Y-199390000D01*
%TO.N,Net-(D67-Pad2)*%
X131445000Y-199390000D02*
X131445000Y-203200000D01*
%TO.N,Net-(D68-Pad2)*%
X128905000Y-203200000D02*
X128905000Y-199390000D01*
%TO.N,Net-(D69-Pad2)*%
X126365000Y-199390000D02*
X126365000Y-203200000D01*
%TO.N,Net-(D70-Pad2)*%
X123825000Y-199390000D02*
X123825000Y-203200000D01*
%TO.N,Net-(D71-Pad2)*%
X93345000Y-226060000D02*
X93345000Y-221615000D01*
%TO.N,Net-(D72-Pad2)*%
X90805000Y-221615000D02*
X90805000Y-226060000D01*
%TO.N,Net-(D73-Pad2)*%
X88265000Y-226060000D02*
X88265000Y-221615000D01*
%TO.N,Net-(D74-Pad2)*%
X85725000Y-221615000D02*
X85725000Y-226060000D01*
%TO.N,Net-(D75-Pad2)*%
X83185000Y-226060000D02*
X83185000Y-221615000D01*
%TO.N,Net-(D76-Pad2)*%
X80645000Y-221615000D02*
X80645000Y-226060000D01*
%TO.N,Net-(D77-Pad2)*%
X78105000Y-226060000D02*
X78105000Y-221615000D01*
%TO.N,Net-(D78-Pad2)*%
X75565000Y-221615000D02*
X75565000Y-226060000D01*
%TO.N,Net-(D79-Pad2)*%
X141605000Y-226060000D02*
X141605000Y-221615000D01*
%TO.N,Net-(D80-Pad2)*%
X139065000Y-221615000D02*
X139065000Y-226060000D01*
%TO.N,Net-(D81-Pad2)*%
X136525000Y-226060000D02*
X136525000Y-221615000D01*
%TO.N,Net-(D82-Pad2)*%
X133985000Y-221615000D02*
X133985000Y-226060000D01*
%TO.N,Net-(D83-Pad2)*%
X131445000Y-226060000D02*
X131445000Y-221615000D01*
%TO.N,Net-(D84-Pad2)*%
X128905000Y-221615000D02*
X128905000Y-226060000D01*
%TO.N,Net-(D85-Pad2)*%
X126365000Y-226060000D02*
X126365000Y-221615000D01*
%TO.N,Net-(D86-Pad2)*%
X123825000Y-221615000D02*
X123825000Y-226060000D01*
%TO.N,Net-(J1-Pad3)*%
X42450000Y-64810000D02*
X43680000Y-66040000D01*
X43680000Y-66040000D02*
X59690000Y-66040000D01*
X64135000Y-61595000D02*
X64135000Y-60530000D01*
X59690000Y-66040000D02*
X64135000Y-61595000D01*
%TO.N,Net-(J1-Pad2)*%
X59610000Y-64810000D02*
X62865000Y-61555000D01*
X62865000Y-61555000D02*
X62865000Y-60530000D01*
X44450000Y-64810000D02*
X59610000Y-64810000D01*
%TO.N,Net-(J2-Pad5)*%
X92710000Y-48260000D02*
X93980000Y-49530000D01*
X86360000Y-48260000D02*
X92710000Y-48260000D01*
%TO.N,/InputOutputPins/PB5*%
X55339999Y-144874999D02*
X56515000Y-146050000D01*
X55339999Y-124365001D02*
X55339999Y-144874999D01*
X56515000Y-123190000D02*
X55339999Y-124365001D01*
X55339999Y-167480999D02*
X56642000Y-168783000D01*
X55339999Y-147225001D02*
X55339999Y-167480999D01*
X56515000Y-146050000D02*
X55339999Y-147225001D01*
X55339999Y-190340999D02*
X56642000Y-191643000D01*
X55339999Y-170085001D02*
X55339999Y-190340999D01*
X56642000Y-168783000D02*
X55339999Y-170085001D01*
X55339999Y-212819999D02*
X56515000Y-213995000D01*
X55339999Y-192945001D02*
X55339999Y-212819999D01*
X56642000Y-191643000D02*
X55339999Y-192945001D01*
X103599999Y-144874999D02*
X104075001Y-145350001D01*
X104075001Y-145350001D02*
X104775000Y-146050000D01*
X103599999Y-124365001D02*
X103599999Y-144874999D01*
X104775000Y-123190000D02*
X103599999Y-124365001D01*
X104202001Y-168083001D02*
X104902000Y-168783000D01*
X103599999Y-167480999D02*
X104202001Y-168083001D01*
X103599999Y-147225001D02*
X103599999Y-167480999D01*
X104775000Y-146050000D02*
X103599999Y-147225001D01*
X104075001Y-191070001D02*
X104775000Y-191770000D01*
X103599999Y-190594999D02*
X104075001Y-191070001D01*
X103599999Y-182315999D02*
X103599999Y-190594999D01*
X104140000Y-181775998D02*
X103599999Y-182315999D01*
X104140000Y-181610000D02*
X104140000Y-181775998D01*
X103599999Y-181069999D02*
X104140000Y-181610000D01*
X103599999Y-170085001D02*
X103599999Y-181069999D01*
X104902000Y-168783000D02*
X103599999Y-170085001D01*
X104075001Y-213295001D02*
X104775000Y-213995000D01*
X103599999Y-212819999D02*
X104075001Y-213295001D01*
X103599999Y-193934950D02*
X103599999Y-212819999D01*
X104775000Y-192759949D02*
X103599999Y-193934950D01*
X104775000Y-191770000D02*
X104775000Y-192759949D01*
X96520000Y-44450000D02*
X93980000Y-41910000D01*
X96520000Y-82152178D02*
X96520000Y-44450000D01*
X106680000Y-92312178D02*
X96520000Y-82152178D01*
X106680000Y-102870000D02*
X106680000Y-92312178D01*
X106680000Y-121285000D02*
X104775000Y-123190000D01*
X106680000Y-102870000D02*
X106680000Y-121285000D01*
%TO.N,/InputOutputPins/PB7*%
X89533590Y-46990000D02*
X93980000Y-46990000D01*
X71848589Y-29304999D02*
X89533590Y-46990000D01*
X68674999Y-29304999D02*
X71848589Y-29304999D01*
X67310000Y-27940000D02*
X68674999Y-29304999D01*
X50259999Y-144874999D02*
X51435000Y-146050000D01*
X50259999Y-124365001D02*
X50259999Y-144874999D01*
X51435000Y-123190000D02*
X50259999Y-124365001D01*
X50259999Y-167480999D02*
X51562000Y-168783000D01*
X50259999Y-147225001D02*
X50259999Y-167480999D01*
X51435000Y-146050000D02*
X50259999Y-147225001D01*
X50259999Y-190340999D02*
X51562000Y-191643000D01*
X50259999Y-170085001D02*
X50259999Y-190340999D01*
X51562000Y-168783000D02*
X50259999Y-170085001D01*
X50259999Y-192945001D02*
X51562000Y-191643000D01*
X50259999Y-212819999D02*
X50259999Y-192945001D01*
X51435000Y-213995000D02*
X50259999Y-212819999D01*
X98995001Y-192469999D02*
X99695000Y-191770000D01*
X98519999Y-192945001D02*
X98995001Y-192469999D01*
X98519999Y-212819999D02*
X98519999Y-192945001D01*
X99695000Y-213995000D02*
X98519999Y-212819999D01*
X99122001Y-169482999D02*
X99822000Y-168783000D01*
X98519999Y-170085001D02*
X99122001Y-169482999D01*
X98519999Y-189605050D02*
X98519999Y-170085001D01*
X99695000Y-190780051D02*
X98519999Y-189605050D01*
X99695000Y-191770000D02*
X99695000Y-190780051D01*
X99122001Y-168083001D02*
X99822000Y-168783000D01*
X98519999Y-167480999D02*
X99122001Y-168083001D01*
X98519999Y-147225001D02*
X98519999Y-167480999D01*
X99695000Y-146050000D02*
X98519999Y-147225001D01*
X98519999Y-144874999D02*
X98995001Y-145350001D01*
X98519999Y-124365001D02*
X98519999Y-144874999D01*
X98995001Y-145350001D02*
X99695000Y-146050000D01*
X99695000Y-123190000D02*
X98519999Y-124365001D01*
X95555011Y-48565011D02*
X93980000Y-46990000D01*
X104140000Y-91044998D02*
X95555011Y-82460009D01*
X95555011Y-82460009D02*
X95555011Y-48565011D01*
X104140000Y-102870000D02*
X104140000Y-91044998D01*
X104140000Y-118745000D02*
X99695000Y-123190000D01*
X104140000Y-102870000D02*
X104140000Y-118745000D01*
%TO.N,/InputOutputPins/PB6*%
X69850000Y-27940000D02*
X71120000Y-27940000D01*
X87630000Y-44450000D02*
X93980000Y-44450000D01*
X71120000Y-27940000D02*
X87630000Y-44450000D01*
X52799999Y-170085001D02*
X54102000Y-168783000D01*
X52799999Y-190340999D02*
X52799999Y-170085001D01*
X54102000Y-191643000D02*
X52799999Y-190340999D01*
X52799999Y-167480999D02*
X52799999Y-147225001D01*
X52799999Y-147225001D02*
X53975000Y-146050000D01*
X54102000Y-168783000D02*
X52799999Y-167480999D01*
X52799999Y-124365001D02*
X53975000Y-123190000D01*
X52799999Y-144874999D02*
X52799999Y-124365001D01*
X53975000Y-146050000D02*
X52799999Y-144874999D01*
X52799999Y-212819999D02*
X53975000Y-213995000D01*
X52799999Y-192945001D02*
X52799999Y-212819999D01*
X54102000Y-191643000D02*
X52799999Y-192945001D01*
X101059999Y-212819999D02*
X101535001Y-213295001D01*
X101059999Y-192945001D02*
X101059999Y-212819999D01*
X101535001Y-213295001D02*
X102235000Y-213995000D01*
X102235000Y-191770000D02*
X101059999Y-192945001D01*
X101535001Y-191070001D02*
X102235000Y-191770000D01*
X101059999Y-190594999D02*
X101535001Y-191070001D01*
X101059999Y-170085001D02*
X101059999Y-190594999D01*
X102362000Y-168783000D02*
X101059999Y-170085001D01*
X101535001Y-146749999D02*
X102235000Y-146050000D01*
X101059999Y-147225001D02*
X101535001Y-146749999D01*
X101059999Y-167480999D02*
X101059999Y-147225001D01*
X102362000Y-168783000D02*
X101059999Y-167480999D01*
X101535001Y-123889999D02*
X102235000Y-123190000D01*
X101059999Y-124365001D02*
X101535001Y-123889999D01*
X101059999Y-144874999D02*
X101059999Y-124365001D01*
X102235000Y-146050000D02*
X101059999Y-144874999D01*
X105410000Y-91678588D02*
X105410000Y-102870000D01*
X96005021Y-82273609D02*
X105410000Y-91678588D01*
X96005021Y-46475021D02*
X96005021Y-82273609D01*
X93980000Y-44450000D02*
X96005021Y-46475021D01*
X105410000Y-120015000D02*
X102235000Y-123190000D01*
X105410000Y-102870000D02*
X105410000Y-120015000D01*
%TO.N,Net-(J24-Pad2)*%
X163670000Y-26670000D02*
X168910000Y-26670000D01*
X168910000Y-26670000D02*
X170180000Y-26670000D01*
%TO.N,Net-(J25-Pad2)*%
X163670000Y-36830000D02*
X170180000Y-36830000D01*
%TO.N,Net-(J26-Pad2)*%
X163670000Y-46990000D02*
X170180000Y-46990000D01*
%TO.N,Net-(J27-Pad2)*%
X170180000Y-57150000D02*
X163670000Y-57150000D01*
%TO.N,Net-(J28-Pad2)*%
X170180000Y-67310000D02*
X163670000Y-67310000D01*
%TO.N,Net-(J29-Pad2)*%
X170180000Y-77470000D02*
X163670000Y-77470000D01*
%TO.N,Net-(J30-Pad2)*%
X170180000Y-87630000D02*
X163670000Y-87630000D01*
%TO.N,Net-(J31-Pad2)*%
X170180000Y-97790000D02*
X163670000Y-97790000D01*
%TO.N,/InputOutputPins/PB0*%
X67850001Y-144685001D02*
X69215000Y-146050000D01*
X67850001Y-124554999D02*
X67850001Y-144685001D01*
X69215000Y-123190000D02*
X67850001Y-124554999D01*
X67850001Y-167545001D02*
X69215000Y-168910000D01*
X67850001Y-147414999D02*
X67850001Y-167545001D01*
X69215000Y-146050000D02*
X67850001Y-147414999D01*
X68039999Y-190340999D02*
X69342000Y-191643000D01*
X68039999Y-170085001D02*
X68039999Y-190340999D01*
X69215000Y-168910000D02*
X68039999Y-170085001D01*
X68039999Y-212819999D02*
X69215000Y-213995000D01*
X68039999Y-192945001D02*
X68039999Y-212819999D01*
X69342000Y-191643000D02*
X68039999Y-192945001D01*
X116775001Y-192469999D02*
X117475000Y-191770000D01*
X116299999Y-192945001D02*
X116775001Y-192469999D01*
X116299999Y-212819999D02*
X116299999Y-192945001D01*
X117475000Y-213995000D02*
X116299999Y-212819999D01*
X116902001Y-169482999D02*
X117602000Y-168783000D01*
X116299999Y-170085001D02*
X116902001Y-169482999D01*
X116299999Y-190594999D02*
X116299999Y-170085001D01*
X117475000Y-191770000D02*
X116299999Y-190594999D01*
X116775001Y-146749999D02*
X117475000Y-146050000D01*
X116299999Y-147225001D02*
X116775001Y-146749999D01*
X116299999Y-167480999D02*
X116299999Y-147225001D01*
X117602000Y-168783000D02*
X116299999Y-167480999D01*
X116775001Y-123889999D02*
X117475000Y-123190000D01*
X116299999Y-124365001D02*
X116775001Y-123889999D01*
X116299999Y-144874999D02*
X116299999Y-124365001D01*
X117475000Y-146050000D02*
X116299999Y-144874999D01*
X113030000Y-95480128D02*
X113030000Y-102870000D01*
X98875010Y-81325138D02*
X113030000Y-95480128D01*
X98875010Y-34105010D02*
X98875010Y-81325138D01*
X93980000Y-29210000D02*
X98875010Y-34105010D01*
X113030000Y-118745000D02*
X117475000Y-123190000D01*
X113030000Y-102870000D02*
X113030000Y-118745000D01*
%TO.N,/InputOutputPins/PB1*%
X65499999Y-144874999D02*
X66675000Y-146050000D01*
X65499999Y-124365001D02*
X65499999Y-144874999D01*
X66675000Y-123190000D02*
X65499999Y-124365001D01*
X65499999Y-167734999D02*
X66675000Y-168910000D01*
X65499999Y-147225001D02*
X65499999Y-167734999D01*
X66675000Y-146050000D02*
X65499999Y-147225001D01*
X65310001Y-190151001D02*
X66802000Y-191643000D01*
X65310001Y-170274999D02*
X65310001Y-190151001D01*
X66675000Y-168910000D02*
X65310001Y-170274999D01*
X65499999Y-192945001D02*
X66802000Y-191643000D01*
X65499999Y-212819999D02*
X65499999Y-192945001D01*
X66675000Y-213995000D02*
X65499999Y-212819999D01*
X93980000Y-31750000D02*
X98425000Y-36195000D01*
X114235001Y-145350001D02*
X114935000Y-146050000D01*
X113570001Y-144685001D02*
X114235001Y-145350001D01*
X113570001Y-125544948D02*
X113570001Y-144685001D01*
X114935000Y-124179949D02*
X113570001Y-125544948D01*
X114935000Y-123190000D02*
X114935000Y-124179949D01*
X113759999Y-167480999D02*
X114362001Y-168083001D01*
X113759999Y-147225001D02*
X113759999Y-167480999D01*
X114362001Y-168083001D02*
X115062000Y-168783000D01*
X114935000Y-146050000D02*
X113759999Y-147225001D01*
X114235001Y-213295001D02*
X114935000Y-213995000D01*
X113570001Y-212630001D02*
X114235001Y-213295001D01*
X113570001Y-193134999D02*
X113570001Y-212630001D01*
X114935000Y-191770000D02*
X113570001Y-193134999D01*
X113759999Y-190594999D02*
X114235001Y-191070001D01*
X114235001Y-191070001D02*
X114935000Y-191770000D01*
X113759999Y-170085001D02*
X113759999Y-190594999D01*
X115062000Y-168783000D02*
X113759999Y-170085001D01*
X111760000Y-102870000D02*
X111760000Y-94846538D01*
X111760000Y-94846538D02*
X98425000Y-81511538D01*
X111760000Y-120015000D02*
X114935000Y-123190000D01*
X111760000Y-102870000D02*
X111760000Y-120015000D01*
X98425000Y-74930000D02*
X98425000Y-71755000D01*
X98425000Y-71755000D02*
X98425000Y-72897929D01*
X98425000Y-36195000D02*
X98425000Y-71755000D01*
X98425000Y-81511538D02*
X98425000Y-74930000D01*
X98425000Y-74930000D02*
X98425000Y-73025000D01*
%TO.N,/InputOutputPins/PB2*%
X62959999Y-170085001D02*
X64135000Y-168910000D01*
X62959999Y-190340999D02*
X62959999Y-170085001D01*
X64262000Y-191643000D02*
X62959999Y-190340999D01*
X62959999Y-147225001D02*
X64135000Y-146050000D01*
X62959999Y-167734999D02*
X62959999Y-147225001D01*
X64135000Y-168910000D02*
X62959999Y-167734999D01*
X62959999Y-124365001D02*
X64135000Y-123190000D01*
X62959999Y-144874999D02*
X62959999Y-124365001D01*
X64135000Y-146050000D02*
X62959999Y-144874999D01*
X62959999Y-212819999D02*
X64135000Y-213995000D01*
X62959999Y-192945001D02*
X62959999Y-212819999D01*
X64262000Y-191643000D02*
X62959999Y-192945001D01*
X111695001Y-192469999D02*
X112395000Y-191770000D01*
X111219999Y-192945001D02*
X111695001Y-192469999D01*
X111219999Y-212819999D02*
X111219999Y-192945001D01*
X112395000Y-213995000D02*
X111219999Y-212819999D01*
X111219999Y-189605050D02*
X111219999Y-170085001D01*
X111219999Y-147225001D02*
X111695001Y-146749999D01*
X111219999Y-167480999D02*
X111219999Y-147225001D01*
X111695001Y-146749999D02*
X112395000Y-146050000D01*
X112522000Y-168783000D02*
X111219999Y-167480999D01*
X111219999Y-124365001D02*
X111695001Y-123889999D01*
X111695001Y-123889999D02*
X112395000Y-123190000D01*
X111219999Y-144874999D02*
X111219999Y-124365001D01*
X112395000Y-146050000D02*
X111219999Y-144874999D01*
X112395000Y-191770000D02*
X111760000Y-191135000D01*
X111822001Y-169482999D02*
X112522000Y-168783000D01*
X111219999Y-170085001D02*
X111822001Y-169482999D01*
X111219999Y-190594999D02*
X111219999Y-170085001D01*
X111760000Y-191135000D02*
X111219999Y-190594999D01*
X110490000Y-94212948D02*
X110490000Y-102870000D01*
X97870028Y-81592976D02*
X110490000Y-94212948D01*
X97870028Y-38180028D02*
X97870028Y-81592976D01*
X93980000Y-34290000D02*
X97870028Y-38180028D01*
X110490000Y-121285000D02*
X112395000Y-123190000D01*
X110490000Y-102870000D02*
X110490000Y-121285000D01*
%TO.N,/InputOutputPins/PB3*%
X60230001Y-144685001D02*
X61595000Y-146050000D01*
X60230001Y-124554999D02*
X60230001Y-144685001D01*
X61595000Y-123190000D02*
X60230001Y-124554999D01*
X60419999Y-167734999D02*
X61595000Y-168910000D01*
X60419999Y-147225001D02*
X60419999Y-167734999D01*
X61595000Y-146050000D02*
X60419999Y-147225001D01*
X60419999Y-190340999D02*
X61722000Y-191643000D01*
X60419999Y-170085001D02*
X60419999Y-190340999D01*
X61595000Y-168910000D02*
X60419999Y-170085001D01*
X60419999Y-192945001D02*
X61722000Y-191643000D01*
X60419999Y-212819999D02*
X60419999Y-192945001D01*
X61595000Y-213995000D02*
X60419999Y-212819999D01*
X109155001Y-145350001D02*
X109855000Y-146050000D01*
X108679999Y-144874999D02*
X109155001Y-145350001D01*
X108679999Y-125354950D02*
X108679999Y-144874999D01*
X109855000Y-124179949D02*
X108679999Y-125354950D01*
X109855000Y-123190000D02*
X109855000Y-124179949D01*
X109282001Y-168083001D02*
X109982000Y-168783000D01*
X108679999Y-167480999D02*
X109282001Y-168083001D01*
X108679999Y-147225001D02*
X108679999Y-167480999D01*
X109855000Y-146050000D02*
X108679999Y-147225001D01*
X109155001Y-191070001D02*
X109855000Y-191770000D01*
X108679999Y-190594999D02*
X109155001Y-191070001D01*
X108679999Y-170085001D02*
X108679999Y-190594999D01*
X109982000Y-168783000D02*
X108679999Y-170085001D01*
X109155001Y-192469999D02*
X109855000Y-191770000D01*
X108679999Y-192945001D02*
X109155001Y-192469999D01*
X108679999Y-212819999D02*
X108679999Y-192945001D01*
X109855000Y-213995000D02*
X108679999Y-212819999D01*
X97420018Y-40270018D02*
X93980000Y-36830000D01*
X97420018Y-81779376D02*
X97420018Y-40270018D01*
X109220000Y-93579358D02*
X97420018Y-81779376D01*
X109220000Y-102870000D02*
X109220000Y-93579358D01*
X109220000Y-122555000D02*
X109855000Y-123190000D01*
X109220000Y-102870000D02*
X109220000Y-122555000D01*
%TO.N,/InputOutputPins/PB4*%
X57879999Y-170085001D02*
X59182000Y-168783000D01*
X57879999Y-190340999D02*
X57879999Y-170085001D01*
X59182000Y-191643000D02*
X57879999Y-190340999D01*
X57879999Y-147225001D02*
X59055000Y-146050000D01*
X57879999Y-167480999D02*
X57879999Y-147225001D01*
X59182000Y-168783000D02*
X57879999Y-167480999D01*
X57690001Y-124554999D02*
X59055000Y-123190000D01*
X57690001Y-144685001D02*
X57690001Y-124554999D01*
X59055000Y-146050000D02*
X57690001Y-144685001D01*
X57879999Y-212819999D02*
X59055000Y-213995000D01*
X57879999Y-192945001D02*
X57879999Y-212819999D01*
X59182000Y-191643000D02*
X57879999Y-192945001D01*
X106615001Y-192469999D02*
X107315000Y-191770000D01*
X106139999Y-192945001D02*
X106615001Y-192469999D01*
X106139999Y-212819999D02*
X106139999Y-192945001D01*
X107315000Y-213995000D02*
X106139999Y-212819999D01*
X106742001Y-169482999D02*
X107442000Y-168783000D01*
X106139999Y-170085001D02*
X106742001Y-169482999D01*
X106139999Y-190594999D02*
X106139999Y-170085001D01*
X107315000Y-191770000D02*
X106139999Y-190594999D01*
X106615001Y-146749999D02*
X107315000Y-146050000D01*
X106139999Y-147225001D02*
X106615001Y-146749999D01*
X106139999Y-167480999D02*
X106139999Y-147225001D01*
X107442000Y-168783000D02*
X106139999Y-167480999D01*
X106615001Y-123889999D02*
X107315000Y-123190000D01*
X106139999Y-144874999D02*
X106139999Y-124365001D01*
X106139999Y-124365001D02*
X106615001Y-123889999D01*
X107315000Y-146050000D02*
X106139999Y-144874999D01*
X107950000Y-92945768D02*
X107950000Y-102870000D01*
X96970010Y-81965778D02*
X107950000Y-92945768D01*
X96970009Y-42360009D02*
X96970010Y-81965778D01*
X93980000Y-39370000D02*
X96970009Y-42360009D01*
X107950000Y-122555000D02*
X107315000Y-123190000D01*
X107950000Y-102870000D02*
X107950000Y-122555000D01*
%TO.N,TXD*%
X86872588Y-64770000D02*
X93980000Y-64770000D01*
X80522588Y-58420000D02*
X86872588Y-64770000D01*
X56330000Y-58420000D02*
X80522588Y-58420000D01*
X55245000Y-59505000D02*
X56330000Y-58420000D01*
X55245000Y-60530000D02*
X55245000Y-59505000D01*
%TO.N,RXD*%
X53975000Y-52255000D02*
X58870000Y-57150000D01*
X53975000Y-51230000D02*
X53975000Y-52255000D01*
X84968998Y-62230000D02*
X93980000Y-62230000D01*
X79888998Y-57150000D02*
X84968998Y-62230000D01*
X58870000Y-57150000D02*
X79888998Y-57150000D01*
%TO.N,Q6*%
X92710000Y-91440000D02*
X99060000Y-97790000D01*
X74542002Y-91440000D02*
X92710000Y-91440000D01*
X64382002Y-81280000D02*
X74542002Y-91440000D01*
X53340000Y-81280000D02*
X64382002Y-81280000D01*
%TO.N,Q5*%
X96520000Y-97790000D02*
X93980000Y-100330000D01*
X52070000Y-100330000D02*
X50800000Y-101600000D01*
X93980000Y-100330000D02*
X52070000Y-100330000D01*
%TO.N,Q4*%
X93980000Y-97790000D02*
X91954980Y-99815020D01*
X47504980Y-99815020D02*
X45720000Y-101600000D01*
X91954980Y-99815020D02*
X47504980Y-99815020D01*
%TO.N,Q3*%
X42874990Y-99365010D02*
X40640000Y-101600000D01*
X90996360Y-99365010D02*
X42874990Y-99365010D01*
X91440000Y-98921370D02*
X90996360Y-99365010D01*
X91440000Y-97790000D02*
X91440000Y-98921370D01*
%TO.N,Q2*%
X44305001Y-92854999D02*
X43979999Y-93180001D01*
X54400001Y-92854999D02*
X44305001Y-92854999D01*
X55380003Y-93835001D02*
X54400001Y-92854999D01*
X43979999Y-93180001D02*
X43180000Y-93980000D01*
X84945001Y-93835001D02*
X55380003Y-93835001D01*
X88900000Y-97790000D02*
X84945001Y-93835001D01*
%TO.N,Q1*%
X49059999Y-94779999D02*
X48260000Y-93980000D01*
X53195001Y-98915001D02*
X49059999Y-94779999D01*
X85234999Y-98915001D02*
X53195001Y-98915001D01*
X86360000Y-97790000D02*
X85234999Y-98915001D01*
%TO.N,Q7*%
X48260000Y-81280000D02*
X49530000Y-82550000D01*
X49530000Y-82550000D02*
X58420000Y-82550000D01*
X68580000Y-92710000D02*
X91440000Y-92710000D01*
X58420000Y-82550000D02*
X68580000Y-92710000D01*
X99060000Y-92710000D02*
X101600000Y-90170000D01*
X95250000Y-92710000D02*
X99060000Y-92710000D01*
%TO.N,Q0*%
X53340000Y-95030000D02*
X53340000Y-93980000D01*
X56100000Y-97790000D02*
X53340000Y-95030000D01*
X83820000Y-97790000D02*
X56100000Y-97790000D01*
%TO.N,Net-(J4-Pad7)*%
X61595000Y-134620000D02*
X61595000Y-130810000D01*
%TO.N,Net-(J4-Pad5)*%
X64135000Y-134620000D02*
X64135000Y-130810000D01*
%TO.N,Net-(J4-Pad3)*%
X66675000Y-134620000D02*
X66675000Y-130810000D01*
%TO.N,Net-(J4-Pad1)*%
X69215000Y-134620000D02*
X69215000Y-130810000D01*
%TO.N,Net-(J4-Pad15)*%
X51435000Y-134620000D02*
X51435000Y-130810000D01*
%TO.N,Net-(J4-Pad13)*%
X53975000Y-134620000D02*
X53975000Y-130810000D01*
%TO.N,Net-(J4-Pad11)*%
X56515000Y-134620000D02*
X56515000Y-130810000D01*
%TO.N,Net-(J4-Pad9)*%
X59055000Y-134620000D02*
X59055000Y-130810000D01*
%TO.N,Net-(J6-Pad10)*%
X96520000Y-124179998D02*
X88545002Y-116205000D01*
X96520000Y-130175000D02*
X96520000Y-124179998D01*
X88545002Y-116205000D02*
X53340000Y-116205000D01*
X53340000Y-116205000D02*
X46990000Y-109855000D01*
X46990000Y-109855000D02*
X46990000Y-106680000D01*
X46990000Y-106680000D02*
X46990000Y-106680000D01*
%TO.N,Net-(J6-Pad15)*%
X99695000Y-134620000D02*
X99695000Y-130810000D01*
%TO.N,Net-(J6-Pad13)*%
X102235000Y-130810000D02*
X102235000Y-133350000D01*
X102235000Y-133350000D02*
X102235000Y-134620000D01*
%TO.N,Net-(J6-Pad11)*%
X104775000Y-134620000D02*
X104775000Y-130810000D01*
%TO.N,Net-(J6-Pad9)*%
X107315000Y-130810000D02*
X107315000Y-134620000D01*
%TO.N,Net-(J6-Pad7)*%
X109855000Y-134620000D02*
X109855000Y-130810000D01*
%TO.N,Net-(J6-Pad5)*%
X112395000Y-130810000D02*
X112395000Y-134620000D01*
%TO.N,Net-(J6-Pad3)*%
X114935000Y-134620000D02*
X114935000Y-130810000D01*
%TO.N,Net-(J6-Pad1)*%
X117475000Y-130810000D02*
X117475000Y-134620000D01*
%TO.N,Net-(J8-Pad15)*%
X51435000Y-153670000D02*
X51435000Y-157480000D01*
%TO.N,Net-(J8-Pad13)*%
X53975000Y-157480000D02*
X53975000Y-153670000D01*
%TO.N,Net-(J8-Pad11)*%
X56515000Y-153670000D02*
X56515000Y-157480000D01*
%TO.N,Net-(J8-Pad9)*%
X59055000Y-157480000D02*
X59055000Y-153670000D01*
%TO.N,Net-(J8-Pad7)*%
X61595000Y-153670000D02*
X61595000Y-157480000D01*
%TO.N,Net-(J8-Pad5)*%
X64135000Y-157480000D02*
X64135000Y-153670000D01*
%TO.N,Net-(J8-Pad3)*%
X66675000Y-157480000D02*
X66675000Y-153670000D01*
%TO.N,Net-(J8-Pad1)*%
X69215000Y-157480000D02*
X69215000Y-153670000D01*
%TO.N,Net-(J10-Pad15)*%
X99695000Y-153670000D02*
X99695000Y-157480000D01*
%TO.N,Net-(J10-Pad13)*%
X102235000Y-157480000D02*
X102235000Y-153670000D01*
%TO.N,Net-(J10-Pad11)*%
X104775000Y-153670000D02*
X104775000Y-157480000D01*
%TO.N,Net-(J10-Pad9)*%
X107315000Y-157480000D02*
X107315000Y-153670000D01*
%TO.N,Net-(J10-Pad7)*%
X109855000Y-153670000D02*
X109855000Y-157480000D01*
%TO.N,Net-(J10-Pad5)*%
X112395000Y-157480000D02*
X112395000Y-153670000D01*
%TO.N,Net-(J10-Pad3)*%
X114935000Y-153670000D02*
X114935000Y-157480000D01*
%TO.N,Net-(J10-Pad1)*%
X117475000Y-157480000D02*
X117475000Y-153670000D01*
%TO.N,Net-(J12-Pad10)*%
X43180000Y-174625000D02*
X43180000Y-101600000D01*
%TO.N,Net-(J12-Pad15)*%
X51562000Y-180213000D02*
X51435000Y-180340000D01*
X51562000Y-176403000D02*
X51562000Y-180213000D01*
%TO.N,Net-(J12-Pad13)*%
X53975000Y-176530000D02*
X54102000Y-176403000D01*
X53975000Y-180340000D02*
X53975000Y-176530000D01*
%TO.N,Net-(J12-Pad11)*%
X56642000Y-180213000D02*
X56515000Y-180340000D01*
X56642000Y-176403000D02*
X56642000Y-180213000D01*
%TO.N,Net-(J12-Pad9)*%
X59055000Y-176530000D02*
X59182000Y-176403000D01*
X59055000Y-180340000D02*
X59055000Y-176530000D01*
%TO.N,Net-(J12-Pad7)*%
X61595000Y-176530000D02*
X61595000Y-180340000D01*
%TO.N,Net-(J12-Pad5)*%
X64135000Y-176530000D02*
X64135000Y-180340000D01*
%TO.N,Net-(J12-Pad3)*%
X66675000Y-180340000D02*
X66675000Y-176530000D01*
%TO.N,Net-(J12-Pad1)*%
X69215000Y-176530000D02*
X69215000Y-180340000D01*
%TO.N,Net-(J14-Pad10)*%
X97554999Y-177400001D02*
X97554999Y-123589999D01*
X97155000Y-177800000D02*
X97554999Y-177400001D01*
X97554999Y-123589999D02*
X89535000Y-115570000D01*
X89535000Y-115570000D02*
X53341410Y-115570000D01*
X48260000Y-110488590D02*
X48260000Y-101600000D01*
X53341410Y-115570000D02*
X48260000Y-110488590D01*
%TO.N,Net-(J14-Pad15)*%
X99822000Y-180213000D02*
X99695000Y-180340000D01*
X99822000Y-176403000D02*
X99822000Y-180213000D01*
%TO.N,Net-(J14-Pad13)*%
X102235000Y-176530000D02*
X102362000Y-176403000D01*
X102235000Y-180340000D02*
X102235000Y-176530000D01*
%TO.N,Net-(J14-Pad11)*%
X104902000Y-180213000D02*
X104775000Y-180340000D01*
X104902000Y-176403000D02*
X104902000Y-180213000D01*
%TO.N,Net-(J14-Pad9)*%
X107315000Y-176530000D02*
X107442000Y-176403000D01*
X107315000Y-180340000D02*
X107315000Y-176530000D01*
%TO.N,Net-(J14-Pad7)*%
X109982000Y-180213000D02*
X109855000Y-180340000D01*
X109982000Y-176403000D02*
X109982000Y-180213000D01*
%TO.N,Net-(J14-Pad5)*%
X112395000Y-176530000D02*
X112522000Y-176403000D01*
X112395000Y-180340000D02*
X112395000Y-176530000D01*
%TO.N,Net-(J14-Pad3)*%
X115062000Y-180213000D02*
X114935000Y-180340000D01*
X115062000Y-176403000D02*
X115062000Y-180213000D01*
%TO.N,Net-(J14-Pad1)*%
X117475000Y-176530000D02*
X117602000Y-176403000D01*
X117475000Y-180340000D02*
X117475000Y-176530000D01*
%TO.N,Net-(J16-Pad10)*%
X47625000Y-194310000D02*
X47625000Y-146685000D01*
X47625000Y-146685000D02*
X47625000Y-146685000D01*
%TO.N,Net-(J16-Pad15)*%
X51562000Y-203073000D02*
X51435000Y-203200000D01*
X51562000Y-199263000D02*
X51562000Y-203073000D01*
%TO.N,Net-(J16-Pad13)*%
X53975000Y-199390000D02*
X54102000Y-199263000D01*
X53975000Y-203200000D02*
X53975000Y-199390000D01*
%TO.N,Net-(J16-Pad11)*%
X56642000Y-203073000D02*
X56515000Y-203200000D01*
X56642000Y-199263000D02*
X56642000Y-203073000D01*
%TO.N,Net-(J16-Pad9)*%
X59055000Y-199390000D02*
X59182000Y-199263000D01*
X59055000Y-203200000D02*
X59055000Y-199390000D01*
%TO.N,Net-(J16-Pad7)*%
X61722000Y-203073000D02*
X61595000Y-203200000D01*
X61722000Y-199263000D02*
X61722000Y-203073000D01*
%TO.N,Net-(J16-Pad5)*%
X64262000Y-203073000D02*
X64135000Y-203200000D01*
X64262000Y-199263000D02*
X64262000Y-203073000D01*
%TO.N,Net-(J16-Pad3)*%
X66675000Y-199390000D02*
X66802000Y-199263000D01*
X66675000Y-203200000D02*
X66675000Y-199390000D01*
%TO.N,Net-(J16-Pad1)*%
X69342000Y-203073000D02*
X69215000Y-203200000D01*
X69342000Y-199263000D02*
X69342000Y-203073000D01*
%TO.N,Net-(J18-Pad10)*%
X46355000Y-194310000D02*
X46355000Y-118745000D01*
%TO.N,Net-(J18-Pad15)*%
X99695000Y-199390000D02*
X99695000Y-203200000D01*
%TO.N,Net-(J18-Pad13)*%
X102235000Y-203200000D02*
X102235000Y-199390000D01*
%TO.N,Net-(J18-Pad11)*%
X104775000Y-199390000D02*
X104775000Y-203200000D01*
%TO.N,Net-(J18-Pad9)*%
X107315000Y-203200000D02*
X107315000Y-199390000D01*
%TO.N,Net-(J18-Pad7)*%
X109855000Y-199390000D02*
X109855000Y-203200000D01*
%TO.N,Net-(J18-Pad5)*%
X112395000Y-203200000D02*
X112395000Y-199390000D01*
%TO.N,Net-(J18-Pad3)*%
X114935000Y-199390000D02*
X114935000Y-203200000D01*
%TO.N,Net-(J18-Pad1)*%
X117475000Y-199390000D02*
X117475000Y-203200000D01*
%TO.N,Net-(J20-Pad10)*%
X51435000Y-228600000D02*
X93345000Y-228600000D01*
X39514999Y-82405001D02*
X40640000Y-81280000D01*
X39370000Y-194310000D02*
X39514999Y-82405001D01*
X48260000Y-203200000D02*
X39370000Y-194310000D01*
X48260000Y-225425000D02*
X48260000Y-203200000D01*
X51435000Y-228600000D02*
X48260000Y-225425000D01*
%TO.N,Net-(J20-Pad15)*%
X51435000Y-226060000D02*
X51435000Y-221615000D01*
%TO.N,Net-(J20-Pad13)*%
X53975000Y-221615000D02*
X53975000Y-226060000D01*
%TO.N,Net-(J20-Pad11)*%
X56515000Y-226060000D02*
X56515000Y-221615000D01*
%TO.N,Net-(J20-Pad9)*%
X59055000Y-221615000D02*
X59055000Y-226060000D01*
%TO.N,Net-(J20-Pad7)*%
X61595000Y-226060000D02*
X61595000Y-221615000D01*
%TO.N,Net-(J20-Pad5)*%
X64135000Y-221615000D02*
X64135000Y-226060000D01*
%TO.N,Net-(J20-Pad3)*%
X66675000Y-226060000D02*
X66675000Y-221615000D01*
%TO.N,Net-(J20-Pad1)*%
X69215000Y-221615000D02*
X69215000Y-226060000D01*
%TO.N,Net-(J22-Pad10)*%
X99695000Y-228600000D02*
X141605000Y-228600000D01*
X38100000Y-90031370D02*
X38100000Y-88900000D01*
X36974999Y-91156371D02*
X38100000Y-90031370D01*
X46437999Y-203917999D02*
X36830000Y-194310000D01*
X36830000Y-194310000D02*
X36974999Y-91156371D01*
X46437999Y-225342001D02*
X46437999Y-203917999D01*
X50870999Y-229775001D02*
X46437999Y-225342001D01*
X98519999Y-229775001D02*
X50870999Y-229775001D01*
X99695000Y-228600000D02*
X98519999Y-229775001D01*
%TO.N,Net-(J22-Pad15)*%
X99695000Y-221615000D02*
X99695000Y-226060000D01*
%TO.N,Net-(J22-Pad13)*%
X102235000Y-226060000D02*
X102235000Y-221615000D01*
%TO.N,Net-(J22-Pad11)*%
X104775000Y-221615000D02*
X104775000Y-226060000D01*
%TO.N,Net-(J22-Pad9)*%
X107315000Y-226060000D02*
X107315000Y-221615000D01*
%TO.N,Net-(J22-Pad7)*%
X109855000Y-221615000D02*
X109855000Y-226060000D01*
%TO.N,Net-(J22-Pad5)*%
X112395000Y-226060000D02*
X112395000Y-221615000D01*
%TO.N,Net-(J22-Pad3)*%
X114935000Y-221615000D02*
X114935000Y-226060000D01*
%TO.N,Net-(J22-Pad1)*%
X117475000Y-226060000D02*
X117475000Y-221615000D01*
%TD*%
M02*
