%TF.GenerationSoftware,KiCad,Pcbnew,5.1.5+dfsg1-2build2*%
%TF.CreationDate,2021-10-31T16:28:56-04:00*%
%TF.ProjectId,PCB_LeftPanel,5043425f-4c65-4667-9450-616e656c2e6b,1*%
%TF.SameCoordinates,Original*%
%TF.FileFunction,Soldermask,Bot*%
%TF.FilePolarity,Negative*%
%FSLAX46Y46*%
G04 Gerber Fmt 4.6, Leading zero omitted, Abs format (unit mm)*
G04 Created by KiCad (PCBNEW 5.1.5+dfsg1-2build2) date 2021-10-31 16:28:56*
%MOMM*%
%LPD*%
G04 APERTURE LIST*
%ADD10C,4.000000*%
%ADD11C,1.600000*%
%ADD12R,1.600000X1.600000*%
%ADD13O,1.600000X1.600000*%
%ADD14O,1.700000X1.700000*%
%ADD15R,1.700000X1.700000*%
%ADD16C,1.500000*%
%ADD17O,1.400000X1.400000*%
%ADD18C,1.400000*%
%ADD19O,3.500000X2.000000*%
%ADD20O,2.000000X3.300000*%
%ADD21R,2.000000X4.000000*%
%ADD22C,3.500000*%
%ADD23C,1.700000*%
%ADD24C,1.800000*%
%ADD25R,1.800000X1.800000*%
G04 APERTURE END LIST*
D10*
%TO.C,J32*%
X124610000Y-67970000D03*
X124610000Y-92970000D03*
D11*
X126030000Y-84625000D03*
X126030000Y-81855000D03*
X126030000Y-79085000D03*
X126030000Y-76315000D03*
X123190000Y-86010000D03*
X123190000Y-83240000D03*
X123190000Y-80470000D03*
X123190000Y-77700000D03*
D12*
X123190000Y-74930000D03*
%TD*%
D13*
%TO.C,U1*%
X109220000Y-29210000D03*
X93980000Y-77470000D03*
X109220000Y-31750000D03*
X93980000Y-74930000D03*
X109220000Y-34290000D03*
X93980000Y-72390000D03*
X109220000Y-36830000D03*
X93980000Y-69850000D03*
X109220000Y-39370000D03*
X93980000Y-67310000D03*
X109220000Y-41910000D03*
X93980000Y-64770000D03*
X109220000Y-44450000D03*
X93980000Y-62230000D03*
X109220000Y-46990000D03*
X93980000Y-59690000D03*
X109220000Y-49530000D03*
X93980000Y-57150000D03*
X109220000Y-52070000D03*
X93980000Y-54610000D03*
X109220000Y-54610000D03*
X93980000Y-52070000D03*
X109220000Y-57150000D03*
X93980000Y-49530000D03*
X109220000Y-59690000D03*
X93980000Y-46990000D03*
X109220000Y-62230000D03*
X93980000Y-44450000D03*
X109220000Y-64770000D03*
X93980000Y-41910000D03*
X109220000Y-67310000D03*
X93980000Y-39370000D03*
X109220000Y-69850000D03*
X93980000Y-36830000D03*
X109220000Y-72390000D03*
X93980000Y-34290000D03*
X109220000Y-74930000D03*
X93980000Y-31750000D03*
X109220000Y-77470000D03*
D12*
X93980000Y-29210000D03*
%TD*%
D13*
%TO.C,U5*%
X53340000Y-88900000D03*
X38100000Y-81280000D03*
X50800000Y-88900000D03*
X40640000Y-81280000D03*
X48260000Y-88900000D03*
X43180000Y-81280000D03*
X45720000Y-88900000D03*
X45720000Y-81280000D03*
X43180000Y-88900000D03*
X48260000Y-81280000D03*
X40640000Y-88900000D03*
X50800000Y-81280000D03*
X38100000Y-88900000D03*
D12*
X53340000Y-81280000D03*
%TD*%
D13*
%TO.C,U4*%
X53340000Y-101600000D03*
X38100000Y-93980000D03*
X50800000Y-101600000D03*
X40640000Y-93980000D03*
X48260000Y-101600000D03*
X43180000Y-93980000D03*
X45720000Y-101600000D03*
X45720000Y-93980000D03*
X43180000Y-101600000D03*
X48260000Y-93980000D03*
X40640000Y-101600000D03*
X50800000Y-93980000D03*
X38100000Y-101600000D03*
D12*
X53340000Y-93980000D03*
%TD*%
D14*
%TO.C,J36*%
X118110000Y-44450000D03*
X118110000Y-41910000D03*
X118110000Y-39370000D03*
X118110000Y-36830000D03*
X118110000Y-34290000D03*
X118110000Y-31750000D03*
X118110000Y-29210000D03*
D15*
X118110000Y-26670000D03*
%TD*%
D14*
%TO.C,J2*%
X64770000Y-30480000D03*
X64770000Y-27940000D03*
X67310000Y-30480000D03*
X67310000Y-27940000D03*
X69850000Y-30480000D03*
D15*
X69850000Y-27940000D03*
%TD*%
D16*
%TO.C,Y1*%
X83820000Y-59490000D03*
X83820000Y-54610000D03*
%TD*%
D13*
%TO.C,U2*%
X83820000Y-90170000D03*
X101600000Y-97790000D03*
X86360000Y-90170000D03*
X99060000Y-97790000D03*
X88900000Y-90170000D03*
X96520000Y-97790000D03*
X91440000Y-90170000D03*
X93980000Y-97790000D03*
X93980000Y-90170000D03*
X91440000Y-97790000D03*
X96520000Y-90170000D03*
X88900000Y-97790000D03*
X99060000Y-90170000D03*
X86360000Y-97790000D03*
X101600000Y-90170000D03*
D12*
X83820000Y-97790000D03*
%TD*%
D17*
%TO.C,R86*%
X99695000Y-213995000D03*
D18*
X99695000Y-221615000D03*
%TD*%
D17*
%TO.C,R85*%
X102235000Y-213995000D03*
D18*
X102235000Y-221615000D03*
%TD*%
D17*
%TO.C,R84*%
X104775000Y-213995000D03*
D18*
X104775000Y-221615000D03*
%TD*%
D17*
%TO.C,R83*%
X107315000Y-213995000D03*
D18*
X107315000Y-221615000D03*
%TD*%
D17*
%TO.C,R82*%
X109855000Y-213995000D03*
D18*
X109855000Y-221615000D03*
%TD*%
D17*
%TO.C,R81*%
X112395000Y-213995000D03*
D18*
X112395000Y-221615000D03*
%TD*%
D17*
%TO.C,R80*%
X114935000Y-213995000D03*
D18*
X114935000Y-221615000D03*
%TD*%
D17*
%TO.C,R79*%
X117475000Y-213995000D03*
D18*
X117475000Y-221615000D03*
%TD*%
D17*
%TO.C,R78*%
X51435000Y-213995000D03*
D18*
X51435000Y-221615000D03*
%TD*%
D17*
%TO.C,R77*%
X53975000Y-213995000D03*
D18*
X53975000Y-221615000D03*
%TD*%
D17*
%TO.C,R76*%
X56515000Y-213995000D03*
D18*
X56515000Y-221615000D03*
%TD*%
D17*
%TO.C,R75*%
X59055000Y-213995000D03*
D18*
X59055000Y-221615000D03*
%TD*%
D17*
%TO.C,R74*%
X61595000Y-213995000D03*
D18*
X61595000Y-221615000D03*
%TD*%
D17*
%TO.C,R73*%
X64135000Y-213995000D03*
D18*
X64135000Y-221615000D03*
%TD*%
D17*
%TO.C,R72*%
X66675000Y-213995000D03*
D18*
X66675000Y-221615000D03*
%TD*%
D17*
%TO.C,R71*%
X69215000Y-213995000D03*
D18*
X69215000Y-221615000D03*
%TD*%
D17*
%TO.C,R70*%
X99695000Y-191770000D03*
D18*
X99695000Y-199390000D03*
%TD*%
D17*
%TO.C,R69*%
X102235000Y-191770000D03*
D18*
X102235000Y-199390000D03*
%TD*%
D17*
%TO.C,R68*%
X104775000Y-191770000D03*
D18*
X104775000Y-199390000D03*
%TD*%
D17*
%TO.C,R67*%
X107315000Y-191770000D03*
D18*
X107315000Y-199390000D03*
%TD*%
D17*
%TO.C,R66*%
X109855000Y-191770000D03*
D18*
X109855000Y-199390000D03*
%TD*%
D17*
%TO.C,R65*%
X112395000Y-191770000D03*
D18*
X112395000Y-199390000D03*
%TD*%
D17*
%TO.C,R64*%
X114935000Y-191770000D03*
D18*
X114935000Y-199390000D03*
%TD*%
D17*
%TO.C,R63*%
X117475000Y-191770000D03*
D18*
X117475000Y-199390000D03*
%TD*%
D17*
%TO.C,R62*%
X51562000Y-191643000D03*
D18*
X51562000Y-199263000D03*
%TD*%
D17*
%TO.C,R61*%
X54102000Y-191643000D03*
D18*
X54102000Y-199263000D03*
%TD*%
D17*
%TO.C,R60*%
X56642000Y-191643000D03*
D18*
X56642000Y-199263000D03*
%TD*%
D17*
%TO.C,R59*%
X59182000Y-191643000D03*
D18*
X59182000Y-199263000D03*
%TD*%
D17*
%TO.C,R58*%
X61722000Y-191643000D03*
D18*
X61722000Y-199263000D03*
%TD*%
D17*
%TO.C,R57*%
X64262000Y-191643000D03*
D18*
X64262000Y-199263000D03*
%TD*%
D17*
%TO.C,R56*%
X66802000Y-191643000D03*
D18*
X66802000Y-199263000D03*
%TD*%
D17*
%TO.C,R55*%
X69342000Y-191643000D03*
D18*
X69342000Y-199263000D03*
%TD*%
D17*
%TO.C,R54*%
X99822000Y-168783000D03*
D18*
X99822000Y-176403000D03*
%TD*%
D17*
%TO.C,R53*%
X102362000Y-168783000D03*
D18*
X102362000Y-176403000D03*
%TD*%
D17*
%TO.C,R52*%
X104902000Y-168783000D03*
D18*
X104902000Y-176403000D03*
%TD*%
D17*
%TO.C,R51*%
X107442000Y-168783000D03*
D18*
X107442000Y-176403000D03*
%TD*%
D17*
%TO.C,R50*%
X109982000Y-168783000D03*
D18*
X109982000Y-176403000D03*
%TD*%
D17*
%TO.C,R49*%
X112522000Y-168783000D03*
D18*
X112522000Y-176403000D03*
%TD*%
D17*
%TO.C,R48*%
X115062000Y-168783000D03*
D18*
X115062000Y-176403000D03*
%TD*%
D17*
%TO.C,R47*%
X117602000Y-168783000D03*
D18*
X117602000Y-176403000D03*
%TD*%
D17*
%TO.C,R46*%
X51562000Y-168783000D03*
D18*
X51562000Y-176403000D03*
%TD*%
D17*
%TO.C,R45*%
X54102000Y-168783000D03*
D18*
X54102000Y-176403000D03*
%TD*%
D17*
%TO.C,R44*%
X56642000Y-168783000D03*
D18*
X56642000Y-176403000D03*
%TD*%
D17*
%TO.C,R43*%
X59182000Y-168783000D03*
D18*
X59182000Y-176403000D03*
%TD*%
D17*
%TO.C,R42*%
X61595000Y-168910000D03*
D18*
X61595000Y-176530000D03*
%TD*%
D17*
%TO.C,R41*%
X64135000Y-168910000D03*
D18*
X64135000Y-176530000D03*
%TD*%
D17*
%TO.C,R40*%
X66675000Y-168910000D03*
D18*
X66675000Y-176530000D03*
%TD*%
D17*
%TO.C,R39*%
X69215000Y-168910000D03*
D18*
X69215000Y-176530000D03*
%TD*%
D17*
%TO.C,R38*%
X99695000Y-146050000D03*
D18*
X99695000Y-153670000D03*
%TD*%
D17*
%TO.C,R37*%
X102235000Y-146050000D03*
D18*
X102235000Y-153670000D03*
%TD*%
D17*
%TO.C,R36*%
X104775000Y-146050000D03*
D18*
X104775000Y-153670000D03*
%TD*%
D17*
%TO.C,R35*%
X107315000Y-146050000D03*
D18*
X107315000Y-153670000D03*
%TD*%
D17*
%TO.C,R34*%
X109855000Y-146050000D03*
D18*
X109855000Y-153670000D03*
%TD*%
D17*
%TO.C,R33*%
X112395000Y-146050000D03*
D18*
X112395000Y-153670000D03*
%TD*%
D17*
%TO.C,R32*%
X114935000Y-146050000D03*
D18*
X114935000Y-153670000D03*
%TD*%
D17*
%TO.C,R31*%
X117475000Y-146050000D03*
D18*
X117475000Y-153670000D03*
%TD*%
D17*
%TO.C,R30*%
X51435000Y-146050000D03*
D18*
X51435000Y-153670000D03*
%TD*%
D17*
%TO.C,R29*%
X53975000Y-146050000D03*
D18*
X53975000Y-153670000D03*
%TD*%
D17*
%TO.C,R28*%
X56515000Y-146050000D03*
D18*
X56515000Y-153670000D03*
%TD*%
D17*
%TO.C,R27*%
X59055000Y-146050000D03*
D18*
X59055000Y-153670000D03*
%TD*%
D17*
%TO.C,R26*%
X61595000Y-146050000D03*
D18*
X61595000Y-153670000D03*
%TD*%
D17*
%TO.C,R25*%
X64135000Y-146050000D03*
D18*
X64135000Y-153670000D03*
%TD*%
D17*
%TO.C,R24*%
X66675000Y-146050000D03*
D18*
X66675000Y-153670000D03*
%TD*%
D17*
%TO.C,R23*%
X69215000Y-146050000D03*
D18*
X69215000Y-153670000D03*
%TD*%
D17*
%TO.C,R22*%
X99695000Y-123190000D03*
D18*
X99695000Y-130810000D03*
%TD*%
D17*
%TO.C,R21*%
X102235000Y-123190000D03*
D18*
X102235000Y-130810000D03*
%TD*%
D17*
%TO.C,R20*%
X104775000Y-123190000D03*
D18*
X104775000Y-130810000D03*
%TD*%
D17*
%TO.C,R19*%
X107315000Y-123190000D03*
D18*
X107315000Y-130810000D03*
%TD*%
D17*
%TO.C,R18*%
X109855000Y-123190000D03*
D18*
X109855000Y-130810000D03*
%TD*%
D17*
%TO.C,R17*%
X112395000Y-123190000D03*
D18*
X112395000Y-130810000D03*
%TD*%
D17*
%TO.C,R16*%
X114935000Y-123190000D03*
D18*
X114935000Y-130810000D03*
%TD*%
D17*
%TO.C,R15*%
X117475000Y-123190000D03*
D18*
X117475000Y-130810000D03*
%TD*%
D17*
%TO.C,R14*%
X51435000Y-123190000D03*
D18*
X51435000Y-130810000D03*
%TD*%
D17*
%TO.C,R13*%
X53975000Y-123190000D03*
D18*
X53975000Y-130810000D03*
%TD*%
D17*
%TO.C,R12*%
X56515000Y-123190000D03*
D18*
X56515000Y-130810000D03*
%TD*%
D17*
%TO.C,R11*%
X59055000Y-123190000D03*
D18*
X59055000Y-130810000D03*
%TD*%
D17*
%TO.C,R10*%
X61595000Y-123190000D03*
D18*
X61595000Y-130810000D03*
%TD*%
D17*
%TO.C,R9*%
X64135000Y-123190000D03*
D18*
X64135000Y-130810000D03*
%TD*%
D17*
%TO.C,R8*%
X66675000Y-123190000D03*
D18*
X66675000Y-130810000D03*
%TD*%
D17*
%TO.C,R7*%
X69215000Y-123190000D03*
D18*
X69215000Y-130810000D03*
%TD*%
D17*
%TO.C,R6*%
X74930000Y-85725000D03*
D18*
X67310000Y-85725000D03*
%TD*%
D17*
%TO.C,R5*%
X86360000Y-48260000D03*
D18*
X78740000Y-48260000D03*
%TD*%
D17*
%TO.C,R4*%
X74930000Y-88265000D03*
D18*
X67310000Y-88265000D03*
%TD*%
D17*
%TO.C,R3*%
X48895000Y-54610000D03*
D18*
X48895000Y-46990000D03*
%TD*%
D17*
%TO.C,R2*%
X45720000Y-41910000D03*
D18*
X45720000Y-34290000D03*
%TD*%
D17*
%TO.C,R1*%
X48470000Y-41910000D03*
D18*
X48470000Y-34290000D03*
%TD*%
D13*
%TO.C,L8*%
X163670000Y-97790000D03*
D11*
X153670000Y-97790000D03*
%TD*%
D13*
%TO.C,L7*%
X163670000Y-87630000D03*
D11*
X153670000Y-87630000D03*
%TD*%
D13*
%TO.C,L6*%
X163670000Y-77470000D03*
D11*
X153670000Y-77470000D03*
%TD*%
D13*
%TO.C,L5*%
X163670000Y-67310000D03*
D11*
X153670000Y-67310000D03*
%TD*%
D13*
%TO.C,L4*%
X163670000Y-57150000D03*
D11*
X153670000Y-57150000D03*
%TD*%
D13*
%TO.C,L3*%
X163670000Y-46990000D03*
D11*
X153670000Y-46990000D03*
%TD*%
D13*
%TO.C,L2*%
X163670000Y-36830000D03*
D11*
X153670000Y-36830000D03*
%TD*%
D13*
%TO.C,L1*%
X163670000Y-26670000D03*
D11*
X153670000Y-26670000D03*
%TD*%
D14*
%TO.C,J31*%
X170180000Y-100330000D03*
X170180000Y-97790000D03*
D15*
X170180000Y-95250000D03*
%TD*%
D14*
%TO.C,J30*%
X170180000Y-90170000D03*
X170180000Y-87630000D03*
D15*
X170180000Y-85090000D03*
%TD*%
D14*
%TO.C,J29*%
X170180000Y-80010000D03*
X170180000Y-77470000D03*
D15*
X170180000Y-74930000D03*
%TD*%
D14*
%TO.C,J28*%
X170180000Y-69850000D03*
X170180000Y-67310000D03*
D15*
X170180000Y-64770000D03*
%TD*%
D14*
%TO.C,J27*%
X170180000Y-59690000D03*
X170180000Y-57150000D03*
D15*
X170180000Y-54610000D03*
%TD*%
D14*
%TO.C,J26*%
X170180000Y-49530000D03*
X170180000Y-46990000D03*
D15*
X170180000Y-44450000D03*
%TD*%
D14*
%TO.C,J25*%
X170180000Y-39370000D03*
X170180000Y-36830000D03*
D15*
X170180000Y-34290000D03*
%TD*%
D14*
%TO.C,J24*%
X170180000Y-29210000D03*
X170180000Y-26670000D03*
D15*
X170180000Y-24130000D03*
%TD*%
D14*
%TO.C,J23*%
X123825000Y-228600000D03*
X123825000Y-226060000D03*
X126365000Y-228600000D03*
X126365000Y-226060000D03*
X128905000Y-228600000D03*
X128905000Y-226060000D03*
X131445000Y-228600000D03*
X131445000Y-226060000D03*
X133985000Y-228600000D03*
X133985000Y-226060000D03*
X136525000Y-228600000D03*
X136525000Y-226060000D03*
X139065000Y-228600000D03*
X139065000Y-226060000D03*
X141605000Y-228600000D03*
D15*
X141605000Y-226060000D03*
%TD*%
D14*
%TO.C,J22*%
X99695000Y-228600000D03*
X99695000Y-226060000D03*
X102235000Y-228600000D03*
X102235000Y-226060000D03*
X104775000Y-228600000D03*
X104775000Y-226060000D03*
X107315000Y-228600000D03*
X107315000Y-226060000D03*
X109855000Y-228600000D03*
X109855000Y-226060000D03*
X112395000Y-228600000D03*
X112395000Y-226060000D03*
X114935000Y-228600000D03*
X114935000Y-226060000D03*
X117475000Y-228600000D03*
D15*
X117475000Y-226060000D03*
%TD*%
D14*
%TO.C,J21*%
X75565000Y-228600000D03*
X75565000Y-226060000D03*
X78105000Y-228600000D03*
X78105000Y-226060000D03*
X80645000Y-228600000D03*
X80645000Y-226060000D03*
X83185000Y-228600000D03*
X83185000Y-226060000D03*
X85725000Y-228600000D03*
X85725000Y-226060000D03*
X88265000Y-228600000D03*
X88265000Y-226060000D03*
X90805000Y-228600000D03*
X90805000Y-226060000D03*
X93345000Y-228600000D03*
D15*
X93345000Y-226060000D03*
%TD*%
D14*
%TO.C,J20*%
X51435000Y-228600000D03*
X51435000Y-226060000D03*
X53975000Y-228600000D03*
X53975000Y-226060000D03*
X56515000Y-228600000D03*
X56515000Y-226060000D03*
X59055000Y-228600000D03*
X59055000Y-226060000D03*
X61595000Y-228600000D03*
X61595000Y-226060000D03*
X64135000Y-228600000D03*
X64135000Y-226060000D03*
X66675000Y-228600000D03*
X66675000Y-226060000D03*
X69215000Y-228600000D03*
D15*
X69215000Y-226060000D03*
%TD*%
D14*
%TO.C,J19*%
X123825000Y-205740000D03*
X123825000Y-203200000D03*
X126365000Y-205740000D03*
X126365000Y-203200000D03*
X128905000Y-205740000D03*
X128905000Y-203200000D03*
X131445000Y-205740000D03*
X131445000Y-203200000D03*
X133985000Y-205740000D03*
X133985000Y-203200000D03*
X136525000Y-205740000D03*
X136525000Y-203200000D03*
X139065000Y-205740000D03*
X139065000Y-203200000D03*
X141605000Y-205740000D03*
D15*
X141605000Y-203200000D03*
%TD*%
D14*
%TO.C,J18*%
X99695000Y-205740000D03*
X99695000Y-203200000D03*
X102235000Y-205740000D03*
X102235000Y-203200000D03*
X104775000Y-205740000D03*
X104775000Y-203200000D03*
X107315000Y-205740000D03*
X107315000Y-203200000D03*
X109855000Y-205740000D03*
X109855000Y-203200000D03*
X112395000Y-205740000D03*
X112395000Y-203200000D03*
X114935000Y-205740000D03*
X114935000Y-203200000D03*
X117475000Y-205740000D03*
D15*
X117475000Y-203200000D03*
%TD*%
D14*
%TO.C,J17*%
X75565000Y-205740000D03*
X75565000Y-203200000D03*
X78105000Y-205740000D03*
X78105000Y-203200000D03*
X80645000Y-205740000D03*
X80645000Y-203200000D03*
X83185000Y-205740000D03*
X83185000Y-203200000D03*
X85725000Y-205740000D03*
X85725000Y-203200000D03*
X88265000Y-205740000D03*
X88265000Y-203200000D03*
X90805000Y-205740000D03*
X90805000Y-203200000D03*
X93345000Y-205740000D03*
D15*
X93345000Y-203200000D03*
%TD*%
D14*
%TO.C,J16*%
X51435000Y-205740000D03*
X51435000Y-203200000D03*
X53975000Y-205740000D03*
X53975000Y-203200000D03*
X56515000Y-205740000D03*
X56515000Y-203200000D03*
X59055000Y-205740000D03*
X59055000Y-203200000D03*
X61595000Y-205740000D03*
X61595000Y-203200000D03*
X64135000Y-205740000D03*
X64135000Y-203200000D03*
X66675000Y-205740000D03*
X66675000Y-203200000D03*
X69215000Y-205740000D03*
D15*
X69215000Y-203200000D03*
%TD*%
D14*
%TO.C,J15*%
X123825000Y-182880000D03*
X123825000Y-180340000D03*
X126365000Y-182880000D03*
X126365000Y-180340000D03*
X128905000Y-182880000D03*
X128905000Y-180340000D03*
X131445000Y-182880000D03*
X131445000Y-180340000D03*
X133985000Y-182880000D03*
X133985000Y-180340000D03*
X136525000Y-182880000D03*
X136525000Y-180340000D03*
X139065000Y-182880000D03*
X139065000Y-180340000D03*
X141605000Y-182880000D03*
D15*
X141605000Y-180340000D03*
%TD*%
D14*
%TO.C,J14*%
X99695000Y-182880000D03*
X99695000Y-180340000D03*
X102235000Y-182880000D03*
X102235000Y-180340000D03*
X104775000Y-182880000D03*
X104775000Y-180340000D03*
X107315000Y-182880000D03*
X107315000Y-180340000D03*
X109855000Y-182880000D03*
X109855000Y-180340000D03*
X112395000Y-182880000D03*
X112395000Y-180340000D03*
X114935000Y-182880000D03*
X114935000Y-180340000D03*
X117475000Y-182880000D03*
D15*
X117475000Y-180340000D03*
%TD*%
D14*
%TO.C,J13*%
X75565000Y-182880000D03*
X75565000Y-180340000D03*
X78105000Y-182880000D03*
X78105000Y-180340000D03*
X80645000Y-182880000D03*
X80645000Y-180340000D03*
X83185000Y-182880000D03*
X83185000Y-180340000D03*
X85725000Y-182880000D03*
X85725000Y-180340000D03*
X88265000Y-182880000D03*
X88265000Y-180340000D03*
X90805000Y-182880000D03*
X90805000Y-180340000D03*
X93345000Y-182880000D03*
D15*
X93345000Y-180340000D03*
%TD*%
D14*
%TO.C,J12*%
X51435000Y-182880000D03*
X51435000Y-180340000D03*
X53975000Y-182880000D03*
X53975000Y-180340000D03*
X56515000Y-182880000D03*
X56515000Y-180340000D03*
X59055000Y-182880000D03*
X59055000Y-180340000D03*
X61595000Y-182880000D03*
X61595000Y-180340000D03*
X64135000Y-182880000D03*
X64135000Y-180340000D03*
X66675000Y-182880000D03*
X66675000Y-180340000D03*
X69215000Y-182880000D03*
D15*
X69215000Y-180340000D03*
%TD*%
D14*
%TO.C,J11*%
X123825000Y-160020000D03*
X123825000Y-157480000D03*
X126365000Y-160020000D03*
X126365000Y-157480000D03*
X128905000Y-160020000D03*
X128905000Y-157480000D03*
X131445000Y-160020000D03*
X131445000Y-157480000D03*
X133985000Y-160020000D03*
X133985000Y-157480000D03*
X136525000Y-160020000D03*
X136525000Y-157480000D03*
X139065000Y-160020000D03*
X139065000Y-157480000D03*
X141605000Y-160020000D03*
D15*
X141605000Y-157480000D03*
%TD*%
D14*
%TO.C,J10*%
X99695000Y-160020000D03*
X99695000Y-157480000D03*
X102235000Y-160020000D03*
X102235000Y-157480000D03*
X104775000Y-160020000D03*
X104775000Y-157480000D03*
X107315000Y-160020000D03*
X107315000Y-157480000D03*
X109855000Y-160020000D03*
X109855000Y-157480000D03*
X112395000Y-160020000D03*
X112395000Y-157480000D03*
X114935000Y-160020000D03*
X114935000Y-157480000D03*
X117475000Y-160020000D03*
D15*
X117475000Y-157480000D03*
%TD*%
D14*
%TO.C,J9*%
X75565000Y-160020000D03*
X75565000Y-157480000D03*
X78105000Y-160020000D03*
X78105000Y-157480000D03*
X80645000Y-160020000D03*
X80645000Y-157480000D03*
X83185000Y-160020000D03*
X83185000Y-157480000D03*
X85725000Y-160020000D03*
X85725000Y-157480000D03*
X88265000Y-160020000D03*
X88265000Y-157480000D03*
X90805000Y-160020000D03*
X90805000Y-157480000D03*
X93345000Y-160020000D03*
D15*
X93345000Y-157480000D03*
%TD*%
D14*
%TO.C,J8*%
X51435000Y-160020000D03*
X51435000Y-157480000D03*
X53975000Y-160020000D03*
X53975000Y-157480000D03*
X56515000Y-160020000D03*
X56515000Y-157480000D03*
X59055000Y-160020000D03*
X59055000Y-157480000D03*
X61595000Y-160020000D03*
X61595000Y-157480000D03*
X64135000Y-160020000D03*
X64135000Y-157480000D03*
X66675000Y-160020000D03*
X66675000Y-157480000D03*
X69215000Y-160020000D03*
D15*
X69215000Y-157480000D03*
%TD*%
D14*
%TO.C,J7*%
X123825000Y-137160000D03*
X123825000Y-134620000D03*
X126365000Y-137160000D03*
X126365000Y-134620000D03*
X128905000Y-137160000D03*
X128905000Y-134620000D03*
X131445000Y-137160000D03*
X131445000Y-134620000D03*
X133985000Y-137160000D03*
X133985000Y-134620000D03*
X136525000Y-137160000D03*
X136525000Y-134620000D03*
X139065000Y-137160000D03*
X139065000Y-134620000D03*
X141605000Y-137160000D03*
D15*
X141605000Y-134620000D03*
%TD*%
D14*
%TO.C,J6*%
X99695000Y-137160000D03*
X99695000Y-134620000D03*
X102235000Y-137160000D03*
X102235000Y-134620000D03*
X104775000Y-137160000D03*
X104775000Y-134620000D03*
X107315000Y-137160000D03*
X107315000Y-134620000D03*
X109855000Y-137160000D03*
X109855000Y-134620000D03*
X112395000Y-137160000D03*
X112395000Y-134620000D03*
X114935000Y-137160000D03*
X114935000Y-134620000D03*
X117475000Y-137160000D03*
D15*
X117475000Y-134620000D03*
%TD*%
D14*
%TO.C,J5*%
X75565000Y-137160000D03*
X75565000Y-134620000D03*
X78105000Y-137160000D03*
X78105000Y-134620000D03*
X80645000Y-137160000D03*
X80645000Y-134620000D03*
X83185000Y-137160000D03*
X83185000Y-134620000D03*
X85725000Y-137160000D03*
X85725000Y-134620000D03*
X88265000Y-137160000D03*
X88265000Y-134620000D03*
X90805000Y-137160000D03*
X90805000Y-134620000D03*
X93345000Y-137160000D03*
D15*
X93345000Y-134620000D03*
%TD*%
D14*
%TO.C,J4*%
X51435000Y-137160000D03*
X51435000Y-134620000D03*
X53975000Y-137160000D03*
X53975000Y-134620000D03*
X56515000Y-137160000D03*
X56515000Y-134620000D03*
X59055000Y-137160000D03*
X59055000Y-134620000D03*
X61595000Y-137160000D03*
X61595000Y-134620000D03*
X64135000Y-137160000D03*
X64135000Y-134620000D03*
X66675000Y-137160000D03*
X66675000Y-134620000D03*
X69215000Y-137160000D03*
D15*
X69215000Y-134620000D03*
%TD*%
D11*
%TO.C,J3*%
X31640000Y-29210000D03*
D19*
X33640000Y-33710000D03*
X33640000Y-24710000D03*
D20*
X34640000Y-29210000D03*
D21*
X40640000Y-29210000D03*
%TD*%
D22*
%TO.C,J1*%
X39740000Y-60040000D03*
X39740000Y-72080000D03*
D23*
X42450000Y-67310000D03*
X42450000Y-64810000D03*
X44450000Y-64810000D03*
D15*
X44450000Y-67310000D03*
%TD*%
D13*
%TO.C,D86*%
X123825000Y-221615000D03*
D12*
X123825000Y-213995000D03*
%TD*%
D13*
%TO.C,D85*%
X126365000Y-221615000D03*
D12*
X126365000Y-213995000D03*
%TD*%
D13*
%TO.C,D84*%
X128905000Y-221615000D03*
D12*
X128905000Y-213995000D03*
%TD*%
D13*
%TO.C,D83*%
X131445000Y-221615000D03*
D12*
X131445000Y-213995000D03*
%TD*%
D13*
%TO.C,D82*%
X133985000Y-221615000D03*
D12*
X133985000Y-213995000D03*
%TD*%
D13*
%TO.C,D81*%
X136525000Y-221615000D03*
D12*
X136525000Y-213995000D03*
%TD*%
D13*
%TO.C,D80*%
X139065000Y-221615000D03*
D12*
X139065000Y-213995000D03*
%TD*%
D13*
%TO.C,D79*%
X141605000Y-221615000D03*
D12*
X141605000Y-213995000D03*
%TD*%
D13*
%TO.C,D78*%
X75565000Y-221615000D03*
D12*
X75565000Y-213995000D03*
%TD*%
D13*
%TO.C,D77*%
X78105000Y-221615000D03*
D12*
X78105000Y-213995000D03*
%TD*%
D13*
%TO.C,D76*%
X80645000Y-221615000D03*
D12*
X80645000Y-213995000D03*
%TD*%
D13*
%TO.C,D75*%
X83185000Y-221615000D03*
D12*
X83185000Y-213995000D03*
%TD*%
D13*
%TO.C,D74*%
X85725000Y-221615000D03*
D12*
X85725000Y-213995000D03*
%TD*%
D13*
%TO.C,D73*%
X88265000Y-221615000D03*
D12*
X88265000Y-213995000D03*
%TD*%
D13*
%TO.C,D72*%
X90805000Y-221615000D03*
D12*
X90805000Y-213995000D03*
%TD*%
D13*
%TO.C,D71*%
X93345000Y-221615000D03*
D12*
X93345000Y-213995000D03*
%TD*%
D13*
%TO.C,D70*%
X123825000Y-199390000D03*
D12*
X123825000Y-191770000D03*
%TD*%
D13*
%TO.C,D69*%
X126365000Y-199390000D03*
D12*
X126365000Y-191770000D03*
%TD*%
D13*
%TO.C,D68*%
X128905000Y-199390000D03*
D12*
X128905000Y-191770000D03*
%TD*%
D13*
%TO.C,D67*%
X131445000Y-199390000D03*
D12*
X131445000Y-191770000D03*
%TD*%
D13*
%TO.C,D66*%
X133985000Y-199390000D03*
D12*
X133985000Y-191770000D03*
%TD*%
D13*
%TO.C,D65*%
X136525000Y-199390000D03*
D12*
X136525000Y-191770000D03*
%TD*%
D13*
%TO.C,D64*%
X139065000Y-199390000D03*
D12*
X139065000Y-191770000D03*
%TD*%
D13*
%TO.C,D63*%
X141605000Y-199390000D03*
D12*
X141605000Y-191770000D03*
%TD*%
D13*
%TO.C,D62*%
X75438000Y-199263000D03*
D12*
X75438000Y-191643000D03*
%TD*%
D13*
%TO.C,D61*%
X77978000Y-199263000D03*
D12*
X77978000Y-191643000D03*
%TD*%
D13*
%TO.C,D60*%
X80518000Y-199263000D03*
D12*
X80518000Y-191643000D03*
%TD*%
D13*
%TO.C,D59*%
X83058000Y-199263000D03*
D12*
X83058000Y-191643000D03*
%TD*%
D13*
%TO.C,D58*%
X85598000Y-199263000D03*
D12*
X85598000Y-191643000D03*
%TD*%
D13*
%TO.C,D57*%
X88138000Y-199263000D03*
D12*
X88138000Y-191643000D03*
%TD*%
D13*
%TO.C,D56*%
X90678000Y-199263000D03*
D12*
X90678000Y-191643000D03*
%TD*%
D13*
%TO.C,D55*%
X93218000Y-199263000D03*
D12*
X93218000Y-191643000D03*
%TD*%
D13*
%TO.C,D54*%
X123698000Y-176403000D03*
D12*
X123698000Y-168783000D03*
%TD*%
D13*
%TO.C,D53*%
X126238000Y-176403000D03*
D12*
X126238000Y-168783000D03*
%TD*%
D13*
%TO.C,D52*%
X128778000Y-176403000D03*
D12*
X128778000Y-168783000D03*
%TD*%
D13*
%TO.C,D51*%
X131318000Y-176403000D03*
D12*
X131318000Y-168783000D03*
%TD*%
D13*
%TO.C,D50*%
X133858000Y-176403000D03*
D12*
X133858000Y-168783000D03*
%TD*%
D13*
%TO.C,D49*%
X136398000Y-176403000D03*
D12*
X136398000Y-168783000D03*
%TD*%
D13*
%TO.C,D48*%
X138938000Y-176403000D03*
D12*
X138938000Y-168783000D03*
%TD*%
D13*
%TO.C,D47*%
X141478000Y-176403000D03*
D12*
X141478000Y-168783000D03*
%TD*%
D13*
%TO.C,D46*%
X75438000Y-176403000D03*
D12*
X75438000Y-168783000D03*
%TD*%
D13*
%TO.C,D45*%
X77978000Y-176403000D03*
D12*
X77978000Y-168783000D03*
%TD*%
D13*
%TO.C,D44*%
X80518000Y-176403000D03*
D12*
X80518000Y-168783000D03*
%TD*%
D13*
%TO.C,D43*%
X83058000Y-176403000D03*
D12*
X83058000Y-168783000D03*
%TD*%
D13*
%TO.C,D42*%
X85598000Y-176403000D03*
D12*
X85598000Y-168783000D03*
%TD*%
D13*
%TO.C,D41*%
X88138000Y-176403000D03*
D12*
X88138000Y-168783000D03*
%TD*%
D13*
%TO.C,D40*%
X90678000Y-176403000D03*
D12*
X90678000Y-168783000D03*
%TD*%
D13*
%TO.C,D39*%
X93218000Y-176403000D03*
D12*
X93218000Y-168783000D03*
%TD*%
D13*
%TO.C,D38*%
X123825000Y-153670000D03*
D12*
X123825000Y-146050000D03*
%TD*%
D13*
%TO.C,D37*%
X126365000Y-153670000D03*
D12*
X126365000Y-146050000D03*
%TD*%
D13*
%TO.C,D36*%
X128905000Y-153670000D03*
D12*
X128905000Y-146050000D03*
%TD*%
D13*
%TO.C,D35*%
X131445000Y-153670000D03*
D12*
X131445000Y-146050000D03*
%TD*%
D13*
%TO.C,D34*%
X133985000Y-153670000D03*
D12*
X133985000Y-146050000D03*
%TD*%
D13*
%TO.C,D33*%
X136525000Y-153670000D03*
D12*
X136525000Y-146050000D03*
%TD*%
D13*
%TO.C,D32*%
X139065000Y-153670000D03*
D12*
X139065000Y-146050000D03*
%TD*%
D13*
%TO.C,D31*%
X141605000Y-153670000D03*
D12*
X141605000Y-146050000D03*
%TD*%
D13*
%TO.C,D30*%
X75565000Y-153670000D03*
D12*
X75565000Y-146050000D03*
%TD*%
D13*
%TO.C,D29*%
X78105000Y-153670000D03*
D12*
X78105000Y-146050000D03*
%TD*%
D13*
%TO.C,D28*%
X80645000Y-153670000D03*
D12*
X80645000Y-146050000D03*
%TD*%
D13*
%TO.C,D27*%
X83185000Y-153670000D03*
D12*
X83185000Y-146050000D03*
%TD*%
D13*
%TO.C,D26*%
X85725000Y-153670000D03*
D12*
X85725000Y-146050000D03*
%TD*%
D13*
%TO.C,D25*%
X88265000Y-153670000D03*
D12*
X88265000Y-146050000D03*
%TD*%
D13*
%TO.C,D24*%
X90805000Y-153670000D03*
D12*
X90805000Y-146050000D03*
%TD*%
D13*
%TO.C,D23*%
X93345000Y-153670000D03*
D12*
X93345000Y-146050000D03*
%TD*%
D13*
%TO.C,D22*%
X123825000Y-130810000D03*
D12*
X123825000Y-123190000D03*
%TD*%
D13*
%TO.C,D21*%
X126365000Y-130810000D03*
D12*
X126365000Y-123190000D03*
%TD*%
D13*
%TO.C,D20*%
X128905000Y-130810000D03*
D12*
X128905000Y-123190000D03*
%TD*%
D13*
%TO.C,D19*%
X131445000Y-130810000D03*
D12*
X131445000Y-123190000D03*
%TD*%
D13*
%TO.C,D18*%
X133985000Y-130810000D03*
D12*
X133985000Y-123190000D03*
%TD*%
D13*
%TO.C,D17*%
X136525000Y-130810000D03*
D12*
X136525000Y-123190000D03*
%TD*%
D13*
%TO.C,D16*%
X139065000Y-130810000D03*
D12*
X139065000Y-123190000D03*
%TD*%
D13*
%TO.C,D15*%
X141605000Y-130810000D03*
D12*
X141605000Y-123190000D03*
%TD*%
D13*
%TO.C,D14*%
X75565000Y-130810000D03*
D12*
X75565000Y-123190000D03*
%TD*%
D13*
%TO.C,D13*%
X78105000Y-130810000D03*
D12*
X78105000Y-123190000D03*
%TD*%
D13*
%TO.C,D12*%
X80645000Y-130810000D03*
D12*
X80645000Y-123190000D03*
%TD*%
D13*
%TO.C,D11*%
X83185000Y-130810000D03*
D12*
X83185000Y-123190000D03*
%TD*%
D13*
%TO.C,D10*%
X85725000Y-130810000D03*
D12*
X85725000Y-123190000D03*
%TD*%
D13*
%TO.C,D9*%
X88265000Y-130810000D03*
D12*
X88265000Y-123190000D03*
%TD*%
D13*
%TO.C,D8*%
X90805000Y-130810000D03*
D12*
X90805000Y-123190000D03*
%TD*%
D13*
%TO.C,D7*%
X93345000Y-130810000D03*
D12*
X93345000Y-123190000D03*
%TD*%
D24*
%TO.C,D6*%
X73025000Y-81280000D03*
D25*
X70485000Y-81280000D03*
%TD*%
D24*
%TO.C,D5*%
X76200000Y-81280000D03*
D25*
X78740000Y-81280000D03*
%TD*%
D24*
%TO.C,D2*%
X57150000Y-35560000D03*
D25*
X57150000Y-38100000D03*
%TD*%
D24*
%TO.C,D1*%
X52070000Y-35560000D03*
D25*
X52070000Y-38100000D03*
%TD*%
D11*
%TO.C,C16*%
X147320000Y-102790000D03*
D12*
X147320000Y-97790000D03*
%TD*%
D11*
%TO.C,C15*%
X147320000Y-92630000D03*
D12*
X147320000Y-87630000D03*
%TD*%
D11*
%TO.C,C14*%
X147320000Y-82470000D03*
D12*
X147320000Y-77470000D03*
%TD*%
D11*
%TO.C,C13*%
X147320000Y-72310000D03*
D12*
X147320000Y-67310000D03*
%TD*%
D11*
%TO.C,C12*%
X147320000Y-62150000D03*
D12*
X147320000Y-57150000D03*
%TD*%
D11*
%TO.C,C11*%
X147320000Y-51990000D03*
D12*
X147320000Y-46990000D03*
%TD*%
D11*
%TO.C,C10*%
X147320000Y-41830000D03*
D12*
X147320000Y-36830000D03*
%TD*%
%TO.C,C9*%
X38100000Y-50800000D03*
D11*
X43100000Y-50800000D03*
%TD*%
%TO.C,C8*%
X57150000Y-72310000D03*
D12*
X57150000Y-67310000D03*
%TD*%
D11*
%TO.C,C7*%
X74850000Y-50165000D03*
D12*
X69850000Y-50165000D03*
%TD*%
D11*
%TO.C,C6*%
X118745000Y-54530000D03*
D12*
X118745000Y-49530000D03*
%TD*%
D11*
%TO.C,C5*%
X72390000Y-73580000D03*
D12*
X72390000Y-68580000D03*
%TD*%
D11*
%TO.C,C4*%
X83820000Y-73580000D03*
D12*
X83820000Y-68580000D03*
%TD*%
D11*
%TO.C,C3*%
X147320000Y-31670000D03*
D12*
X147320000Y-26670000D03*
%TD*%
D11*
%TO.C,C2*%
X52070000Y-24210000D03*
D12*
X52070000Y-29210000D03*
%TD*%
D11*
%TO.C,C1*%
X127635000Y-54530000D03*
D12*
X127635000Y-49530000D03*
%TD*%
M02*
