%TF.GenerationSoftware,KiCad,Pcbnew,6.0.2+dfsg-1*%
%TF.CreationDate,2023-03-25T11:12:12-04:00*%
%TF.ProjectId,PCB_LeftPanel,5043425f-4c65-4667-9450-616e656c2e6b,1*%
%TF.SameCoordinates,Original*%
%TF.FileFunction,Soldermask,Top*%
%TF.FilePolarity,Negative*%
%FSLAX46Y46*%
G04 Gerber Fmt 4.6, Leading zero omitted, Abs format (unit mm)*
G04 Created by KiCad (PCBNEW 6.0.2+dfsg-1) date 2023-03-25 11:12:12*
%MOMM*%
%LPD*%
G01*
G04 APERTURE LIST*
%ADD10R,1.700000X1.700000*%
%ADD11O,1.700000X1.700000*%
%ADD12C,4.000000*%
%ADD13C,1.600000*%
%ADD14R,1.600000X1.600000*%
%ADD15C,2.250000*%
%ADD16O,1.600000X1.600000*%
%ADD17O,1.400000X1.400000*%
%ADD18C,1.400000*%
G04 APERTURE END LIST*
D10*
%TO.C,J36*%
X79771000Y-45212000D03*
D11*
X82311000Y-45212000D03*
X84851000Y-45212000D03*
X87391000Y-45212000D03*
X89931000Y-45212000D03*
X92471000Y-45212000D03*
X95011000Y-45212000D03*
X97551000Y-45212000D03*
%TD*%
%TO.C,J11*%
X141097000Y-159004000D03*
X141097000Y-156464000D03*
X143637000Y-159004000D03*
X143637000Y-156464000D03*
X146177000Y-159004000D03*
X146177000Y-156464000D03*
X148717000Y-159004000D03*
X148717000Y-156464000D03*
X151257000Y-159004000D03*
X151257000Y-156464000D03*
X153797000Y-159004000D03*
X153797000Y-156464000D03*
X156337000Y-159004000D03*
X156337000Y-156464000D03*
X158877000Y-159004000D03*
D10*
X158877000Y-156464000D03*
%TD*%
D12*
%TO.C,J32*%
X118808000Y-58190331D03*
X143808000Y-58190331D03*
D13*
X135463000Y-56770331D03*
X132693000Y-56770331D03*
X129923000Y-56770331D03*
X127153000Y-56770331D03*
X136848000Y-59610331D03*
X134078000Y-59610331D03*
X131308000Y-59610331D03*
X128538000Y-59610331D03*
D14*
X125768000Y-59610331D03*
%TD*%
D15*
%TO.C,J3*%
X34036000Y-145288000D03*
X36576000Y-142748000D03*
X31496000Y-142748000D03*
X31496000Y-147828000D03*
X36576000Y-147828000D03*
%TD*%
%TO.C,J2*%
X34036000Y-131064000D03*
X36576000Y-128524000D03*
X31496000Y-128524000D03*
X31496000Y-133604000D03*
X36576000Y-133604000D03*
%TD*%
%TO.C,J1*%
X34036000Y-116840000D03*
X36576000Y-114300000D03*
X31496000Y-114300000D03*
X31496000Y-119380000D03*
X36576000Y-119380000D03*
%TD*%
D16*
%TO.C,A1*%
X89916000Y-102108000D03*
X92456000Y-102108000D03*
X52836000Y-102108000D03*
X92456000Y-53848000D03*
X55376000Y-102108000D03*
X89916000Y-53848000D03*
X57916000Y-102108000D03*
X87376000Y-53848000D03*
X60456000Y-102108000D03*
X84836000Y-53848000D03*
X62996000Y-102108000D03*
X82296000Y-53848000D03*
X65536000Y-102108000D03*
X79756000Y-53848000D03*
X68076000Y-102108000D03*
X74676000Y-53848000D03*
X70616000Y-102108000D03*
X72136000Y-53848000D03*
X74676000Y-102108000D03*
X69596000Y-53848000D03*
X77216000Y-102108000D03*
X67056000Y-53848000D03*
X79756000Y-102108000D03*
X64516000Y-53848000D03*
X82296000Y-102108000D03*
X61976000Y-53848000D03*
X84836000Y-102108000D03*
X59436000Y-53848000D03*
X87376000Y-102108000D03*
D14*
X56896000Y-53848000D03*
D16*
X50296000Y-102108000D03*
X47756000Y-102108000D03*
%TD*%
D11*
%TO.C,J33*%
X145288000Y-91440000D03*
X142748000Y-91440000D03*
X140208000Y-91440000D03*
X137668000Y-91440000D03*
X135128000Y-91440000D03*
X132588000Y-91440000D03*
X130048000Y-91440000D03*
D10*
X127508000Y-91440000D03*
%TD*%
D16*
%TO.C,U2*%
X127508000Y-76200000D03*
X145288000Y-83820000D03*
X130048000Y-76200000D03*
X142748000Y-83820000D03*
X132588000Y-76200000D03*
X140208000Y-83820000D03*
X135128000Y-76200000D03*
X137668000Y-83820000D03*
X137668000Y-76200000D03*
X135128000Y-83820000D03*
X140208000Y-76200000D03*
X132588000Y-83820000D03*
X142748000Y-76200000D03*
X130048000Y-83820000D03*
X145288000Y-76200000D03*
D14*
X127508000Y-83820000D03*
%TD*%
D17*
%TO.C,R86*%
X116967000Y-212979000D03*
D18*
X116967000Y-220599000D03*
%TD*%
D17*
%TO.C,R85*%
X119507000Y-212979000D03*
D18*
X119507000Y-220599000D03*
%TD*%
D17*
%TO.C,R84*%
X122047000Y-212979000D03*
D18*
X122047000Y-220599000D03*
%TD*%
D17*
%TO.C,R83*%
X124587000Y-212979000D03*
D18*
X124587000Y-220599000D03*
%TD*%
D17*
%TO.C,R82*%
X127127000Y-212979000D03*
D18*
X127127000Y-220599000D03*
%TD*%
D17*
%TO.C,R81*%
X129667000Y-212979000D03*
D18*
X129667000Y-220599000D03*
%TD*%
D17*
%TO.C,R80*%
X132207000Y-212979000D03*
D18*
X132207000Y-220599000D03*
%TD*%
D17*
%TO.C,R79*%
X134747000Y-212979000D03*
D18*
X134747000Y-220599000D03*
%TD*%
D17*
%TO.C,R78*%
X68707000Y-212979000D03*
D18*
X68707000Y-220599000D03*
%TD*%
D17*
%TO.C,R77*%
X71247000Y-212979000D03*
D18*
X71247000Y-220599000D03*
%TD*%
D17*
%TO.C,R76*%
X73787000Y-212979000D03*
D18*
X73787000Y-220599000D03*
%TD*%
D17*
%TO.C,R75*%
X76327000Y-212979000D03*
D18*
X76327000Y-220599000D03*
%TD*%
D17*
%TO.C,R74*%
X78867000Y-212979000D03*
D18*
X78867000Y-220599000D03*
%TD*%
D17*
%TO.C,R73*%
X81407000Y-212979000D03*
D18*
X81407000Y-220599000D03*
%TD*%
D17*
%TO.C,R72*%
X83947000Y-212979000D03*
D18*
X83947000Y-220599000D03*
%TD*%
D17*
%TO.C,R71*%
X86487000Y-212979000D03*
D18*
X86487000Y-220599000D03*
%TD*%
D17*
%TO.C,R70*%
X116967000Y-190754000D03*
D18*
X116967000Y-198374000D03*
%TD*%
D17*
%TO.C,R69*%
X119507000Y-190754000D03*
D18*
X119507000Y-198374000D03*
%TD*%
D17*
%TO.C,R68*%
X122047000Y-190754000D03*
D18*
X122047000Y-198374000D03*
%TD*%
D17*
%TO.C,R67*%
X124587000Y-190754000D03*
D18*
X124587000Y-198374000D03*
%TD*%
D17*
%TO.C,R66*%
X127127000Y-190754000D03*
D18*
X127127000Y-198374000D03*
%TD*%
D17*
%TO.C,R65*%
X129667000Y-190754000D03*
D18*
X129667000Y-198374000D03*
%TD*%
D17*
%TO.C,R64*%
X132207000Y-190754000D03*
D18*
X132207000Y-198374000D03*
%TD*%
D17*
%TO.C,R63*%
X134747000Y-190754000D03*
D18*
X134747000Y-198374000D03*
%TD*%
D17*
%TO.C,R62*%
X68834000Y-190627000D03*
D18*
X68834000Y-198247000D03*
%TD*%
D17*
%TO.C,R61*%
X71374000Y-190627000D03*
D18*
X71374000Y-198247000D03*
%TD*%
D17*
%TO.C,R60*%
X73914000Y-190627000D03*
D18*
X73914000Y-198247000D03*
%TD*%
D17*
%TO.C,R59*%
X76454000Y-190627000D03*
D18*
X76454000Y-198247000D03*
%TD*%
D17*
%TO.C,R58*%
X78994000Y-190627000D03*
D18*
X78994000Y-198247000D03*
%TD*%
D17*
%TO.C,R57*%
X81534000Y-190627000D03*
D18*
X81534000Y-198247000D03*
%TD*%
D17*
%TO.C,R56*%
X84074000Y-190627000D03*
D18*
X84074000Y-198247000D03*
%TD*%
D17*
%TO.C,R55*%
X86614000Y-190627000D03*
D18*
X86614000Y-198247000D03*
%TD*%
D17*
%TO.C,R54*%
X117094000Y-167767000D03*
D18*
X117094000Y-175387000D03*
%TD*%
D17*
%TO.C,R53*%
X119634000Y-167767000D03*
D18*
X119634000Y-175387000D03*
%TD*%
D17*
%TO.C,R52*%
X122174000Y-167767000D03*
D18*
X122174000Y-175387000D03*
%TD*%
D17*
%TO.C,R51*%
X124714000Y-167767000D03*
D18*
X124714000Y-175387000D03*
%TD*%
D17*
%TO.C,R50*%
X127254000Y-167767000D03*
D18*
X127254000Y-175387000D03*
%TD*%
D17*
%TO.C,R49*%
X129794000Y-167767000D03*
D18*
X129794000Y-175387000D03*
%TD*%
D17*
%TO.C,R48*%
X132334000Y-167767000D03*
D18*
X132334000Y-175387000D03*
%TD*%
D17*
%TO.C,R47*%
X134874000Y-167767000D03*
D18*
X134874000Y-175387000D03*
%TD*%
D17*
%TO.C,R46*%
X68834000Y-167767000D03*
D18*
X68834000Y-175387000D03*
%TD*%
D17*
%TO.C,R45*%
X71374000Y-167767000D03*
D18*
X71374000Y-175387000D03*
%TD*%
D17*
%TO.C,R44*%
X73914000Y-167767000D03*
D18*
X73914000Y-175387000D03*
%TD*%
D17*
%TO.C,R43*%
X76454000Y-167767000D03*
D18*
X76454000Y-175387000D03*
%TD*%
D17*
%TO.C,R42*%
X78867000Y-167894000D03*
D18*
X78867000Y-175514000D03*
%TD*%
D17*
%TO.C,R41*%
X81407000Y-167894000D03*
D18*
X81407000Y-175514000D03*
%TD*%
D17*
%TO.C,R40*%
X83947000Y-167894000D03*
D18*
X83947000Y-175514000D03*
%TD*%
D17*
%TO.C,R39*%
X86487000Y-167894000D03*
D18*
X86487000Y-175514000D03*
%TD*%
D17*
%TO.C,R38*%
X116967000Y-145034000D03*
D18*
X116967000Y-152654000D03*
%TD*%
D17*
%TO.C,R37*%
X119507000Y-145034000D03*
D18*
X119507000Y-152654000D03*
%TD*%
D17*
%TO.C,R36*%
X122047000Y-145034000D03*
D18*
X122047000Y-152654000D03*
%TD*%
D17*
%TO.C,R35*%
X124587000Y-145034000D03*
D18*
X124587000Y-152654000D03*
%TD*%
D17*
%TO.C,R34*%
X127127000Y-145034000D03*
D18*
X127127000Y-152654000D03*
%TD*%
D17*
%TO.C,R33*%
X129667000Y-145034000D03*
D18*
X129667000Y-152654000D03*
%TD*%
D17*
%TO.C,R32*%
X132207000Y-145034000D03*
D18*
X132207000Y-152654000D03*
%TD*%
D17*
%TO.C,R31*%
X134747000Y-145034000D03*
D18*
X134747000Y-152654000D03*
%TD*%
D17*
%TO.C,R30*%
X68707000Y-145034000D03*
D18*
X68707000Y-152654000D03*
%TD*%
D17*
%TO.C,R29*%
X71247000Y-145034000D03*
D18*
X71247000Y-152654000D03*
%TD*%
D17*
%TO.C,R28*%
X73787000Y-145034000D03*
D18*
X73787000Y-152654000D03*
%TD*%
D17*
%TO.C,R27*%
X76327000Y-145034000D03*
D18*
X76327000Y-152654000D03*
%TD*%
D17*
%TO.C,R26*%
X78867000Y-145034000D03*
D18*
X78867000Y-152654000D03*
%TD*%
D17*
%TO.C,R25*%
X81407000Y-145034000D03*
D18*
X81407000Y-152654000D03*
%TD*%
D17*
%TO.C,R24*%
X83947000Y-145034000D03*
D18*
X83947000Y-152654000D03*
%TD*%
D17*
%TO.C,R23*%
X86487000Y-145034000D03*
D18*
X86487000Y-152654000D03*
%TD*%
D17*
%TO.C,R22*%
X116967000Y-122174000D03*
D18*
X116967000Y-129794000D03*
%TD*%
D17*
%TO.C,R21*%
X119507000Y-122174000D03*
D18*
X119507000Y-129794000D03*
%TD*%
D17*
%TO.C,R20*%
X122047000Y-122174000D03*
D18*
X122047000Y-129794000D03*
%TD*%
D17*
%TO.C,R19*%
X124587000Y-122174000D03*
D18*
X124587000Y-129794000D03*
%TD*%
D17*
%TO.C,R18*%
X127127000Y-122174000D03*
D18*
X127127000Y-129794000D03*
%TD*%
D17*
%TO.C,R17*%
X129667000Y-122174000D03*
D18*
X129667000Y-129794000D03*
%TD*%
D17*
%TO.C,R16*%
X132207000Y-122174000D03*
D18*
X132207000Y-129794000D03*
%TD*%
D17*
%TO.C,R15*%
X134747000Y-122174000D03*
D18*
X134747000Y-129794000D03*
%TD*%
D17*
%TO.C,R14*%
X68707000Y-122174000D03*
D18*
X68707000Y-129794000D03*
%TD*%
D17*
%TO.C,R13*%
X71247000Y-122174000D03*
D18*
X71247000Y-129794000D03*
%TD*%
D17*
%TO.C,R12*%
X73787000Y-122174000D03*
D18*
X73787000Y-129794000D03*
%TD*%
D17*
%TO.C,R11*%
X76327000Y-122174000D03*
D18*
X76327000Y-129794000D03*
%TD*%
D17*
%TO.C,R10*%
X78867000Y-122174000D03*
D18*
X78867000Y-129794000D03*
%TD*%
D17*
%TO.C,R9*%
X81407000Y-122174000D03*
D18*
X81407000Y-129794000D03*
%TD*%
D17*
%TO.C,R8*%
X83947000Y-122174000D03*
D18*
X83947000Y-129794000D03*
%TD*%
D17*
%TO.C,R7*%
X86487000Y-122174000D03*
D18*
X86487000Y-129794000D03*
%TD*%
D16*
%TO.C,L2*%
X57912000Y-126332000D03*
D13*
X57912000Y-116332000D03*
%TD*%
D16*
%TO.C,L1*%
X48768000Y-126332000D03*
D13*
X48768000Y-116332000D03*
%TD*%
D11*
%TO.C,J23*%
X141097000Y-227584000D03*
X141097000Y-225044000D03*
X143637000Y-227584000D03*
X143637000Y-225044000D03*
X146177000Y-227584000D03*
X146177000Y-225044000D03*
X148717000Y-227584000D03*
X148717000Y-225044000D03*
X151257000Y-227584000D03*
X151257000Y-225044000D03*
X153797000Y-227584000D03*
X153797000Y-225044000D03*
X156337000Y-227584000D03*
X156337000Y-225044000D03*
X158877000Y-227584000D03*
D10*
X158877000Y-225044000D03*
%TD*%
D11*
%TO.C,J22*%
X116967000Y-227584000D03*
X116967000Y-225044000D03*
X119507000Y-227584000D03*
X119507000Y-225044000D03*
X122047000Y-227584000D03*
X122047000Y-225044000D03*
X124587000Y-227584000D03*
X124587000Y-225044000D03*
X127127000Y-227584000D03*
X127127000Y-225044000D03*
X129667000Y-227584000D03*
X129667000Y-225044000D03*
X132207000Y-227584000D03*
X132207000Y-225044000D03*
X134747000Y-227584000D03*
D10*
X134747000Y-225044000D03*
%TD*%
D11*
%TO.C,J21*%
X92837000Y-227584000D03*
X92837000Y-225044000D03*
X95377000Y-227584000D03*
X95377000Y-225044000D03*
X97917000Y-227584000D03*
X97917000Y-225044000D03*
X100457000Y-227584000D03*
X100457000Y-225044000D03*
X102997000Y-227584000D03*
X102997000Y-225044000D03*
X105537000Y-227584000D03*
X105537000Y-225044000D03*
X108077000Y-227584000D03*
X108077000Y-225044000D03*
X110617000Y-227584000D03*
D10*
X110617000Y-225044000D03*
%TD*%
D11*
%TO.C,J20*%
X68707000Y-227584000D03*
X68707000Y-225044000D03*
X71247000Y-227584000D03*
X71247000Y-225044000D03*
X73787000Y-227584000D03*
X73787000Y-225044000D03*
X76327000Y-227584000D03*
X76327000Y-225044000D03*
X78867000Y-227584000D03*
X78867000Y-225044000D03*
X81407000Y-227584000D03*
X81407000Y-225044000D03*
X83947000Y-227584000D03*
X83947000Y-225044000D03*
X86487000Y-227584000D03*
D10*
X86487000Y-225044000D03*
%TD*%
D11*
%TO.C,J19*%
X141097000Y-204724000D03*
X141097000Y-202184000D03*
X143637000Y-204724000D03*
X143637000Y-202184000D03*
X146177000Y-204724000D03*
X146177000Y-202184000D03*
X148717000Y-204724000D03*
X148717000Y-202184000D03*
X151257000Y-204724000D03*
X151257000Y-202184000D03*
X153797000Y-204724000D03*
X153797000Y-202184000D03*
X156337000Y-204724000D03*
X156337000Y-202184000D03*
X158877000Y-204724000D03*
D10*
X158877000Y-202184000D03*
%TD*%
D11*
%TO.C,J18*%
X116967000Y-204724000D03*
X116967000Y-202184000D03*
X119507000Y-204724000D03*
X119507000Y-202184000D03*
X122047000Y-204724000D03*
X122047000Y-202184000D03*
X124587000Y-204724000D03*
X124587000Y-202184000D03*
X127127000Y-204724000D03*
X127127000Y-202184000D03*
X129667000Y-204724000D03*
X129667000Y-202184000D03*
X132207000Y-204724000D03*
X132207000Y-202184000D03*
X134747000Y-204724000D03*
D10*
X134747000Y-202184000D03*
%TD*%
D11*
%TO.C,J17*%
X92837000Y-204724000D03*
X92837000Y-202184000D03*
X95377000Y-204724000D03*
X95377000Y-202184000D03*
X97917000Y-204724000D03*
X97917000Y-202184000D03*
X100457000Y-204724000D03*
X100457000Y-202184000D03*
X102997000Y-204724000D03*
X102997000Y-202184000D03*
X105537000Y-204724000D03*
X105537000Y-202184000D03*
X108077000Y-204724000D03*
X108077000Y-202184000D03*
X110617000Y-204724000D03*
D10*
X110617000Y-202184000D03*
%TD*%
D11*
%TO.C,J16*%
X68707000Y-204724000D03*
X68707000Y-202184000D03*
X71247000Y-204724000D03*
X71247000Y-202184000D03*
X73787000Y-204724000D03*
X73787000Y-202184000D03*
X76327000Y-204724000D03*
X76327000Y-202184000D03*
X78867000Y-204724000D03*
X78867000Y-202184000D03*
X81407000Y-204724000D03*
X81407000Y-202184000D03*
X83947000Y-204724000D03*
X83947000Y-202184000D03*
X86487000Y-204724000D03*
D10*
X86487000Y-202184000D03*
%TD*%
D11*
%TO.C,J15*%
X141097000Y-181864000D03*
X141097000Y-179324000D03*
X143637000Y-181864000D03*
X143637000Y-179324000D03*
X146177000Y-181864000D03*
X146177000Y-179324000D03*
X148717000Y-181864000D03*
X148717000Y-179324000D03*
X151257000Y-181864000D03*
X151257000Y-179324000D03*
X153797000Y-181864000D03*
X153797000Y-179324000D03*
X156337000Y-181864000D03*
X156337000Y-179324000D03*
X158877000Y-181864000D03*
D10*
X158877000Y-179324000D03*
%TD*%
D11*
%TO.C,J14*%
X116967000Y-181864000D03*
X116967000Y-179324000D03*
X119507000Y-181864000D03*
X119507000Y-179324000D03*
X122047000Y-181864000D03*
X122047000Y-179324000D03*
X124587000Y-181864000D03*
X124587000Y-179324000D03*
X127127000Y-181864000D03*
X127127000Y-179324000D03*
X129667000Y-181864000D03*
X129667000Y-179324000D03*
X132207000Y-181864000D03*
X132207000Y-179324000D03*
X134747000Y-181864000D03*
D10*
X134747000Y-179324000D03*
%TD*%
D11*
%TO.C,J13*%
X92837000Y-181864000D03*
X92837000Y-179324000D03*
X95377000Y-181864000D03*
X95377000Y-179324000D03*
X97917000Y-181864000D03*
X97917000Y-179324000D03*
X100457000Y-181864000D03*
X100457000Y-179324000D03*
X102997000Y-181864000D03*
X102997000Y-179324000D03*
X105537000Y-181864000D03*
X105537000Y-179324000D03*
X108077000Y-181864000D03*
X108077000Y-179324000D03*
X110617000Y-181864000D03*
D10*
X110617000Y-179324000D03*
%TD*%
D11*
%TO.C,J12*%
X68707000Y-181864000D03*
X68707000Y-179324000D03*
X71247000Y-181864000D03*
X71247000Y-179324000D03*
X73787000Y-181864000D03*
X73787000Y-179324000D03*
X76327000Y-181864000D03*
X76327000Y-179324000D03*
X78867000Y-181864000D03*
X78867000Y-179324000D03*
X81407000Y-181864000D03*
X81407000Y-179324000D03*
X83947000Y-181864000D03*
X83947000Y-179324000D03*
X86487000Y-181864000D03*
D10*
X86487000Y-179324000D03*
%TD*%
D11*
%TO.C,J10*%
X116967000Y-159004000D03*
X116967000Y-156464000D03*
X119507000Y-159004000D03*
X119507000Y-156464000D03*
X122047000Y-159004000D03*
X122047000Y-156464000D03*
X124587000Y-159004000D03*
X124587000Y-156464000D03*
X127127000Y-159004000D03*
X127127000Y-156464000D03*
X129667000Y-159004000D03*
X129667000Y-156464000D03*
X132207000Y-159004000D03*
X132207000Y-156464000D03*
X134747000Y-159004000D03*
D10*
X134747000Y-156464000D03*
%TD*%
D11*
%TO.C,J9*%
X92837000Y-159004000D03*
X92837000Y-156464000D03*
X95377000Y-159004000D03*
X95377000Y-156464000D03*
X97917000Y-159004000D03*
X97917000Y-156464000D03*
X100457000Y-159004000D03*
X100457000Y-156464000D03*
X102997000Y-159004000D03*
X102997000Y-156464000D03*
X105537000Y-159004000D03*
X105537000Y-156464000D03*
X108077000Y-159004000D03*
X108077000Y-156464000D03*
X110617000Y-159004000D03*
D10*
X110617000Y-156464000D03*
%TD*%
D11*
%TO.C,J8*%
X68707000Y-159004000D03*
X68707000Y-156464000D03*
X71247000Y-159004000D03*
X71247000Y-156464000D03*
X73787000Y-159004000D03*
X73787000Y-156464000D03*
X76327000Y-159004000D03*
X76327000Y-156464000D03*
X78867000Y-159004000D03*
X78867000Y-156464000D03*
X81407000Y-159004000D03*
X81407000Y-156464000D03*
X83947000Y-159004000D03*
X83947000Y-156464000D03*
X86487000Y-159004000D03*
D10*
X86487000Y-156464000D03*
%TD*%
D11*
%TO.C,J7*%
X141097000Y-136144000D03*
X141097000Y-133604000D03*
X143637000Y-136144000D03*
X143637000Y-133604000D03*
X146177000Y-136144000D03*
X146177000Y-133604000D03*
X148717000Y-136144000D03*
X148717000Y-133604000D03*
X151257000Y-136144000D03*
X151257000Y-133604000D03*
X153797000Y-136144000D03*
X153797000Y-133604000D03*
X156337000Y-136144000D03*
X156337000Y-133604000D03*
X158877000Y-136144000D03*
D10*
X158877000Y-133604000D03*
%TD*%
D11*
%TO.C,J6*%
X116967000Y-136144000D03*
X116967000Y-133604000D03*
X119507000Y-136144000D03*
X119507000Y-133604000D03*
X122047000Y-136144000D03*
X122047000Y-133604000D03*
X124587000Y-136144000D03*
X124587000Y-133604000D03*
X127127000Y-136144000D03*
X127127000Y-133604000D03*
X129667000Y-136144000D03*
X129667000Y-133604000D03*
X132207000Y-136144000D03*
X132207000Y-133604000D03*
X134747000Y-136144000D03*
D10*
X134747000Y-133604000D03*
%TD*%
D11*
%TO.C,J5*%
X92837000Y-136144000D03*
X92837000Y-133604000D03*
X95377000Y-136144000D03*
X95377000Y-133604000D03*
X97917000Y-136144000D03*
X97917000Y-133604000D03*
X100457000Y-136144000D03*
X100457000Y-133604000D03*
X102997000Y-136144000D03*
X102997000Y-133604000D03*
X105537000Y-136144000D03*
X105537000Y-133604000D03*
X108077000Y-136144000D03*
X108077000Y-133604000D03*
X110617000Y-136144000D03*
D10*
X110617000Y-133604000D03*
%TD*%
D11*
%TO.C,J4*%
X68707000Y-136144000D03*
X68707000Y-133604000D03*
X71247000Y-136144000D03*
X71247000Y-133604000D03*
X73787000Y-136144000D03*
X73787000Y-133604000D03*
X76327000Y-136144000D03*
X76327000Y-133604000D03*
X78867000Y-136144000D03*
X78867000Y-133604000D03*
X81407000Y-136144000D03*
X81407000Y-133604000D03*
X83947000Y-136144000D03*
X83947000Y-133604000D03*
X86487000Y-136144000D03*
D10*
X86487000Y-133604000D03*
%TD*%
D16*
%TO.C,D84*%
X146177000Y-212979000D03*
D14*
X146177000Y-220599000D03*
%TD*%
D16*
%TO.C,D83*%
X148717000Y-212979000D03*
D14*
X148717000Y-220599000D03*
%TD*%
D16*
%TO.C,D82*%
X151257000Y-212979000D03*
D14*
X151257000Y-220599000D03*
%TD*%
D16*
%TO.C,D81*%
X153797000Y-212979000D03*
D14*
X153797000Y-220599000D03*
%TD*%
D16*
%TO.C,D80*%
X156337000Y-212979000D03*
D14*
X156337000Y-220599000D03*
%TD*%
D16*
%TO.C,D79*%
X158877000Y-212979000D03*
D14*
X158877000Y-220599000D03*
%TD*%
D16*
%TO.C,D76*%
X98044000Y-213106000D03*
D14*
X98044000Y-220726000D03*
%TD*%
D16*
%TO.C,D75*%
X100584000Y-213106000D03*
D14*
X100584000Y-220726000D03*
%TD*%
D16*
%TO.C,D74*%
X103124000Y-213106000D03*
D14*
X103124000Y-220726000D03*
%TD*%
D16*
%TO.C,D73*%
X105664000Y-213106000D03*
D14*
X105664000Y-220726000D03*
%TD*%
D16*
%TO.C,D72*%
X108077000Y-213106000D03*
D14*
X108077000Y-220726000D03*
%TD*%
D16*
%TO.C,D71*%
X110617000Y-213106000D03*
D14*
X110617000Y-220726000D03*
%TD*%
D16*
%TO.C,D68*%
X146177000Y-190754000D03*
D14*
X146177000Y-198374000D03*
%TD*%
D16*
%TO.C,D67*%
X148717000Y-190754000D03*
D14*
X148717000Y-198374000D03*
%TD*%
D16*
%TO.C,D66*%
X151257000Y-190754000D03*
D14*
X151257000Y-198374000D03*
%TD*%
%TO.C,D65*%
X153797000Y-198374000D03*
D16*
X153797000Y-190754000D03*
%TD*%
%TO.C,D64*%
X156337000Y-190754000D03*
D14*
X156337000Y-198374000D03*
%TD*%
D16*
%TO.C,D63*%
X158877000Y-190754000D03*
D14*
X158877000Y-198374000D03*
%TD*%
D16*
%TO.C,D60*%
X97790000Y-190500000D03*
D14*
X97790000Y-198120000D03*
%TD*%
D16*
%TO.C,D59*%
X100330000Y-190500000D03*
D14*
X100330000Y-198120000D03*
%TD*%
D16*
%TO.C,D58*%
X102870000Y-190500000D03*
D14*
X102870000Y-198120000D03*
%TD*%
D16*
%TO.C,D57*%
X105410000Y-190500000D03*
D14*
X105410000Y-198120000D03*
%TD*%
D16*
%TO.C,D56*%
X107950000Y-190500000D03*
D14*
X107950000Y-198120000D03*
%TD*%
D16*
%TO.C,D55*%
X110490000Y-190500000D03*
D14*
X110490000Y-198120000D03*
%TD*%
D16*
%TO.C,D52*%
X146050000Y-167767000D03*
D14*
X146050000Y-175387000D03*
%TD*%
D16*
%TO.C,D51*%
X148590000Y-167767000D03*
D14*
X148590000Y-175387000D03*
%TD*%
D16*
%TO.C,D50*%
X151130000Y-167767000D03*
D14*
X151130000Y-175387000D03*
%TD*%
D16*
%TO.C,D49*%
X153670000Y-167767000D03*
D14*
X153670000Y-175387000D03*
%TD*%
D16*
%TO.C,D48*%
X156210000Y-167767000D03*
D14*
X156210000Y-175387000D03*
%TD*%
D16*
%TO.C,D47*%
X158750000Y-167767000D03*
D14*
X158750000Y-175387000D03*
%TD*%
%TO.C,D44*%
X97790000Y-175514000D03*
D16*
X97790000Y-167894000D03*
%TD*%
D14*
%TO.C,D43*%
X100330000Y-175514000D03*
D16*
X100330000Y-167894000D03*
%TD*%
D14*
%TO.C,D42*%
X102870000Y-175514000D03*
D16*
X102870000Y-167894000D03*
%TD*%
D14*
%TO.C,D41*%
X105410000Y-175514000D03*
D16*
X105410000Y-167894000D03*
%TD*%
%TO.C,D40*%
X107950000Y-167894000D03*
D14*
X107950000Y-175514000D03*
%TD*%
D16*
%TO.C,D39*%
X110490000Y-167894000D03*
D14*
X110490000Y-175514000D03*
%TD*%
D16*
%TO.C,D36*%
X146177000Y-145034000D03*
D14*
X146177000Y-152654000D03*
%TD*%
D16*
%TO.C,D35*%
X148717000Y-145034000D03*
D14*
X148717000Y-152654000D03*
%TD*%
D16*
%TO.C,D34*%
X151257000Y-145034000D03*
D14*
X151257000Y-152654000D03*
%TD*%
D16*
%TO.C,D33*%
X153797000Y-145034000D03*
D14*
X153797000Y-152654000D03*
%TD*%
D16*
%TO.C,D32*%
X156337000Y-145034000D03*
D14*
X156337000Y-152654000D03*
%TD*%
D16*
%TO.C,D31*%
X158877000Y-145034000D03*
D14*
X158877000Y-152654000D03*
%TD*%
D16*
%TO.C,D28*%
X97917000Y-145034000D03*
D14*
X97917000Y-152654000D03*
%TD*%
D16*
%TO.C,D27*%
X100457000Y-145034000D03*
D14*
X100457000Y-152654000D03*
%TD*%
D16*
%TO.C,D26*%
X102997000Y-145034000D03*
D14*
X102997000Y-152654000D03*
%TD*%
D16*
%TO.C,D25*%
X105664000Y-145034000D03*
D14*
X105664000Y-152654000D03*
%TD*%
D16*
%TO.C,D24*%
X108204000Y-145034000D03*
D14*
X108204000Y-152654000D03*
%TD*%
D16*
%TO.C,D23*%
X110744000Y-145034000D03*
D14*
X110744000Y-152654000D03*
%TD*%
D16*
%TO.C,D20*%
X146177000Y-122174000D03*
D14*
X146177000Y-129794000D03*
%TD*%
D16*
%TO.C,D19*%
X148717000Y-122174000D03*
D14*
X148717000Y-129794000D03*
%TD*%
D16*
%TO.C,D18*%
X151257000Y-122174000D03*
D14*
X151257000Y-129794000D03*
%TD*%
D16*
%TO.C,D17*%
X153797000Y-122174000D03*
D14*
X153797000Y-129794000D03*
%TD*%
D16*
%TO.C,D16*%
X156337000Y-122174000D03*
D14*
X156337000Y-129794000D03*
%TD*%
D16*
%TO.C,D15*%
X158877000Y-122174000D03*
D14*
X158877000Y-129794000D03*
%TD*%
D16*
%TO.C,D12*%
X97917000Y-122174000D03*
D14*
X97917000Y-129794000D03*
%TD*%
D16*
%TO.C,D11*%
X100457000Y-122174000D03*
D14*
X100457000Y-129794000D03*
%TD*%
D16*
%TO.C,D10*%
X102870000Y-122174000D03*
D14*
X102870000Y-129794000D03*
%TD*%
D16*
%TO.C,D9*%
X105410000Y-122174000D03*
D14*
X105410000Y-129794000D03*
%TD*%
D16*
%TO.C,D8*%
X108077000Y-122174000D03*
D14*
X108077000Y-129794000D03*
%TD*%
D16*
%TO.C,D7*%
X110617000Y-122174000D03*
D14*
X110617000Y-129794000D03*
%TD*%
D13*
%TO.C,C10*%
X53166000Y-109728000D03*
D14*
X58166000Y-109728000D03*
%TD*%
D13*
%TO.C,C3*%
X44022000Y-109728000D03*
D14*
X49022000Y-109728000D03*
%TD*%
M02*
