M48
; DRILL file {KiCad 5.1.5+dfsg1-2build2} date Sun 31 Oct 2021 04:29:04 PM
; FORMAT={-:-/ absolute / inch / decimal}
; #@! TF.CreationDate,2021-10-31T16:29:04-04:00
; #@! TF.GenerationSoftware,Kicad,Pcbnew,5.1.5+dfsg1-2build2
; #@! TF.FileFunction,Plated,1,2,PTH
FMAT,2
INCH
T1C0.0157
T2C0.0276
T3C0.0315
T4C0.0335
T5C0.0354
T6C0.0362
T7C0.0394
T8C0.0917
T9C0.1260
%
G90
G05
T1
X1.7Y-6.875
X1.825Y-4.675
X1.825Y-7.65
X1.85Y-4.2
X1.875Y-5.775
X1.875Y-7.65
X2.05Y-1.725
X2.25Y-1.75
X2.375Y-2.125
X2.5Y-2.1
X2.55Y-2.15
X2.55Y-2.5
X3.6Y-3.65
X3.75Y-3.65
X3.8Y-5.125
X3.825Y-7.0
X4.1Y-4.05
X4.15Y-4.05
X4.2Y-4.05
X4.25Y-4.05
X4.3Y-4.05
X4.35Y-4.05
X4.4Y-4.05
X4.45Y-4.05
X4.6Y-4.05
X4.65Y-4.05
X4.7Y-4.05
X4.75Y-4.05
X4.8Y-4.05
X4.85Y-4.05
X4.9Y-4.05
X4.95Y-4.05
T2
X2.625Y-8.425
X2.625Y-8.725
X2.65Y-3.375
X2.95Y-3.375
X4.625Y-4.85
X4.625Y-5.15
X3.925Y-8.425
X3.925Y-8.725
X2.425Y-4.85
X2.425Y-5.15
X4.225Y-4.85
X4.225Y-5.15
X2.725Y-8.425
X2.725Y-8.725
X2.525Y-8.425
X2.525Y-8.725
X2.025Y-8.425
X2.025Y-8.725
X2.425Y-8.425
X2.425Y-8.725
X4.125Y-4.85
X4.125Y-5.15
X2.625Y-5.75
X2.625Y-6.05
X4.325Y-8.425
X4.325Y-8.725
X2.625Y-4.85
X2.625Y-5.15
X2.325Y-4.85
X2.325Y-5.15
X2.425Y-6.65
X2.425Y-6.95
X4.225Y-5.75
X4.225Y-6.05
X1.925Y-1.85
X1.925Y-2.15
X4.525Y-4.85
X4.525Y-5.15
X2.525Y-5.75
X2.525Y-6.05
X2.73Y-7.545
X2.73Y-7.845
X4.525Y-5.75
X4.525Y-6.05
X2.525Y-4.85
X2.525Y-5.15
X4.025Y-4.85
X4.025Y-5.15
X2.03Y-7.545
X2.03Y-7.845
X2.33Y-6.645
X2.33Y-6.945
X2.425Y-5.75
X2.425Y-6.05
X2.625Y-6.65
X2.625Y-6.95
X2.125Y-5.75
X2.125Y-6.05
X4.23Y-6.645
X4.23Y-6.945
X2.63Y-7.545
X2.63Y-7.845
X4.425Y-7.55
X4.425Y-7.85
X2.13Y-7.545
X2.13Y-7.845
X4.525Y-7.55
X4.525Y-7.85
X4.225Y-7.55
X4.225Y-7.85
X2.225Y-4.85
X2.225Y-5.15
X4.03Y-6.645
X4.03Y-6.945
X2.65Y-3.475
X2.95Y-3.475
X2.325Y-8.425
X2.325Y-8.725
X4.025Y-5.75
X4.025Y-6.05
X4.125Y-5.75
X4.125Y-6.05
X4.63Y-6.645
X4.63Y-6.945
X4.125Y-7.55
X4.125Y-7.85
X4.225Y-8.425
X4.225Y-8.725
X3.93Y-6.645
X3.93Y-6.945
X2.325Y-5.75
X2.325Y-6.05
X2.525Y-6.65
X2.525Y-6.95
X2.025Y-5.75
X2.025Y-6.05
X2.225Y-8.425
X2.225Y-8.725
X2.43Y-7.545
X2.43Y-7.845
X4.425Y-5.75
X4.425Y-6.05
X4.625Y-8.425
X4.625Y-8.725
X4.425Y-4.85
X4.425Y-5.15
X1.9083Y-1.35
X1.9083Y-1.65
X3.925Y-4.85
X3.925Y-5.15
X2.23Y-6.645
X2.23Y-6.945
X3.925Y-5.75
X3.925Y-6.05
X2.13Y-6.645
X2.13Y-6.945
X2.23Y-7.545
X2.23Y-7.845
X4.53Y-6.645
X4.53Y-6.945
X2.53Y-7.545
X2.53Y-7.845
X4.13Y-6.645
X4.13Y-6.945
X4.425Y-8.425
X4.425Y-8.725
X2.125Y-4.85
X2.125Y-5.15
X4.025Y-7.55
X4.025Y-7.85
X4.325Y-5.75
X4.325Y-6.05
X4.33Y-6.645
X4.33Y-6.945
X3.1Y-1.9
X3.4Y-1.9
X2.225Y-5.75
X2.225Y-6.05
X2.725Y-6.65
X2.725Y-6.95
X2.125Y-8.425
X2.125Y-8.725
X4.325Y-7.55
X4.325Y-7.85
X2.025Y-4.85
X2.025Y-5.15
X4.625Y-5.75
X4.625Y-6.05
X4.625Y-7.55
X4.625Y-7.85
X4.325Y-4.85
X4.325Y-5.15
X4.025Y-8.425
X4.025Y-8.725
X2.03Y-6.645
X2.03Y-6.945
X3.925Y-7.55
X3.925Y-7.85
X4.125Y-8.425
X4.125Y-8.725
X2.725Y-4.85
X2.725Y-5.15
X2.725Y-5.75
X2.725Y-6.05
X1.8Y-1.35
X1.8Y-1.65
X4.43Y-6.645
X4.43Y-6.945
X4.525Y-8.425
X4.525Y-8.725
X2.33Y-7.545
X2.33Y-7.845
T3
X5.475Y-8.425
X5.475Y-8.725
X5.17Y-6.645
X5.17Y-6.945
X3.475Y-5.75
X3.475Y-6.05
X3.57Y-6.645
X3.57Y-6.945
X3.275Y-4.85
X3.275Y-5.15
X5.075Y-8.425
X5.075Y-8.725
X2.97Y-6.645
X2.97Y-6.945
X5.275Y-8.425
X5.275Y-8.725
X3.07Y-7.545
X3.07Y-7.845
X1.5Y-3.2
X1.5Y-3.5
X1.6Y-3.2
X1.6Y-3.5
X1.7Y-3.2
X1.7Y-3.5
X1.8Y-3.2
X1.8Y-3.5
X1.9Y-3.2
X1.9Y-3.5
X2.0Y-3.2
X2.0Y-3.5
X2.1Y-3.2
X2.1Y-3.5
X3.57Y-7.545
X3.57Y-7.845
X4.875Y-8.425
X4.875Y-8.725
X5.475Y-4.85
X5.475Y-5.15
X5.575Y-5.75
X5.575Y-6.05
X5.275Y-7.55
X5.275Y-7.85
X3.375Y-5.75
X3.375Y-6.05
X3.47Y-6.645
X3.47Y-6.945
X3.175Y-8.425
X3.175Y-8.725
X4.975Y-4.85
X4.975Y-5.15
X5.075Y-5.75
X5.075Y-6.05
X3.675Y-8.425
X3.675Y-8.725
X5.07Y-6.645
X5.07Y-6.945
X5.475Y-5.75
X5.475Y-6.05
X3.175Y-4.85
X3.175Y-5.15
X5.57Y-6.645
X5.57Y-6.945
X2.97Y-7.545
X2.97Y-7.845
X3.675Y-4.85
X3.675Y-5.15
X3.47Y-7.545
X3.47Y-7.845
X4.975Y-5.75
X4.975Y-6.05
X5.375Y-4.85
X5.375Y-5.15
X5.175Y-7.55
X5.175Y-7.85
X5.8Y-1.05
X5.8Y-1.2469
X5.375Y-8.425
X5.375Y-8.725
X3.275Y-5.75
X3.275Y-6.05
X3.37Y-6.645
X3.37Y-6.945
X3.075Y-8.425
X3.075Y-8.725
X4.875Y-4.85
X4.875Y-5.15
X3.3Y-2.7
X3.3Y-2.8969
X3.7Y-1.15
X3.7Y-1.25
X3.7Y-1.35
X3.7Y-1.45
X3.7Y-1.55
X3.7Y-1.65
X3.7Y-1.75
X3.7Y-1.85
X3.7Y-1.95
X3.7Y-2.05
X3.7Y-2.15
X3.7Y-2.25
X3.7Y-2.35
X3.7Y-2.45
X3.7Y-2.55
X3.7Y-2.65
X3.7Y-2.75
X3.7Y-2.85
X3.7Y-2.95
X3.7Y-3.05
X4.3Y-1.15
X4.3Y-1.25
X4.3Y-1.35
X4.3Y-1.45
X4.3Y-1.55
X4.3Y-1.65
X4.3Y-1.75
X4.3Y-1.85
X4.3Y-1.95
X4.3Y-2.05
X4.3Y-2.15
X4.3Y-2.25
X4.3Y-2.35
X4.3Y-2.45
X4.3Y-2.55
X4.3Y-2.65
X4.3Y-2.75
X4.3Y-2.85
X4.3Y-2.95
X4.3Y-3.05
X3.575Y-8.425
X3.575Y-8.725
X3.3Y-2.15
X3.3Y-2.3421
X3.37Y-7.545
X3.37Y-7.845
X5.8Y-1.85
X5.8Y-2.0469
X2.85Y-2.7
X2.85Y-2.8969
X2.05Y-0.9531
X2.05Y-1.15
X5.275Y-4.85
X5.275Y-5.15
X4.97Y-6.645
X4.97Y-6.945
X5.375Y-5.75
X5.375Y-6.05
X3.075Y-4.85
X3.075Y-5.15
X5.8Y-2.25
X5.8Y-2.4469
X4.675Y-1.95
X4.675Y-2.1469
X5.47Y-6.645
X5.47Y-6.945
X5.025Y-1.95
X5.025Y-2.1469
X3.175Y-5.75
X3.175Y-6.05
X5.575Y-7.55
X5.575Y-7.85
X3.575Y-4.85
X3.575Y-5.15
X3.27Y-6.645
X3.27Y-6.945
X2.975Y-8.425
X2.975Y-8.725
X5.8Y-1.45
X5.8Y-1.6469
X2.75Y-1.975
X2.9469Y-1.975
X4.875Y-5.75
X4.875Y-6.05
X3.475Y-8.425
X3.475Y-8.725
X3.27Y-7.545
X3.27Y-7.845
X2.25Y-2.65
X2.25Y-2.8469
X5.075Y-7.55
X5.075Y-7.85
X4.87Y-6.645
X4.87Y-6.945
X1.5Y-2.0
X1.6969Y-2.0
X3.3Y-3.55
X3.3Y-3.85
X3.4Y-3.55
X3.4Y-3.85
X3.5Y-3.55
X3.5Y-3.85
X3.6Y-3.55
X3.6Y-3.85
X3.7Y-3.55
X3.7Y-3.85
X3.8Y-3.55
X3.8Y-3.85
X3.9Y-3.55
X3.9Y-3.85
X4.0Y-3.55
X4.0Y-3.85
X3.675Y-5.75
X3.675Y-6.05
X5.8Y-2.65
X5.8Y-2.8469
X5.8Y-3.05
X5.8Y-3.2469
X4.975Y-8.425
X4.975Y-8.725
X3.375Y-8.425
X3.375Y-8.725
X5.175Y-4.85
X5.175Y-5.15
X5.175Y-8.425
X5.175Y-8.725
X5.275Y-5.75
X5.275Y-6.05
X4.975Y-7.55
X4.975Y-7.85
X2.975Y-4.85
X2.975Y-5.15
X5.37Y-6.645
X5.37Y-6.945
X3.075Y-5.75
X3.075Y-6.05
X5.475Y-7.55
X5.475Y-7.85
X3.475Y-4.85
X3.475Y-5.15
X3.17Y-6.645
X3.17Y-6.945
X5.575Y-8.425
X5.575Y-8.725
X3.575Y-5.75
X3.575Y-6.05
X3.67Y-6.645
X3.67Y-6.945
X3.07Y-6.645
X3.07Y-6.945
X3.17Y-7.545
X3.17Y-7.845
X5.8Y-3.45
X5.8Y-3.6469
X5.8Y-3.85
X5.8Y-4.0469
X3.67Y-7.545
X3.67Y-7.845
X5.575Y-4.85
X5.575Y-5.15
X1.5Y-3.7
X1.5Y-4.0
X1.6Y-3.7
X1.6Y-4.0
X1.7Y-3.7
X1.7Y-4.0
X1.8Y-3.7
X1.8Y-4.0
X1.9Y-3.7
X1.9Y-4.0
X2.0Y-3.7
X2.0Y-4.0
X2.1Y-3.7
X2.1Y-4.0
X3.275Y-8.425
X3.275Y-8.725
X5.075Y-4.85
X5.075Y-5.15
X5.175Y-5.75
X5.175Y-6.05
X4.875Y-7.55
X4.875Y-7.85
X5.27Y-6.645
X5.27Y-6.945
X2.975Y-5.75
X2.975Y-6.05
X5.375Y-7.55
X5.375Y-7.85
X3.375Y-4.85
X3.375Y-5.15
T4
X6.05Y-2.65
X6.4437Y-2.65
X6.05Y-1.85
X6.4437Y-1.85
X6.05Y-3.05
X6.4437Y-3.05
X6.05Y-3.45
X6.4437Y-3.45
X6.05Y-1.05
X6.4437Y-1.05
X6.05Y-3.85
X6.4437Y-3.85
X6.05Y-1.45
X6.4437Y-1.45
X6.05Y-2.25
X6.4437Y-2.25
T5
X2.05Y-1.4
X2.05Y-1.5
X2.775Y-3.2
X2.875Y-3.2
X2.25Y-1.4
X2.25Y-1.5
X3.0Y-3.2
X3.1Y-3.2
T6
X1.6713Y-2.5516
X1.6713Y-2.65
X1.75Y-2.5516
X1.75Y-2.65
T7
X2.975Y-5.3
X2.975Y-5.4
X3.075Y-5.3
X3.075Y-5.4
X3.175Y-5.3
X3.175Y-5.4
X3.275Y-5.3
X3.275Y-5.4
X3.375Y-5.3
X3.375Y-5.4
X3.475Y-5.3
X3.475Y-5.4
X3.575Y-5.3
X3.575Y-5.4
X3.675Y-5.3
X3.675Y-5.4
X4.875Y-5.3
X4.875Y-5.4
X4.975Y-5.3
X4.975Y-5.4
X5.075Y-5.3
X5.075Y-5.4
X5.175Y-5.3
X5.175Y-5.4
X5.275Y-5.3
X5.275Y-5.4
X5.375Y-5.3
X5.375Y-5.4
X5.475Y-5.3
X5.475Y-5.4
X5.575Y-5.3
X5.575Y-5.4
X3.925Y-7.1
X3.925Y-7.2
X4.025Y-7.1
X4.025Y-7.2
X4.125Y-7.1
X4.125Y-7.2
X4.225Y-7.1
X4.225Y-7.2
X4.325Y-7.1
X4.325Y-7.2
X4.425Y-7.1
X4.425Y-7.2
X4.525Y-7.1
X4.525Y-7.2
X4.625Y-7.1
X4.625Y-7.2
X6.7Y-1.75
X6.7Y-1.85
X6.7Y-1.95
X4.875Y-7.1
X4.875Y-7.2
X4.975Y-7.1
X4.975Y-7.2
X5.075Y-7.1
X5.075Y-7.2
X5.175Y-7.1
X5.175Y-7.2
X5.275Y-7.1
X5.275Y-7.2
X5.375Y-7.1
X5.375Y-7.2
X5.475Y-7.1
X5.475Y-7.2
X5.575Y-7.1
X5.575Y-7.2
X3.925Y-8.0
X3.925Y-8.1
X4.025Y-8.0
X4.025Y-8.1
X4.125Y-8.0
X4.125Y-8.1
X4.225Y-8.0
X4.225Y-8.1
X4.325Y-8.0
X4.325Y-8.1
X4.425Y-8.0
X4.425Y-8.1
X4.525Y-8.0
X4.525Y-8.1
X4.625Y-8.0
X4.625Y-8.1
X2.025Y-6.2
X2.025Y-6.3
X2.125Y-6.2
X2.125Y-6.3
X2.225Y-6.2
X2.225Y-6.3
X2.325Y-6.2
X2.325Y-6.3
X2.425Y-6.2
X2.425Y-6.3
X2.525Y-6.2
X2.525Y-6.3
X2.625Y-6.2
X2.625Y-6.3
X2.725Y-6.2
X2.725Y-6.3
X4.65Y-1.05
X4.65Y-1.15
X4.65Y-1.25
X4.65Y-1.35
X4.65Y-1.45
X4.65Y-1.55
X4.65Y-1.65
X4.65Y-1.75
X2.975Y-6.2
X2.975Y-6.3
X3.075Y-6.2
X3.075Y-6.3
X3.175Y-6.2
X3.175Y-6.3
X3.275Y-6.2
X3.275Y-6.3
X3.375Y-6.2
X3.375Y-6.3
X3.475Y-6.2
X3.475Y-6.3
X3.575Y-6.2
X3.575Y-6.3
X3.675Y-6.2
X3.675Y-6.3
X2.025Y-7.1
X2.025Y-7.2
X2.125Y-7.1
X2.125Y-7.2
X2.225Y-7.1
X2.225Y-7.2
X2.325Y-7.1
X2.325Y-7.2
X2.425Y-7.1
X2.425Y-7.2
X2.525Y-7.1
X2.525Y-7.2
X2.625Y-7.1
X2.625Y-7.2
X2.725Y-7.1
X2.725Y-7.2
X6.7Y-2.15
X6.7Y-2.25
X6.7Y-2.35
X6.7Y-0.95
X6.7Y-1.05
X6.7Y-1.15
X4.85Y-2.95
X4.85Y-3.0591
X4.85Y-3.1681
X4.85Y-3.2772
X4.85Y-3.3862
X4.9618Y-3.0045
X4.9618Y-3.1136
X4.9618Y-3.2226
X4.9618Y-3.3317
X6.7Y-2.55
X6.7Y-2.65
X6.7Y-2.75
X4.875Y-8.0
X4.875Y-8.1
X4.975Y-8.0
X4.975Y-8.1
X5.075Y-8.0
X5.075Y-8.1
X5.175Y-8.0
X5.175Y-8.1
X5.275Y-8.0
X5.275Y-8.1
X5.375Y-8.0
X5.375Y-8.1
X5.475Y-8.0
X5.475Y-8.1
X5.575Y-8.0
X5.575Y-8.1
X2.025Y-8.9
X2.025Y-9.0
X2.125Y-8.9
X2.125Y-9.0
X2.225Y-8.9
X2.225Y-9.0
X2.325Y-8.9
X2.325Y-9.0
X2.425Y-8.9
X2.425Y-9.0
X2.525Y-8.9
X2.525Y-9.0
X2.625Y-8.9
X2.625Y-9.0
X2.725Y-8.9
X2.725Y-9.0
X2.025Y-5.3
X2.025Y-5.4
X2.125Y-5.3
X2.125Y-5.4
X2.225Y-5.3
X2.225Y-5.4
X2.325Y-5.3
X2.325Y-5.4
X2.425Y-5.3
X2.425Y-5.4
X2.525Y-5.3
X2.525Y-5.4
X2.625Y-5.3
X2.625Y-5.4
X2.725Y-5.3
X2.725Y-5.4
X6.7Y-2.95
X6.7Y-3.05
X6.7Y-3.15
X6.7Y-3.35
X6.7Y-3.45
X6.7Y-3.55
X4.875Y-8.9
X4.875Y-9.0
X4.975Y-8.9
X4.975Y-9.0
X5.075Y-8.9
X5.075Y-9.0
X5.175Y-8.9
X5.175Y-9.0
X5.275Y-8.9
X5.275Y-9.0
X5.375Y-8.9
X5.375Y-9.0
X5.475Y-8.9
X5.475Y-9.0
X5.575Y-8.9
X5.575Y-9.0
X3.925Y-5.3
X3.925Y-5.4
X4.025Y-5.3
X4.025Y-5.4
X4.125Y-5.3
X4.125Y-5.4
X4.225Y-5.3
X4.225Y-5.4
X4.325Y-5.3
X4.325Y-5.4
X4.425Y-5.3
X4.425Y-5.4
X4.525Y-5.3
X4.525Y-5.4
X4.625Y-5.3
X4.625Y-5.4
X3.925Y-6.2
X3.925Y-6.3
X4.025Y-6.2
X4.025Y-6.3
X4.125Y-6.2
X4.125Y-6.3
X4.225Y-6.2
X4.225Y-6.3
X4.325Y-6.2
X4.325Y-6.3
X4.425Y-6.2
X4.425Y-6.3
X4.525Y-6.2
X4.525Y-6.3
X4.625Y-6.2
X4.625Y-6.3
X2.975Y-8.9
X2.975Y-9.0
X3.075Y-8.9
X3.075Y-9.0
X3.175Y-8.9
X3.175Y-9.0
X3.275Y-8.9
X3.275Y-9.0
X3.375Y-8.9
X3.375Y-9.0
X3.475Y-8.9
X3.475Y-9.0
X3.575Y-8.9
X3.575Y-9.0
X3.675Y-8.9
X3.675Y-9.0
X6.7Y-3.75
X6.7Y-3.85
X6.7Y-3.95
X6.7Y-1.35
X6.7Y-1.45
X6.7Y-1.55
X3.925Y-8.9
X3.925Y-9.0
X4.025Y-8.9
X4.025Y-9.0
X4.125Y-8.9
X4.125Y-9.0
X4.225Y-8.9
X4.225Y-9.0
X4.325Y-8.9
X4.325Y-9.0
X4.425Y-8.9
X4.425Y-9.0
X4.525Y-8.9
X4.525Y-9.0
X4.625Y-8.9
X4.625Y-9.0
X2.975Y-8.0
X2.975Y-8.1
X3.075Y-8.0
X3.075Y-8.1
X3.175Y-8.0
X3.175Y-8.1
X3.275Y-8.0
X3.275Y-8.1
X3.375Y-8.0
X3.375Y-8.1
X3.475Y-8.0
X3.475Y-8.1
X3.575Y-8.0
X3.575Y-8.1
X3.675Y-8.0
X3.675Y-8.1
X2.55Y-1.1
X2.55Y-1.2
X2.65Y-1.1
X2.65Y-1.2
X2.75Y-1.1
X2.75Y-1.2
X2.025Y-8.0
X2.025Y-8.1
X2.125Y-8.0
X2.125Y-8.1
X2.225Y-8.0
X2.225Y-8.1
X2.325Y-8.0
X2.325Y-8.1
X2.425Y-8.0
X2.425Y-8.1
X2.525Y-8.0
X2.525Y-8.1
X2.625Y-8.0
X2.625Y-8.1
X2.725Y-8.0
X2.725Y-8.1
X4.875Y-6.2
X4.875Y-6.3
X4.975Y-6.2
X4.975Y-6.3
X5.075Y-6.2
X5.075Y-6.3
X5.175Y-6.2
X5.175Y-6.3
X5.275Y-6.2
X5.275Y-6.3
X5.375Y-6.2
X5.375Y-6.3
X5.475Y-6.2
X5.475Y-6.3
X5.575Y-6.2
X5.575Y-6.3
X2.975Y-7.1
X2.975Y-7.2
X3.075Y-7.1
X3.075Y-7.2
X3.175Y-7.1
X3.175Y-7.2
X3.275Y-7.1
X3.275Y-7.2
X3.375Y-7.1
X3.375Y-7.2
X3.475Y-7.1
X3.475Y-7.2
X3.575Y-7.1
X3.575Y-7.2
X3.675Y-7.1
X3.675Y-7.2
T8
X1.5646Y-2.3638
X1.5646Y-2.8378
T9
X4.9059Y-2.676
X4.9059Y-3.6602
T7
G00X1.3539Y-0.9728
M15
G01X1.2949Y-0.9728
M16
G05
G00X1.3539Y-1.3272
M15
G01X1.2949Y-1.3272
M16
G05
G00X1.3638Y-1.1244
M15
G01X1.3638Y-1.1756
M16
G05
G00X1.6Y-1.1106
M15
G01X1.6Y-1.1894
M16
G05
T0
M30
