M48
; DRILL file {KiCad (6.0.10)} date Tue Mar 28 13:06:33 2023
; FORMAT={-:-/ absolute / inch / decimal}
; #@! TF.CreationDate,2023-03-28T13:06:33-04:00
; #@! TF.GenerationSoftware,Kicad,Pcbnew,(6.0.10)
; #@! TF.FileFunction,Plated,1,2,PTH
FMAT,2
INCH
; #@! TA.AperFunction,Plated,PTH,ViaDrill
T1C0.0157
; #@! TA.AperFunction,Plated,PTH,ComponentDrill
T2C0.0276
; #@! TA.AperFunction,Plated,PTH,ComponentDrill
T3C0.0315
; #@! TA.AperFunction,Plated,PTH,ComponentDrill
T4C0.0335
; #@! TA.AperFunction,Plated,PTH,ComponentDrill
T5C0.0394
; #@! TA.AperFunction,Plated,PTH,ComponentDrill
T6C0.0591
; #@! TA.AperFunction,Plated,PTH,ComponentDrill
T7C0.0669
; #@! TA.AperFunction,Plated,PTH,ComponentDrill
T8C0.1260
; #@! TA.AperFunction,Plated,PTH,ViaDrill
T9C0.1378
%
G90
G05
T1
X2.0Y-3.91
X2.94Y-4.29
X2.99Y-4.29
X3.04Y-4.29
X3.09Y-4.29
X3.14Y-4.29
X3.19Y-4.29
X3.24Y-4.29
X3.29Y-4.29
X3.78Y-3.88
X3.85Y-4.02
X3.95Y-4.02
X4.05Y-4.02
X4.15Y-4.02
X4.25Y-4.02
X4.35Y-4.02
X4.47Y-2.73
X4.65Y-2.7
X4.76Y-2.7
T2
X2.705Y-4.81
X2.705Y-5.11
X2.705Y-5.71
X2.705Y-6.01
X2.705Y-8.385
X2.705Y-8.685
X2.71Y-6.605
X2.71Y-6.905
X2.71Y-7.505
X2.71Y-7.805
X2.805Y-4.81
X2.805Y-5.11
X2.805Y-5.71
X2.805Y-6.01
X2.805Y-8.385
X2.805Y-8.685
X2.81Y-6.605
X2.81Y-6.905
X2.81Y-7.505
X2.81Y-7.805
X2.905Y-4.81
X2.905Y-5.11
X2.905Y-5.71
X2.905Y-6.01
X2.905Y-8.385
X2.905Y-8.685
X2.91Y-6.605
X2.91Y-6.905
X2.91Y-7.505
X2.91Y-7.805
X3.005Y-4.81
X3.005Y-5.11
X3.005Y-5.71
X3.005Y-6.01
X3.005Y-8.385
X3.005Y-8.685
X3.01Y-6.605
X3.01Y-6.905
X3.01Y-7.505
X3.01Y-7.805
X3.105Y-4.81
X3.105Y-5.11
X3.105Y-5.71
X3.105Y-6.01
X3.105Y-6.61
X3.105Y-6.91
X3.105Y-8.385
X3.105Y-8.685
X3.11Y-7.505
X3.11Y-7.805
X3.205Y-4.81
X3.205Y-5.11
X3.205Y-5.71
X3.205Y-6.01
X3.205Y-6.61
X3.205Y-6.91
X3.205Y-8.385
X3.205Y-8.685
X3.21Y-7.505
X3.21Y-7.805
X3.305Y-4.81
X3.305Y-5.11
X3.305Y-5.71
X3.305Y-6.01
X3.305Y-6.61
X3.305Y-6.91
X3.305Y-8.385
X3.305Y-8.685
X3.31Y-7.505
X3.31Y-7.805
X3.405Y-4.81
X3.405Y-5.11
X3.405Y-5.71
X3.405Y-6.01
X3.405Y-6.61
X3.405Y-6.91
X3.405Y-8.385
X3.405Y-8.685
X3.41Y-7.505
X3.41Y-7.805
X4.605Y-4.81
X4.605Y-5.11
X4.605Y-5.71
X4.605Y-6.01
X4.605Y-7.51
X4.605Y-7.81
X4.605Y-8.385
X4.605Y-8.685
X4.61Y-6.605
X4.61Y-6.905
X4.705Y-4.81
X4.705Y-5.11
X4.705Y-5.71
X4.705Y-6.01
X4.705Y-7.51
X4.705Y-7.81
X4.705Y-8.385
X4.705Y-8.685
X4.71Y-6.605
X4.71Y-6.905
X4.805Y-4.81
X4.805Y-5.11
X4.805Y-5.71
X4.805Y-6.01
X4.805Y-7.51
X4.805Y-7.81
X4.805Y-8.385
X4.805Y-8.685
X4.81Y-6.605
X4.81Y-6.905
X4.905Y-4.81
X4.905Y-5.11
X4.905Y-5.71
X4.905Y-6.01
X4.905Y-7.51
X4.905Y-7.81
X4.905Y-8.385
X4.905Y-8.685
X4.91Y-6.605
X4.91Y-6.905
X5.005Y-4.81
X5.005Y-5.11
X5.005Y-5.71
X5.005Y-6.01
X5.005Y-7.51
X5.005Y-7.81
X5.005Y-8.385
X5.005Y-8.685
X5.01Y-6.605
X5.01Y-6.905
X5.105Y-4.81
X5.105Y-5.11
X5.105Y-5.71
X5.105Y-6.01
X5.105Y-7.51
X5.105Y-7.81
X5.105Y-8.385
X5.105Y-8.685
X5.11Y-6.605
X5.11Y-6.905
X5.205Y-4.81
X5.205Y-5.11
X5.205Y-5.71
X5.205Y-6.01
X5.205Y-7.51
X5.205Y-7.81
X5.205Y-8.385
X5.205Y-8.685
X5.21Y-6.605
X5.21Y-6.905
X5.305Y-4.81
X5.305Y-5.11
X5.305Y-5.71
X5.305Y-6.01
X5.305Y-7.51
X5.305Y-7.81
X5.305Y-8.385
X5.305Y-8.685
X5.31Y-6.605
X5.31Y-6.905
T3
X1.7331Y-4.32
X1.93Y-4.32
X2.0931Y-4.32
X2.29Y-4.32
X3.85Y-6.61
X3.85Y-6.91
X3.85Y-7.5
X3.85Y-7.8
X3.855Y-4.81
X3.855Y-5.11
X3.855Y-5.71
X3.855Y-6.01
X3.86Y-8.39
X3.86Y-8.69
X3.95Y-6.61
X3.95Y-6.91
X3.95Y-7.5
X3.95Y-7.8
X3.955Y-4.81
X3.955Y-5.11
X3.955Y-5.71
X3.955Y-6.01
X3.96Y-8.39
X3.96Y-8.69
X4.05Y-4.81
X4.05Y-5.11
X4.05Y-6.61
X4.05Y-6.91
X4.05Y-7.5
X4.05Y-7.8
X4.055Y-5.71
X4.055Y-6.01
X4.06Y-8.39
X4.06Y-8.69
X4.15Y-4.81
X4.15Y-5.11
X4.15Y-6.61
X4.15Y-6.91
X4.15Y-7.5
X4.15Y-7.8
X4.16Y-5.71
X4.16Y-6.01
X4.16Y-8.39
X4.16Y-8.69
X4.25Y-6.61
X4.25Y-6.91
X4.25Y-7.5
X4.25Y-7.8
X4.255Y-4.81
X4.255Y-5.11
X4.255Y-8.39
X4.255Y-8.69
X4.26Y-5.71
X4.26Y-6.01
X4.35Y-6.61
X4.35Y-6.91
X4.35Y-7.5
X4.35Y-7.8
X4.355Y-4.81
X4.355Y-5.11
X4.355Y-8.39
X4.355Y-8.69
X4.36Y-5.71
X4.36Y-6.01
X5.02Y-3.0
X5.02Y-3.3
X5.12Y-3.0
X5.12Y-3.3
X5.22Y-3.0
X5.22Y-3.3
X5.32Y-3.0
X5.32Y-3.3
X5.42Y-3.0
X5.42Y-3.3
X5.52Y-3.0
X5.52Y-3.3
X5.62Y-3.0
X5.62Y-3.3
X5.72Y-3.0
X5.72Y-3.3
X5.75Y-6.605
X5.75Y-6.905
X5.755Y-4.81
X5.755Y-5.11
X5.755Y-5.71
X5.755Y-6.01
X5.755Y-7.51
X5.755Y-7.81
X5.755Y-8.385
X5.755Y-8.685
X5.85Y-6.605
X5.85Y-6.905
X5.855Y-4.81
X5.855Y-5.11
X5.855Y-5.71
X5.855Y-6.01
X5.855Y-7.51
X5.855Y-7.81
X5.855Y-8.385
X5.855Y-8.685
X5.95Y-6.605
X5.95Y-6.905
X5.955Y-4.81
X5.955Y-5.11
X5.955Y-5.71
X5.955Y-6.01
X5.955Y-7.51
X5.955Y-7.81
X5.955Y-8.385
X5.955Y-8.685
X6.05Y-6.605
X6.05Y-6.905
X6.055Y-4.81
X6.055Y-5.11
X6.055Y-5.71
X6.055Y-6.01
X6.055Y-7.51
X6.055Y-7.81
X6.055Y-8.385
X6.055Y-8.685
X6.15Y-6.605
X6.15Y-6.905
X6.155Y-4.81
X6.155Y-5.11
X6.155Y-5.71
X6.155Y-6.01
X6.155Y-7.51
X6.155Y-7.81
X6.155Y-8.385
X6.155Y-8.685
X6.25Y-6.605
X6.25Y-6.905
X6.255Y-4.81
X6.255Y-5.11
X6.255Y-5.71
X6.255Y-6.01
X6.255Y-7.51
X6.255Y-7.81
X6.255Y-8.385
X6.255Y-8.685
T4
X1.92Y-4.58
X1.92Y-4.9737
X2.28Y-4.58
X2.28Y-4.9737
T5
X1.8802Y-4.02
X1.9802Y-4.02
X2.0802Y-4.02
X2.1802Y-4.02
X2.24Y-2.12
X2.2802Y-4.02
X2.34Y-2.12
X2.3802Y-4.02
X2.44Y-2.12
X2.4802Y-4.02
X2.54Y-2.12
X2.5802Y-4.02
X2.64Y-2.12
X2.6802Y-4.02
X2.705Y-5.26
X2.705Y-5.36
X2.705Y-6.16
X2.705Y-6.26
X2.705Y-7.06
X2.705Y-7.16
X2.705Y-7.96
X2.705Y-8.06
X2.705Y-8.86
X2.705Y-8.96
X2.74Y-2.12
X2.7802Y-4.02
X2.805Y-5.26
X2.805Y-5.36
X2.805Y-6.16
X2.805Y-6.26
X2.805Y-7.06
X2.805Y-7.16
X2.805Y-7.96
X2.805Y-8.06
X2.805Y-8.86
X2.805Y-8.96
X2.84Y-2.12
X2.905Y-5.26
X2.905Y-5.36
X2.905Y-6.16
X2.905Y-6.26
X2.905Y-7.06
X2.905Y-7.16
X2.905Y-7.96
X2.905Y-8.06
X2.905Y-8.86
X2.905Y-8.96
X2.94Y-2.12
X2.94Y-4.02
X3.005Y-5.26
X3.005Y-5.36
X3.005Y-6.16
X3.005Y-6.26
X3.005Y-7.06
X3.005Y-7.16
X3.005Y-7.96
X3.005Y-8.06
X3.005Y-8.86
X3.005Y-8.96
X3.04Y-4.02
X3.105Y-5.26
X3.105Y-5.36
X3.105Y-6.16
X3.105Y-6.26
X3.105Y-7.06
X3.105Y-7.16
X3.105Y-7.96
X3.105Y-8.06
X3.105Y-8.86
X3.105Y-8.96
X3.14Y-2.12
X3.14Y-4.02
X3.1406Y-1.78
X3.205Y-5.26
X3.205Y-5.36
X3.205Y-6.16
X3.205Y-6.26
X3.205Y-7.06
X3.205Y-7.16
X3.205Y-7.96
X3.205Y-8.06
X3.205Y-8.86
X3.205Y-8.96
X3.24Y-2.12
X3.24Y-4.02
X3.2406Y-1.78
X3.305Y-5.26
X3.305Y-5.36
X3.305Y-6.16
X3.305Y-6.26
X3.305Y-7.06
X3.305Y-7.16
X3.305Y-7.96
X3.305Y-8.06
X3.305Y-8.86
X3.305Y-8.96
X3.34Y-2.12
X3.34Y-4.02
X3.3406Y-1.78
X3.405Y-5.26
X3.405Y-5.36
X3.405Y-6.16
X3.405Y-6.26
X3.405Y-7.06
X3.405Y-7.16
X3.405Y-7.96
X3.405Y-8.06
X3.405Y-8.86
X3.405Y-8.96
X3.44Y-2.12
X3.44Y-4.02
X3.4406Y-1.78
X3.54Y-2.12
X3.54Y-4.02
X3.5406Y-1.78
X3.64Y-2.12
X3.64Y-4.02
X3.6406Y-1.78
X3.655Y-5.26
X3.655Y-5.36
X3.655Y-6.16
X3.655Y-6.26
X3.655Y-7.06
X3.655Y-7.16
X3.655Y-7.96
X3.655Y-8.06
X3.655Y-8.86
X3.655Y-8.96
X3.7406Y-1.78
X3.755Y-5.26
X3.755Y-5.36
X3.755Y-6.16
X3.755Y-6.26
X3.755Y-7.06
X3.755Y-7.16
X3.755Y-7.96
X3.755Y-8.06
X3.755Y-8.86
X3.755Y-8.96
X3.8406Y-1.78
X3.855Y-5.26
X3.855Y-5.36
X3.855Y-6.16
X3.855Y-6.26
X3.855Y-7.06
X3.855Y-7.16
X3.855Y-7.96
X3.855Y-8.06
X3.855Y-8.86
X3.855Y-8.96
X3.955Y-5.26
X3.955Y-5.36
X3.955Y-6.16
X3.955Y-6.26
X3.955Y-7.06
X3.955Y-7.16
X3.955Y-7.96
X3.955Y-8.06
X3.955Y-8.86
X3.955Y-8.96
X4.055Y-5.26
X4.055Y-5.36
X4.055Y-6.16
X4.055Y-6.26
X4.055Y-7.06
X4.055Y-7.16
X4.055Y-7.96
X4.055Y-8.06
X4.055Y-8.86
X4.055Y-8.96
X4.155Y-5.26
X4.155Y-5.36
X4.155Y-6.16
X4.155Y-6.26
X4.155Y-7.06
X4.155Y-7.16
X4.155Y-7.96
X4.155Y-8.06
X4.155Y-8.86
X4.155Y-8.96
X4.255Y-5.26
X4.255Y-5.36
X4.255Y-6.16
X4.255Y-6.26
X4.255Y-7.06
X4.255Y-7.16
X4.255Y-7.96
X4.255Y-8.06
X4.255Y-8.86
X4.255Y-8.96
X4.355Y-5.26
X4.355Y-5.36
X4.355Y-6.16
X4.355Y-6.26
X4.355Y-7.06
X4.355Y-7.16
X4.355Y-7.96
X4.355Y-8.06
X4.355Y-8.86
X4.355Y-8.96
X4.605Y-5.26
X4.605Y-5.36
X4.605Y-6.16
X4.605Y-6.26
X4.605Y-7.06
X4.605Y-7.16
X4.605Y-7.96
X4.605Y-8.06
X4.605Y-8.86
X4.605Y-8.96
X4.705Y-5.26
X4.705Y-5.36
X4.705Y-6.16
X4.705Y-6.26
X4.705Y-7.06
X4.705Y-7.16
X4.705Y-7.96
X4.705Y-8.06
X4.705Y-8.86
X4.705Y-8.96
X4.805Y-5.26
X4.805Y-5.36
X4.805Y-6.16
X4.805Y-6.26
X4.805Y-7.06
X4.805Y-7.16
X4.805Y-7.96
X4.805Y-8.06
X4.805Y-8.86
X4.805Y-8.96
X4.905Y-5.26
X4.905Y-5.36
X4.905Y-6.16
X4.905Y-6.26
X4.905Y-7.06
X4.905Y-7.16
X4.905Y-7.96
X4.905Y-8.06
X4.905Y-8.86
X4.905Y-8.96
X4.9515Y-2.3469
X5.005Y-5.26
X5.005Y-5.36
X5.005Y-6.16
X5.005Y-6.26
X5.005Y-7.06
X5.005Y-7.16
X5.005Y-7.96
X5.005Y-8.06
X5.005Y-8.86
X5.005Y-8.96
X5.006Y-2.2351
X5.02Y-3.6
X5.0606Y-2.3469
X5.105Y-5.26
X5.105Y-5.36
X5.105Y-6.16
X5.105Y-6.26
X5.105Y-7.06
X5.105Y-7.16
X5.105Y-7.96
X5.105Y-8.06
X5.105Y-8.86
X5.105Y-8.96
X5.1151Y-2.2351
X5.12Y-3.6
X5.1696Y-2.3469
X5.205Y-5.26
X5.205Y-5.36
X5.205Y-6.16
X5.205Y-6.26
X5.205Y-7.06
X5.205Y-7.16
X5.205Y-7.96
X5.205Y-8.06
X5.205Y-8.86
X5.205Y-8.96
X5.22Y-3.6
X5.2241Y-2.2351
X5.2787Y-2.3469
X5.305Y-5.26
X5.305Y-5.36
X5.305Y-6.16
X5.305Y-6.26
X5.305Y-7.06
X5.305Y-7.16
X5.305Y-7.96
X5.305Y-8.06
X5.305Y-8.86
X5.305Y-8.96
X5.32Y-3.6
X5.3332Y-2.2351
X5.3877Y-2.3469
X5.42Y-3.6
X5.52Y-3.6
X5.555Y-5.26
X5.555Y-5.36
X5.555Y-6.16
X5.555Y-6.26
X5.555Y-7.06
X5.555Y-7.16
X5.555Y-7.96
X5.555Y-8.06
X5.555Y-8.86
X5.555Y-8.96
X5.62Y-3.6
X5.655Y-5.26
X5.655Y-5.36
X5.655Y-6.16
X5.655Y-6.26
X5.655Y-7.06
X5.655Y-7.16
X5.655Y-7.96
X5.655Y-8.06
X5.655Y-8.86
X5.655Y-8.96
X5.72Y-3.6
X5.755Y-5.26
X5.755Y-5.36
X5.755Y-6.16
X5.755Y-6.26
X5.755Y-7.06
X5.755Y-7.16
X5.755Y-7.96
X5.755Y-8.06
X5.755Y-8.86
X5.755Y-8.96
X5.855Y-5.26
X5.855Y-5.36
X5.855Y-6.16
X5.855Y-6.26
X5.855Y-7.06
X5.855Y-7.16
X5.855Y-7.96
X5.855Y-8.06
X5.855Y-8.86
X5.855Y-8.96
X5.955Y-5.26
X5.955Y-5.36
X5.955Y-6.16
X5.955Y-6.26
X5.955Y-7.06
X5.955Y-7.16
X5.955Y-7.96
X5.955Y-8.06
X5.955Y-8.86
X5.955Y-8.96
X6.055Y-5.26
X6.055Y-5.36
X6.055Y-6.16
X6.055Y-6.26
X6.055Y-7.06
X6.055Y-7.16
X6.055Y-7.96
X6.055Y-8.06
X6.055Y-8.86
X6.055Y-8.96
X6.155Y-5.26
X6.155Y-5.36
X6.155Y-6.16
X6.155Y-6.26
X6.155Y-7.06
X6.155Y-7.16
X6.155Y-7.96
X6.155Y-8.06
X6.155Y-8.86
X6.155Y-8.96
X6.255Y-5.26
X6.255Y-5.36
X6.255Y-6.16
X6.255Y-6.26
X6.255Y-7.06
X6.255Y-7.16
X6.255Y-7.96
X6.255Y-8.06
X6.255Y-8.86
X6.255Y-8.96
T6
X1.34Y-4.6
X1.34Y-5.16
X1.34Y-5.72
T7
X1.24Y-4.5
X1.24Y-4.7
X1.24Y-5.06
X1.24Y-5.26
X1.24Y-5.62
X1.24Y-5.82
X1.44Y-4.5
X1.44Y-4.7
X1.44Y-5.06
X1.44Y-5.26
X1.44Y-5.62
X1.44Y-5.82
T8
X4.6775Y-2.291
X5.6617Y-2.291
T9
X1.6Y-1.8
X1.6Y-8.9
X2.53Y-4.6
X6.3Y-1.8
X6.6Y-4.6
X6.6Y-8.9
T0
M30
